<?xml version="1.0" encoding="UTF-8"?>
<svg version="1.1" xmlns="http://www.w3.org/2000/svg" width="568" height="983">
<path d="M0 0 C4.95 0 9.9 0 15 0 C15 0.33 15 0.66 15 1 C16.65 1.33 18.3 1.66 20 2 C20 1.34 20 0.68 20 0 C26.6 0 33.2 0 40 0 C40 0.66 40 1.32 40 2 C43.3 2 46.6 2 50 2 C50 1.34 50 0.68 50 0 C50.66 0 51.32 0 52 0 C52 0.66 52 1.32 52 2 C52.99 2 53.98 2 55 2 C55 1.34 55 0.68 55 0 C55.99 0 56.98 0 58 0 C58 0.66 58 1.32 58 2 C58.89585815 1.99214478 58.89585815 1.99214478 59.80981445 1.98413086 C73.24734057 1.88263315 86.58999777 2.12373381 100 3 C100 3.66 100 4.32 100 5 C101.77890625 4.98259766 101.77890625 4.98259766 103.59375 4.96484375 C114.11287596 4.89497099 124.51023298 5.18975593 135 6 C135 6.66 135 7.32 135 8 C135.66644531 7.98839844 136.33289063 7.97679687 137.01953125 7.96484375 C143.74230945 7.89902634 150.317439 8.27616361 157 9 C157 9.66 157 10.32 157 11 C163.93 11.33 170.86 11.66 178 12 C178 12.66 178 13.32 178 14 C184.93 14.495 184.93 14.495 192 15 C192 15.66 192 16.32 192 17 C192.58007812 16.98839844 193.16015625 16.97679688 193.7578125 16.96484375 C198.2998246 16.91237826 202.52713569 17.08248937 207 18 C207 18.66 207 19.32 207 20 C207.58007812 19.98839844 208.16015625 19.97679688 208.7578125 19.96484375 C213.2998246 19.91237826 217.52713569 20.08248937 222 21 C222 21.66 222 22.32 222 23 C225.96 23.33 229.92 23.66 234 24 C234 24.66 234 25.32 234 26 C237.96 26.33 241.92 26.66 246 27 C246 27.66 246 28.32 246 29 C252.93 29.495 252.93 29.495 260 30 C260 30.66 260 31.32 260 32 C260.66386719 32.04898438 261.32773437 32.09796875 262.01171875 32.1484375 C270.78207381 32.89103691 270.78207381 32.89103691 275 35 C275 35.66 275 36.32 275 37 C278.63 37.33 282.26 37.66 286 38 C286 38.66 286 39.32 286 40 C288.97 40.33 291.94 40.66 295 41 C295 41.66 295 42.32 295 43 C296.98 43.33 298.96 43.66 301 44 C301.33 45.65 301.66 47.3 302 49 C302.66 49 303.32 49 304 49 C305.625 50.5 305.625 50.5 307 52 C307 51.34 307 50.68 307 50 C307.66 50 308.32 50 309 50 C309 50.66 309 51.32 309 52 C310.32 52.33 311.64 52.66 313 53 C313 53.99 313 54.98 313 56 C313.66 56 314.32 56 315 56 C315.33 58.97 315.66 61.94 316 65 C316.66 65 317.32 65 318 65 C318.33 69.29 318.66 73.58 319 78 C319.66 78 320.32 78 321 78 C321.96942216 83.67790657 322.14587184 89.16835736 322.1328125 94.921875 C322.13376923 95.86250793 322.13472595 96.80314087 322.13571167 97.77227783 C322.1363896 99.75573799 322.1345624 101.73920041 322.13037109 103.72265625 C322.12504149 106.72661447 322.13031688 109.73042154 322.13671875 112.734375 C322.13605743 114.67187532 322.13477516 116.60937556 322.1328125 118.546875 C322.13483673 119.43058777 322.13686096 120.31430054 322.13894653 121.22479248 C322.11577694 127.52766283 321.65810396 133.73267384 321 140 C320.34 140 319.68 140 319 140 C318.97494385 140.69150146 318.9498877 141.38300293 318.92407227 142.09545898 C318.80847839 145.20967866 318.68558758 148.32356789 318.5625 151.4375 C318.52318359 152.52611328 318.48386719 153.61472656 318.44335938 154.73632812 C318.40146484 155.77080078 318.35957031 156.80527344 318.31640625 157.87109375 C318.27974854 158.82943115 318.24309082 159.78776855 318.20532227 160.77514648 C318 163 318 163 317 164 C316.85228116 166.55652581 316.76500594 169.08950286 316.71875 171.6484375 C316.70034058 172.4167691 316.68193115 173.18510071 316.66296387 173.97671509 C316.60403699 176.44272995 316.55131889 178.90881577 316.5 181.375 C316.43234913 184.61212596 316.35861445 187.84903084 316.28125 191.0859375 C316.26767456 191.83289886 316.25409912 192.57986023 316.2401123 193.34945679 C316.16505737 196.47992586 315.99698208 199.00905376 315 202 C314.34 202 313.68 202 313 202 C312.896875 202.763125 312.79375 203.52625 312.6875 204.3125 C311.93412462 207.25751284 311.44706902 208.25209356 309 210 C306.3125 210.6875 306.3125 210.6875 304 211 C304 211.66 304 212.32 304 213 C302.02 213.33 300.04 213.66 298 214 C298 214.66 298 215.32 298 216 C296.35 216.33 294.7 216.66 293 217 C292.67 217.99 292.34 218.98 292 220 C291.01 220 290.02 220 289 220 C289 220.66 289 221.32 289 222 C287.02 222.33 285.04 222.66 283 223 C283 223.66 283 224.32 283 225 C281.02 225.33 279.04 225.66 277 226 C277 226.66 277 227.32 277 228 C275.35 228 273.7 228 272 228 C272 228.66 272 229.32 272 230 C270.02 230.33 268.04 230.66 266 231 C266 231.66 266 232.32 266 233 C264.02 233.33 262.04 233.66 260 234 C260 234.66 260 235.32 260 236 C257.36 236.33 254.72 236.66 252 237 C252 237.66 252 238.32 252 239 C250.02 239.33 248.04 239.66 246 240 C246 240.66 246 241.32 246 242 C243.69 242.33 241.38 242.66 239 243 C239 243.66 239 244.32 239 245 C236.36 245.33 233.72 245.66 231 246 C231 246.66 231 247.32 231 248 C228.36 248.33 225.72 248.66 223 249 C223 249.66 223 250.32 223 251 C220.69 251.33 218.38 251.66 216 252 C216 252.66 216 253.32 216 254 C213.36 254.33 210.72 254.66 208 255 C208 255.66 208 256.32 208 257 C205.69 257.33 203.38 257.66 201 258 C201 258.66 201 259.32 201 260 C198.03 260.33 195.06 260.66 192 261 C192 261.66 192 262.32 192 263 C189.36 263.33 186.72 263.66 184 264 C184 264.66 184 265.32 184 266 C182.02 266 180.04 266 178 266 C178 266.66 178 267.32 178 268 C174.37 268.33 170.74 268.66 167 269 C167 269.66 167 270.32 167 271 C162.71 271.33 158.42 271.66 154 272 C154 272.66 154 273.32 154 274 C148.72 274.33 143.44 274.66 138 275 C138 275.66 138 276.32 138 277 C131.95170514 277.89604368 126.1105424 278.11269443 120 278 C120 278.66 120 279.32 120 280 C111.39421862 280.87019244 102.8960185 281.12607367 94.25 281.0625 C93.0640625 281.05798828 91.878125 281.05347656 90.65625 281.04882812 C87.77077772 281.03719316 84.88541787 281.0208484 82 281 C82 281.66 82 282.32 82 283 C77.05 283 72.1 283 67 283 C67 282.34 67 281.68 67 281 C64.03 281 61.06 281 58 281 C58 281.66 58 282.32 58 283 C42.82 283 27.64 283 12 283 C12 282.34 12 281.68 12 281 C11.32235596 281.00523682 10.64471191 281.01047363 9.9465332 281.01586914 C-5.07252002 281.1159033 -20.00625584 280.89134785 -35 280 C-35 279.34 -35 278.68 -35 278 C-42.92 277.67 -50.84 277.34 -59 277 C-59 276.34 -59 275.68 -59 275 C-64.61 274.67 -70.22 274.34 -76 274 C-76 273.34 -76 272.68 -76 272 C-77.7634375 272.0309375 -77.7634375 272.0309375 -79.5625 272.0625 C-83.47413467 272.06947261 -87.14497944 271.64250343 -91 271 C-91 270.34 -91 269.68 -91 269 C-92.2375 269.020625 -93.475 269.04125 -94.75 269.0625 C-97.6640825 269.06766681 -100.20953327 268.93015558 -103 268 C-103 267.34 -103 266.68 -103 266 C-104.98 266 -106.96 266 -109 266 C-109 265.34 -109 264.68 -109 264 C-111.97 263.67 -114.94 263.34 -118 263 C-118 262.34 -118 261.68 -118 261 C-118.60328125 260.95101563 -119.2065625 260.90203125 -119.828125 260.8515625 C-121.02695313 260.73941406 -121.02695313 260.73941406 -122.25 260.625 C-123.03890625 260.55539062 -123.8278125 260.48578125 -124.640625 260.4140625 C-127.10292019 259.98193785 -128.80039716 259.15389001 -131 258 C-132.99110401 257.61709538 -134.99100513 257.27395385 -137 257 C-137 256.34 -137 255.68 -137 255 C-139.97 254.67 -142.94 254.34 -146 254 C-146 253.34 -146 252.68 -146 252 C-148.97 251.67 -151.94 251.34 -155 251 C-155 250.34 -155 249.68 -155 249 C-156.98 248.67 -158.96 248.34 -161 248 C-161 247.34 -161 246.68 -161 246 C-163.97 245.67 -166.94 245.34 -170 245 C-170 244.34 -170 243.68 -170 243 C-172.97 242.67 -175.94 242.34 -179 242 C-179 241.34 -179 240.68 -179 240 C-180.98 239.67 -182.96 239.34 -185 239 C-185 238.34 -185 237.68 -185 237 C-187.64 236.67 -190.28 236.34 -193 236 C-193 235.34 -193 234.68 -193 234 C-194.98 233.67 -196.96 233.34 -199 233 C-199 232.34 -199 231.68 -199 231 C-200.98 230.67 -202.96 230.34 -205 230 C-205 229.34 -205 228.68 -205 228 C-205.66 228 -206.32 228 -207 228 C-207 227.34 -207 226.68 -207 226 C-208.4540625 225.814375 -208.4540625 225.814375 -209.9375 225.625 C-210.948125 225.41875 -211.95875 225.2125 -213 225 C-213.33 224.34 -213.66 223.68 -214 223 C-214.99 222.67 -215.98 222.34 -217 222 C-217 221.34 -217 220.68 -217 220 C-218.65 219.67 -220.3 219.34 -222 219 C-222.33 217.35 -222.66 215.7 -223 214 C-223.99 213.67 -224.98 213.34 -226 213 C-226 211.35 -226 209.7 -226 208 C-226.66 208 -227.32 208 -228 208 C-228.495 195.13 -228.495 195.13 -229 182 C-229.66 182 -230.32 182 -231 182 C-231.33 177.71 -231.66 173.42 -232 169 C-232.66 169 -233.32 169 -234 169 C-234.495 163.06 -234.495 163.06 -235 157 C-235.66 157 -236.32 157 -237 157 C-237 154.36 -237 151.72 -237 149 C-237.66 149 -238.32 149 -239 149 C-239.33 143.06 -239.66 137.12 -240 131 C-240.66 131 -241.32 131 -242 131 C-243.19190363 122.65667456 -243.09283549 114.40676978 -243 106 C-243.66 106 -244.32 106 -245 106 C-245.19827341 101.50040757 -245.38168337 97.00032507 -245.5625 92.5 C-245.61857422 91.2315625 -245.67464844 89.963125 -245.73242188 88.65625 C-245.98089867 82.29524393 -246.07096697 76.28300621 -245 70 C-244.34 70 -243.68 70 -243 70 C-242.67 68.35 -242.34 66.7 -242 65 C-241.34 65 -240.68 65 -240 65 C-239.67 63.68 -239.34 62.36 -239 61 C-237.68 61 -236.36 61 -235 61 C-234.67 60.01 -234.34 59.02 -234 58 C-233.01 58 -232.02 58 -231 58 C-231 57.34 -231 56.68 -231 56 C-228.525 55.505 -228.525 55.505 -226 55 C-226 54.34 -226 53.68 -226 53 C-223.03 52.505 -223.03 52.505 -220 52 C-220 51.34 -220 50.68 -220 50 C-217.03 49.505 -217.03 49.505 -214 49 C-214 48.34 -214 47.68 -214 47 C-211.69 46.67 -209.38 46.34 -207 46 C-207 45.34 -207 44.68 -207 44 C-204.36 43.67 -201.72 43.34 -199 43 C-199 42.34 -199 41.68 -199 41 C-196.03 40.505 -196.03 40.505 -193 40 C-193 39.34 -193 38.68 -193 38 C-188.545 37.505 -188.545 37.505 -184 37 C-184 36.34 -184 35.68 -184 35 C-183.01 35 -182.02 35 -181 35 C-181 34.34 -181 33.68 -181 33 C-178.36 32.67 -175.72 32.34 -173 32 C-173 31.34 -173 30.68 -173 30 C-169.7 29.67 -166.4 29.34 -163 29 C-163 28.34 -163 27.68 -163 27 C-159.37 26.67 -155.74 26.34 -152 26 C-152 25.34 -152 24.68 -152 24 C-148.37 23.67 -144.74 23.34 -141 23 C-141 22.34 -141 21.68 -141 21 C-138.00519083 20.1276588 -135.36424089 19.89170234 -132.25 19.9375 C-131.45078125 19.94652344 -130.6515625 19.95554687 -129.828125 19.96484375 C-129.22484375 19.97644531 -128.6215625 19.98804687 -128 20 C-128 19.34 -128 18.68 -128 18 C-124.37 17.67 -120.74 17.34 -117 17 C-117 16.34 -117 15.68 -117 15 C-112.38 14.67 -107.76 14.34 -103 14 C-103 13.34 -103 12.68 -103 12 C-96.65758005 10.84683274 -90.43311296 10.90492937 -84 11 C-84 10.34 -84 9.68 -84 9 C-79.38 8.67 -74.76 8.34 -70 8 C-70 7.34 -70 6.68 -70 6 C-58.69256254 4.66410022 -47.36626101 4.90138722 -36 5 C-36 4.34 -36 3.68 -36 3 C-24.01596707 1.71188898 -12.03619371 1.89973695 0 2 C0 1.34 0 0.68 0 0 Z M-18 21 C-18 21.66 -18 22.32 -18 23 C-19.98 23 -21.96 23 -24 23 C-24 22.34 -24 21.68 -24 21 C-25.65 21 -27.3 21 -29 21 C-29 21.66 -29 22.32 -29 23 C-29.94359375 22.98839844 -30.8871875 22.97679687 -31.859375 22.96484375 C-39.96925884 22.90784657 -47.92292197 23.15769764 -56 24 C-56 24.66 -56 25.32 -56 26 C-56.72703125 25.98839844 -57.4540625 25.97679687 -58.203125 25.96484375 C-65.52631959 25.89912277 -72.71366686 26.2765343 -80 27 C-80 27.66 -80 28.32 -80 29 C-84.62 29.33 -89.24 29.66 -94 30 C-94 30.66 -94 31.32 -94 32 C-95.7634375 31.9690625 -95.7634375 31.9690625 -97.5625 31.9375 C-101.47413467 31.93052739 -105.14497944 32.35749657 -109 33 C-109 33.66 -109 34.32 -109 35 C-110.98 35 -112.96 35 -115 35 C-115 35.66 -115 36.32 -115 37 C-116.19625 36.979375 -117.3925 36.95875 -118.625 36.9375 C-122.18004869 36.93117429 -125.50555624 37.30111125 -129 38 C-129 38.66 -129 39.32 -129 40 C-132.63 40.33 -136.26 40.66 -140 41 C-140 41.66 -140 42.32 -140 43 C-141.051875 42.979375 -142.10375 42.95875 -143.1875 42.9375 C-146.32704904 42.98896802 -148.96883396 43.26517187 -152 44 C-152 44.66 -152 45.32 -152 46 C-155.63 46.33 -159.26 46.66 -163 47 C-163 47.66 -163 48.32 -163 49 C-165.97 49.33 -168.94 49.66 -172 50 C-172 50.66 -172 51.32 -172 52 C-176.455 52.495 -176.455 52.495 -181 53 C-181 53.66 -181 54.32 -181 55 C-183.97 55.495 -183.97 55.495 -187 56 C-187 56.66 -187 57.32 -187 58 C-190.465 58.495 -190.465 58.495 -194 59 C-194 59.66 -194 60.32 -194 61 C-196.64 61.33 -199.28 61.66 -202 62 C-202 62.66 -202 63.32 -202 64 C-204.97 64.495 -204.97 64.495 -208 65 C-208 65.66 -208 66.32 -208 67 C-210.97 67.495 -210.97 67.495 -214 68 C-214 68.66 -214 69.32 -214 70 C-216.475 70.495 -216.475 70.495 -219 71 C-219 71.66 -219 72.32 -219 73 C-219.99 73 -220.98 73 -222 73 C-222.33 73.66 -222.66 74.32 -223 75 C-224.485 75.495 -224.485 75.495 -226 76 C-226 76.66 -226 77.32 -226 78 C-226.66 78 -227.32 78 -228 78 C-228 83.28 -228 88.56 -228 94 C-227.34 94 -226.68 94 -226 94 C-226.00523682 94.61931396 -226.01047363 95.23862793 -226.01586914 95.87670898 C-226.03688073 98.73029533 -226.04973614 101.58386531 -226.0625 104.4375 C-226.07087891 105.41138672 -226.07925781 106.38527344 -226.08789062 107.38867188 C-226.10782078 113.34778969 -225.77609518 119.09067683 -225 125 C-224.34 125 -223.68 125 -223 125 C-223.01160156 125.556875 -223.02320313 126.11375 -223.03515625 126.6875 C-223.11191617 133.17919601 -222.79642055 139.21252806 -221 145.5 C-219.89318095 149.37386668 -219.42113216 152.9992445 -219 157 C-218.34 157 -217.68 157 -217 157 C-216.67 161.95 -216.34 166.9 -216 172 C-215.34 172 -214.68 172 -214 172 C-213.67 175.3 -213.34 178.6 -213 182 C-212.34 182 -211.68 182 -211 182 C-211.01160156 182.86882812 -211.02320313 183.73765625 -211.03515625 184.6328125 C-211.04417969 185.78523437 -211.05320312 186.93765625 -211.0625 188.125 C-211.07410156 189.26195312 -211.08570313 190.39890625 -211.09765625 191.5703125 C-211.00432805 194.84799874 -210.76715238 197.81195359 -210 201 C-207.58119071 203.26877535 -207.58119071 203.26877535 -205 205 C-204.505 205.99 -204.505 205.99 -204 207 C-201.67843403 207.40729228 -199.3431213 207.74438677 -197 208 C-197 208.66 -197 209.32 -197 210 C-193.70450534 211.72264494 -190.66881155 213.29445932 -187 214 C-187 214.66 -187 215.32 -187 216 C-184.36 216.33 -181.72 216.66 -179 217 C-179 217.66 -179 218.32 -179 219 C-176.69 219.33 -174.38 219.66 -172 220 C-172 220.66 -172 221.32 -172 222 C-170.14375 222.433125 -170.14375 222.433125 -168.25 222.875 C-165.24410303 223.6158901 -162.76644359 224.6167782 -160 226 C-158.68 226 -157.36 226 -156 226 C-156 226.66 -156 227.32 -156 228 C-154.68 228 -153.36 228 -152 228 C-152 228.66 -152 229.32 -152 230 C-149.36 230.33 -146.72 230.66 -144 231 C-144 231.66 -144 232.32 -144 233 C-141.03 233.33 -138.06 233.66 -135 234 C-135 234.66 -135 235.32 -135 236 C-132.03 236.33 -129.06 236.66 -126 237 C-126 237.66 -126 238.32 -126 239 C-122.32589215 240.17571451 -118.83070817 240.07366746 -115 240 C-115 240.66 -115 241.32 -115 242 C-112.69 242.33 -110.38 242.66 -108 243 C-108 243.66 -108 244.32 -108 245 C-104.04 245.33 -100.08 245.66 -96 246 C-96 246.66 -96 247.32 -96 248 C-92.04 248.33 -88.08 248.66 -84 249 C-84 249.66 -84 250.32 -84 251 C-79.38 251.33 -74.76 251.66 -70 252 C-70 252.66 -70 253.32 -70 254 C-69.39937744 254.05534912 -68.79875488 254.11069824 -68.17993164 254.16772461 C-65.47366869 254.41970782 -62.76810116 254.6785117 -60.0625 254.9375 C-58.64420898 255.06801758 -58.64420898 255.06801758 -57.19726562 255.20117188 C-55.84858398 255.33168945 -55.84858398 255.33168945 -54.47265625 255.46484375 C-53.64000244 255.543396 -52.80734863 255.62194824 -51.94946289 255.70288086 C-50 256 -50 256 -49 257 C-43.29600101 257.91034805 -37.76662652 258.127462 -32 258.0625 C-31.22527344 258.05798828 -30.45054687 258.05347656 -29.65234375 258.04882812 C-27.76819476 258.03719758 -25.88408635 258.01926906 -24 258 C-24 258.66 -24 259.32 -24 260 C-23.03586182 260.05534912 -22.07172363 260.11069824 -21.07836914 260.16772461 C-17.51297942 260.37363628 -13.94797513 260.58565784 -10.38305664 260.79956055 C-8.83790808 260.89140788 -7.2926591 260.98158137 -5.74731445 261.07006836 C-3.53047826 261.19729301 -1.31406885 261.33046562 0.90234375 261.46484375 C1.5971434 261.50343002 2.29194305 261.5420163 3.00779724 261.58177185 C7.88612829 261.88612829 7.88612829 261.88612829 9 263 C10.99958364 263.04080783 13.00045254 263.04254356 15 263 C15 262.67 15 262.34 15 262 C16.98 261.67 18.96 261.34 21 261 C21 261.66 21 262.32 21 263 C27.54684826 263.16908612 34.0938781 263.32880954 40.64111328 263.48217773 C42.86610017 263.53538465 45.09103782 263.59069572 47.31591797 263.64819336 C50.523004 263.73070228 53.73019381 263.80551921 56.9375 263.87890625 C57.92427734 263.90594131 58.91105469 263.93297638 59.92773438 263.96083069 C65.40807235 264.07794873 70.57974634 263.83151619 76 263 C76 262.34 76 261.68 76 261 C79.63 261 83.26 261 87 261 C87 261.66 87 262.32 87 263 C87.99 263 88.98 263 90 263 C90 262.34 90 261.68 90 261 C97.92 260.67 105.84 260.34 114 260 C114 259.34 114 258.68 114 258 C115.258125 258.020625 116.51625 258.04125 117.8125 258.0625 C123.24514947 258.07115072 128.60104876 257.56512387 134 257 C134 256.34 134 255.68 134 255 C134.8353125 255.01740234 134.8353125 255.01740234 135.6875 255.03515625 C140.89778343 255.09676433 145.8437951 254.74999344 151 254 C151 253.34 151 252.68 151 252 C154.96 251.67 158.92 251.34 163 251 C163 250.34 163 249.68 163 249 C166.96 248.67 170.92 248.34 175 248 C175 247.34 175 246.68 175 246 C177.97 245.67 180.94 245.34 184 245 C184 244.34 184 243.68 184 243 C186.97 242.67 189.94 242.34 193 242 C193 241.34 193 240.68 193 240 C195.64 239.67 198.28 239.34 201 239 C201 238.34 201 237.68 201 237 C203.31 236.67 205.62 236.34 208 236 C208 235.34 208 234.68 208 234 C210.64 233.67 213.28 233.34 216 233 C216 232.34 216 231.68 216 231 C216.928125 230.87625 217.85625 230.7525 218.8125 230.625 C222.13925235 230.18466918 222.13925235 230.18466918 225 228 C225 227.34 225 226.68 225 226 C227.64 225.67 230.28 225.34 233 225 C233 224.34 233 223.68 233 223 C235.31 222.67 237.62 222.34 240 222 C240 221.34 240 220.68 240 220 C242.64 219.67 245.28 219.34 248 219 C248 218.34 248 217.68 248 217 C249.32 216.67 250.64 216.34 252 216 C252 215.34 252 214.68 252 214 C254.64 213.67 257.28 213.34 260 213 C260 212.34 260 211.68 260 211 C263.07617188 210.70703125 263.07617188 210.70703125 266.15234375 210.4140625 C266.76207031 210.27742187 267.37179687 210.14078125 268 210 C268.33 209.34 268.66 208.68 269 208 C270.66666667 207.66666667 272.33333333 207.33333333 274 207 C274.33 206.34 274.66 205.68 275 205 C275.99 204.67 276.98 204.34 278 204 C278 203.34 278 202.68 278 202 C279.051875 201.8453125 279.051875 201.8453125 280.125 201.6875 C283.39137647 200.90640997 286.0471852 199.57941257 289 198 C289 197.34 289 196.68 289 196 C290.98 195.505 290.98 195.505 293 195 C293 194.34 293 193.68 293 193 C294.65 192.67 296.3 192.34 298 192 C299.31191997 185.04785719 299.11058058 178.11555097 299.0625 171.0625 C299.05573242 169.17821289 299.05573242 169.17821289 299.04882812 167.25585938 C299.03709681 164.17052337 299.020681 161.08528684 299 158 C299.66 158 300.32 158 301 158 C301.79681084 149.97497656 302.12867289 142.06350113 302 134 C302.66 134 303.32 134 304 134 C304 130.04 304 126.08 304 122 C304.66 122 305.32 122 306 122 C306 115.73 306 109.46 306 103 C305.34 103 304.68 103 304 103 C304 99.7 304 96.4 304 93 C303.34 93 302.68 93 302 93 C302.020625 91.80375 302.04125 90.6075 302.0625 89.375 C302.06882571 85.81995131 301.69888875 82.49444376 301 79 C300.34 79 299.68 79 299 79 C298.67 74.05 298.34 69.1 298 64 C295.03 64 292.06 64 289 64 C289 63.34 289 62.68 289 62 C282.07 61.505 282.07 61.505 275 61 C275 60.34 275 59.68 275 59 C272.03 58.67 269.06 58.34 266 58 C266 57.34 266 56.68 266 56 C262.37 55.67 258.74 55.34 255 55 C255 54.34 255 53.68 255 53 C252.03 52.67 249.06 52.34 246 52 C246 51.34 246 50.68 246 50 C242.04 49.67 238.08 49.34 234 49 C234 48.34 234 47.68 234 47 C230.0186217 45.6728739 226.14954773 45.93084087 222 46 C222 45.34 222 44.68 222 44 C218.04 43.67 214.08 43.34 210 43 C210 42.34 210 41.68 210 41 C205.03926578 39.67713754 200.08888488 39.91106803 195 40 C195 39.34 195 38.68 195 38 C191.37 37.67 187.74 37.34 184 37 C184 36.34 184 35.68 184 35 C180.04 35 176.08 35 172 35 C172 34.34 172 33.68 172 33 C167.32798795 31.79431947 162.78503708 31.90617574 158 32 C158 31.34 158 30.68 158 30 C150.97360585 29.25194283 144.06608191 28.86205046 137 29 C137 28.34 137 27.68 137 27 C128.98340366 25.87486367 121.07861415 25.90420616 113 26 C113 25.34 113 24.68 113 24 C100.79 23.34 88.58 22.68 76 22 C76 21.67 76 21.34 76 21 C44.60533672 20.16676831 13.39115318 19.61579998 -18 21 Z " fill="#000000" transform="translate(246,0)"/>
<path d="M0 0 C2.5625 2.375 2.5625 2.375 4 5 C4.99 6.485 4.99 6.485 6 8 C6.14221065 10.60245498 6.18802932 13.09117684 6.125 15.6875 C6.11597656 16.38939453 6.10695313 17.09128906 6.09765625 17.81445312 C6.07413704 19.54311525 6.03826713 21.27160145 6 23 C5.34 23 4.68 23 4 23 C4.00523682 23.67764404 4.01047363 24.35528809 4.01586914 25.0534668 C4.1159033 40.07252002 3.89134785 55.00625584 3 70 C2.34 70 1.68 70 1 70 C1 70.66 1 71.32 1 72 C1.66 72 2.32 72 3 72 C3 74.97 3 77.94 3 81 C2.34 81 1.68 81 1 81 C1.00523682 81.95213379 1.01047363 82.90426758 1.01586914 83.88525391 C1.13744064 108.27560792 0.77560629 132.6220343 0 157 C-0.66 157 -1.32 157 -2 157 C-1.98839844 158.1859375 -1.97679687 159.371875 -1.96484375 160.59375 C-1.89497099 171.11287596 -2.18975593 181.51023298 -3 192 C-3.66 192 -4.32 192 -5 192 C-4.98839844 192.7528125 -4.97679687 193.505625 -4.96484375 194.28125 C-4.88881764 203.23060948 -5.35877971 212.08016778 -6 221 C-6.66 221 -7.32 221 -8 221 C-8 224.3 -8 227.6 -8 231 C-8.66 231 -9.32 231 -10 231 C-9.98839844 231.81339844 -9.97679687 232.62679687 -9.96484375 233.46484375 C-9.88962685 243.01739002 -10.35408949 252.47281995 -11 262 C-11.66 262 -12.32 262 -13 262 C-12.979375 263.27875 -12.95875 264.5575 -12.9375 265.875 C-12.92941245 270.96207017 -13.40979211 275.9516147 -14 281 C-14.66 281 -15.32 281 -16 281 C-15.98839844 281.70125 -15.97679687 282.4025 -15.96484375 283.125 C-15.91028816 288.86113102 -16.14381623 294.32778253 -17 300 C-17.66 300 -18.32 300 -19 300 C-19.33 305.94 -19.66 311.88 -20 318 C-20.66 318 -21.32 318 -22 318 C-21.98839844 318.60585938 -21.97679687 319.21171875 -21.96484375 319.8359375 C-21.89890039 325.95924948 -22.27568567 331.92093331 -23 338 C-23.66 338 -24.32 338 -25 338 C-24.98839844 338.79921875 -24.97679687 339.5984375 -24.96484375 340.421875 C-24.90251557 348.00810539 -25.23845803 355.45257512 -26 363 C-26.66 363 -27.32 363 -28 363 C-28.495 370.92 -28.495 370.92 -29 379 C-29.66 379 -30.32 379 -31 379 C-31.33 385.93 -31.66 392.86 -32 400 C-32.66 400 -33.32 400 -34 400 C-33.97679687 400.56847656 -33.95359375 401.13695312 -33.9296875 401.72265625 C-33.91164063 402.49480469 -33.89359375 403.26695312 -33.875 404.0625 C-33.85179687 404.81660156 -33.82859375 405.57070313 -33.8046875 406.34765625 C-34 409 -34 409 -34.9375 411.96875 C-36.66307063 417.62240531 -36.73472682 423.57380545 -37.125 429.4375 C-37.25455078 431.25024414 -37.25455078 431.25024414 -37.38671875 433.09960938 C-37.59776679 436.06600678 -37.80198957 439.0327086 -38 442 C-38.66 442 -39.32 442 -40 442 C-39.98839844 443.15757812 -39.97679687 444.31515625 -39.96484375 445.5078125 C-39.95545923 447.04687338 -39.94635974 448.58593601 -39.9375 450.125 C-39.92912109 450.88554688 -39.92074219 451.64609375 -39.91210938 452.4296875 C-39.89353491 456.7389644 -40.13882735 460.75516474 -41 465 C-41.66 465 -42.32 465 -43 465 C-42.98839844 465.73863281 -42.97679687 466.47726562 -42.96484375 467.23828125 C-42.90270423 474.22453848 -43.23455014 481.0562763 -44 488 C-44.66 488 -45.32 488 -46 488 C-46 490.97 -46 493.94 -46 497 C-46.66 497 -47.32 497 -48 497 C-48.33 499.97 -48.66 502.94 -49 506 C-49.66 506 -50.32 506 -51 506 C-51.33 506.99 -51.66 507.98 -52 509 C-52.66 509 -53.32 509 -54 509 C-54.495 511.475 -54.495 511.475 -55 514 C-56.65 514.33 -58.3 514.66 -60 515 C-60.33 515.99 -60.66 516.98 -61 518 C-61.66 518 -62.32 518 -63 518 C-63 518.66 -63 519.32 -63 520 C-63.99 520.33 -64.98 520.66 -66 521 C-66.33 521.66 -66.66 522.32 -67 523 C-69.5625 523.625 -69.5625 523.625 -72 524 C-72.33 524.99 -72.66 525.98 -73 527 C-73.99 527 -74.98 527 -76 527 C-76 527.66 -76 528.32 -76 529 C-76.66 529 -77.32 529 -78 529 C-78 529.66 -78 530.32 -78 531 C-78.99 531.33 -79.98 531.66 -81 532 C-81.33 532.66 -81.66 533.32 -82 534 C-82.61875 534.144375 -83.2375 534.28875 -83.875 534.4375 C-86.09696386 534.83518238 -86.09696386 534.83518238 -87.5625 536.5625 C-88.2740625 537.2740625 -88.2740625 537.2740625 -89 538 C-89.99 538 -90.98 538 -92 538 C-92.33 538.99 -92.66 539.98 -93 541 C-93.99 541 -94.98 541 -96 541 C-96 541.66 -96 542.32 -96 543 C-97.65 543.33 -99.3 543.66 -101 544 C-101 544.66 -101 545.32 -101 546 C-102.98 546.33 -104.96 546.66 -107 547 C-107 547.66 -107 548.32 -107 549 C-110.55913229 550.18637743 -113.798145 550.14615346 -117.5 550.125 C-118.17675781 550.12886719 -118.85351562 550.13273438 -119.55078125 550.13671875 C-122.64073767 550.13062416 -125.04679311 549.9844023 -128 549 C-128 548.34 -128 547.68 -128 547 C-128.99 546.67 -129.98 546.34 -131 546 C-131 545.34 -131 544.68 -131 544 C-131.99 543.67 -132.98 543.34 -134 543 C-134 542.01 -134 541.02 -134 540 C-134.66 540 -135.32 540 -136 540 C-136.90081452 536.14984539 -137.12878399 532.57524169 -137.1328125 528.625 C-137.13410156 527.39136719 -137.13539063 526.15773438 -137.13671875 524.88671875 C-137.13285156 523.60410156 -137.12898438 522.32148437 -137.125 521 C-137.12886719 519.74832031 -137.13273437 518.49664063 -137.13671875 517.20703125 C-137.12831041 509.0929849 -136.74764229 501.07930533 -136 493 C-135.34 493 -134.68 493 -134 493 C-134.01160156 492.23558594 -134.02320313 491.47117187 -134.03515625 490.68359375 C-134.10772735 482.06836707 -133.66488364 473.58412275 -133 465 C-132.34 465 -131.68 465 -131 465 C-131.01160156 464.12859375 -131.02320313 463.2571875 -131.03515625 462.359375 C-131.0946139 454.51096562 -130.80077708 446.8075765 -130 439 C-129.34 439 -128.68 439 -128 439 C-128.01160156 438.21238281 -128.02320313 437.42476562 -128.03515625 436.61328125 C-128.1008018 428.68892613 -127.72317286 420.89033243 -127 413 C-126.34 413 -125.68 413 -125 413 C-125.01160156 412.20078125 -125.02320313 411.4015625 -125.03515625 410.578125 C-125.09748443 402.99189461 -124.76154197 395.54742488 -124 388 C-123.34 388 -122.68 388 -122 388 C-122 383.38 -122 378.76 -122 374 C-121.34 374 -120.68 374 -120 374 C-120.01160156 373.175 -120.02320313 372.35 -120.03515625 371.5 C-120.10713363 362.28689565 -119.66799808 353.18497363 -119 344 C-118.34 344 -117.68 344 -117 344 C-116.67 332.78 -116.34 321.56 -116 310 C-115.34 310 -114.68 310 -114 310 C-114.01160156 309.42894531 -114.02320313 308.85789062 -114.03515625 308.26953125 C-114.11452828 301.13738751 -113.62339993 294.1023064 -113 287 C-112.34 287 -111.68 287 -111 287 C-111.00785522 286.13217896 -111.00785522 286.13217896 -111.01586914 285.24682617 C-111.18272378 264.01826886 -111.18272378 264.01826886 -110 255 C-109.34 255 -108.68 255 -108 255 C-108.01160156 254.06800781 -108.02320313 253.13601563 -108.03515625 252.17578125 C-108.09495359 243.727271 -107.79517962 235.42038418 -107 227 C-106.34 227 -105.68 227 -105 227 C-105.01160156 225.93523437 -105.02320313 224.87046875 -105.03515625 223.7734375 C-105.10416386 214.45633255 -104.8242499 205.28753014 -104 196 C-103.34 196 -102.68 196 -102 196 C-102.01160156 195.34257812 -102.02320313 194.68515625 -102.03515625 194.0078125 C-102.12398312 184.64292214 -101.58127521 175.34192305 -101 166 C-100.34 166 -99.68 166 -99 166 C-98.96241577 165.05362671 -98.96241577 165.05362671 -98.92407227 164.08813477 C-98.80845863 161.24603175 -98.68557684 158.40428917 -98.5625 155.5625 C-98.52318359 154.56927734 -98.48386719 153.57605469 -98.44335938 152.55273438 C-98.38051758 151.13637695 -98.38051758 151.13637695 -98.31640625 149.69140625 C-98.27974854 148.81685791 -98.24309082 147.94230957 -98.20532227 147.04125977 C-98 145 -98 145 -97 144 C-96.76858138 141.33764002 -96.59643291 138.69517092 -96.46484375 136.02734375 C-96.42186661 135.22970108 -96.37888947 134.43205841 -96.33460999 133.61024475 C-96.19783674 131.05287441 -96.06760217 128.49521758 -95.9375 125.9375 C-95.84613234 124.20765957 -95.75434106 122.47784145 -95.66210938 120.74804688 C-95.43648282 116.49894169 -95.21672136 112.24956832 -95 108 C-94.34 108 -93.68 108 -93 108 C-93 93.48 -93 78.96 -93 64 C-93.66 64 -94.32 64 -95 64 C-94.505 62.515 -94.505 62.515 -94 61 C-93.79578162 58.16363361 -93.62800053 55.3397154 -93.5 52.5 C-93.02415548 41.9433011 -93.02415548 41.9433011 -89.625 38.8125 C-87 37 -87 37 -84 37 C-84 36.34 -84 35.68 -84 35 C-81.525 34.505 -81.525 34.505 -79 34 C-79 33.34 -79 32.68 -79 32 C-76.03 31.505 -76.03 31.505 -73 31 C-73 30.34 -73 29.68 -73 29 C-71.02 28.67 -69.04 28.34 -67 28 C-67 27.34 -67 26.68 -67 26 C-66.01 26 -65.02 26 -64 26 C-64 25.34 -64 24.68 -64 24 C-61.69 23.67 -59.38 23.34 -57 23 C-57 22.34 -57 21.68 -57 21 C-55.02 20.67 -53.04 20.34 -51 20 C-51 19.34 -51 18.68 -51 18 C-47.04 17.505 -47.04 17.505 -43 17 C-43 16.34 -43 15.68 -43 15 C-40.03 14.505 -40.03 14.505 -37 14 C-37 13.34 -37 12.68 -37 12 C-34.525 11.505 -34.525 11.505 -32 11 C-32 10.34 -32 9.68 -32 9 C-31.071875 8.71125 -30.14375 8.4225 -29.1875 8.125 C-25.90208333 7.1125 -25.90208333 7.1125 -23 5 C-22.01 5 -21.02 5 -20 5 C-19.67 4.01 -19.34 3.02 -19 2 C-18.01 2 -17.02 2 -16 2 C-16 1.34 -16 0.68 -16 0 C-10.55836905 -1.28386937 -5.45794821 -1.24656842 0 0 Z M-26 29 C-26 29.66 -26 30.32 -26 31 C-27.98 31.33 -29.96 31.66 -32 32 C-32 32.66 -32 33.32 -32 34 C-33.98 34.33 -35.96 34.66 -38 35 C-38 35.66 -38 36.32 -38 37 C-40.64 37.33 -43.28 37.66 -46 38 C-46 38.66 -46 39.32 -46 40 C-47.98 40.33 -49.96 40.66 -52 41 C-52 41.66 -52 42.32 -52 43 C-56.455 43.495 -56.455 43.495 -61 44 C-61 44.66 -61 45.32 -61 46 C-63.97 46.33 -66.94 46.66 -70 47 C-70 47.66 -70 48.32 -70 49 C-70.66 49 -71.32 49 -72 49 C-72.62329408 68.33703577 -73.17898211 87.65004553 -73 107 C-73.66 107 -74.32 107 -75 107 C-75.70199948 119.67893206 -76.14978835 132.30127632 -76 145 C-76.66 145 -77.32 145 -78 145 C-78.60565429 155.33938394 -79.18615302 165.6374817 -79 176 C-79.66 176 -80.32 176 -81 176 C-82.02472362 186.35702803 -82.1050173 196.60328698 -82 207 C-82.66 207 -83.32 207 -84 207 C-84 210.3 -84 213.6 -84 217 C-84.66 217 -85.32 217 -86 217 C-86.69613269 226.68370295 -87.14973506 236.28385823 -87 246 C-87.66 246 -88.32 246 -89 246 C-89.33 255.57 -89.66 265.14 -90 275 C-90.66 275 -91.32 275 -92 275 C-93.35500992 288.30813314 -93.09794264 301.64062374 -93 315 C-93.66 315 -94.32 315 -95 315 C-96.2138361 325.66441713 -96.09531193 336.28270321 -96 347 C-96.66 347 -97.32 347 -98 347 C-99.04518445 356.68662016 -99.10371911 366.27345227 -99 376 C-99.66 376 -100.32 376 -101 376 C-101.83058514 387.02008501 -102.12308347 397.94983981 -102 409 C-102.66 409 -103.32 409 -104 409 C-104.94242818 418.03721311 -105.11157151 426.92551747 -105 436 C-105.66 436 -106.32 436 -107 436 C-107.66 447.22 -108.32 458.44 -109 470 C-109.33 470 -109.66 470 -110 470 C-110.63149942 480.67910627 -111.17291697 491.2983611 -111 502 C-111.66 502 -112.32 502 -113 502 C-114.76504691 515.62909009 -114.76504691 515.62909009 -113 529 C-112.34 529 -111.68 529 -111 529 C-111 528.34 -111 527.68 -111 527 C-109.68 526.67 -108.36 526.34 -107 526 C-107 525.34 -107 524.68 -107 524 C-106.195625 523.87625 -105.39125 523.7525 -104.5625 523.625 C-103.716875 523.41875 -102.87125 523.2125 -102 523 C-101.67 522.34 -101.34 521.68 -101 521 C-100.01 520.67 -99.02 520.34 -98 520 C-98 519.34 -98 518.68 -98 518 C-97.01 517.67 -96.02 517.34 -95 517 C-95 516.34 -95 515.68 -95 515 C-94.195625 514.87625 -93.39125 514.7525 -92.5625 514.625 C-91.716875 514.41875 -90.87125 514.2125 -90 514 C-89.67 513.34 -89.34 512.68 -89 512 C-88.01 511.67 -87.02 511.34 -86 511 C-86 510.34 -86 509.68 -86 509 C-84.35 508.67 -82.7 508.34 -81 508 C-81 507.34 -81 506.68 -81 506 C-80.236875 505.71125 -79.47375 505.4225 -78.6875 505.125 C-75.84970692 504.03730987 -75.84970692 504.03730987 -73 502 C-72.27034634 499.43717258 -72.27034634 499.43717258 -72 497 C-71.34 497 -70.68 497 -70 497 C-69.67 494.03 -69.34 491.06 -69 488 C-68.34 488 -67.68 488 -67 488 C-66.22959149 481.93303301 -65.90293888 476.11485027 -66 470 C-65.34 470 -64.68 470 -64 470 C-63.67 463.4 -63.34 456.8 -63 450 C-62.34 450 -61.68 450 -61 450 C-60.06145994 442.96094956 -59.89191968 436.09727428 -60 429 C-59.34 429 -58.68 429 -58 429 C-57.505 421.08 -57.505 421.08 -57 413 C-56.34 413 -55.68 413 -55 413 C-54.67 405.08 -54.34 397.16 -54 389 C-53.34 389 -52.68 389 -52 389 C-50.96409801 383.94997778 -50.89748328 379.12583611 -51 374 C-50.34 374 -49.68 374 -49 374 C-48.67 366.41 -48.34 358.82 -48 351 C-47.34 351 -46.68 351 -46 351 C-46 348.03 -46 345.06 -46 342 C-45.34 342 -44.68 342 -44 342 C-43.10395632 335.95170514 -42.88730557 330.1105424 -43 324 C-42.34 324 -41.68 324 -41 324 C-40.67 318.06 -40.34 312.12 -40 306 C-39.34 306 -38.68 306 -38 306 C-37.94465088 305.3387915 -37.88930176 304.67758301 -37.83227539 303.99633789 C-37.58034285 301.0179762 -37.32151498 298.04025375 -37.0625 295.0625 C-36.97548828 294.02158203 -36.88847656 292.98066406 -36.79882812 291.90820312 C-36.71181641 290.91884766 -36.62480469 289.92949219 -36.53515625 288.91015625 C-36.456604 287.99371338 -36.37805176 287.07727051 -36.29711914 286.13305664 C-36 284 -36 284 -35 283 C-34.02803222 276.30422194 -33.88631597 269.75788425 -34 263 C-33.34 263 -32.68 263 -32 263 C-31.25194283 255.97360585 -30.86205046 249.06608191 -31 242 C-30.34 242 -29.68 242 -29 242 C-28.1716494 230.31433979 -27.87669585 218.71389465 -28 207 C-27.34 207 -26.68 207 -26 207 C-25.10412395 194.6497088 -24.88477044 182.38077633 -25 170 C-24.34 170 -23.68 170 -23 170 C-22.07365071 153.53040775 -21.87650028 137.1179442 -21.9375 120.625 C-21.94253263 118.22005303 -21.94709237 115.81510502 -21.95117188 113.41015625 C-21.96202037 107.6067476 -21.97861449 101.80337892 -22 96 C-21.34 96 -20.68 96 -20 96 C-19.67 73.56 -19.34 51.12 -19 28 C-22.89459074 27.78918149 -22.89459074 27.78918149 -26 29 Z M1 78 C2 80 2 80 2 80 Z " fill="#000000" transform="translate(558,240)"/>
<path d="M0 0 C13.2 0 26.4 0 40 0 C40 0.66 40 1.32 40 2 C42.31 2.33 44.62 2.66 47 3 C47 3.66 47 4.32 47 5 C47.99 5.33 48.98 5.66 50 6 C50 6.66 50 7.32 50 8 C50.99 8.33 51.98 8.66 53 9 C53 9.99 53 10.98 53 12 C53.66 12 54.32 12 55 12 C55 16.62 55 21.24 55 26 C54.34 26 53.68 26 53 26 C53.01160156 26.85980469 53.02320313 27.71960938 53.03515625 28.60546875 C53.09765271 36.7925052 52.75826597 44.84864083 52 53 C51.34 53 50.68 53 50 53 C50.01160156 54.1859375 50.02320313 55.371875 50.03515625 56.59375 C50.10502901 67.11287596 49.81024407 77.51023298 49 88 C48.34 88 47.68 88 47 88 C47.01160156 89.14210938 47.02320313 90.28421875 47.03515625 91.4609375 C47.13025884 105.66094358 46.62923898 119.81534693 46 134 C45.34 134 44.68 134 44 134 C44.00523682 134.68698975 44.01047363 135.37397949 44.01586914 136.08178711 C44.12501467 152.75065816 43.8188505 169.3507657 43 186 C42.34 186 41.68 186 41 186 C41.01160156 186.88558594 41.02320313 187.77117187 41.03515625 188.68359375 C41.10662165 198.49477202 40.67082786 208.21310069 40 218 C39.34 218 38.68 218 38 218 C38.01160156 218.69222656 38.02320313 219.38445312 38.03515625 220.09765625 C38.11216762 228.44788961 37.63658548 236.67891834 37 245 C36.34 245 35.68 245 35 245 C35.01160156 245.65742187 35.02320313 246.31484375 35.03515625 246.9921875 C35.12398312 256.35707786 34.58127521 265.65807695 34 275 C33.34 275 32.68 275 32 275 C32.01160156 276.02996094 32.02320313 277.05992187 32.03515625 278.12109375 C32.11343317 288.45486972 31.72243187 298.6924453 31 309 C30.34 309 29.68 309 29 309 C29.01160156 310.258125 29.02320313 311.51625 29.03515625 312.8125 C29.10282139 323.59240198 28.84072317 334.25075374 28 345 C27.67 345 27.34 345 27 345 C26.34 361.5 25.68 378 25 395 C24.34 395 23.68 395 23 395 C23.01160156 396.07636719 23.02320313 397.15273438 23.03515625 398.26171875 C23.17010614 416.33254711 23.17010614 416.33254711 22 425 C21.67 425.33 21.34 425.66 21 426 C20.76298761 428.85877909 20.57780818 431.69883297 20.4375 434.5625 C20.39431641 435.36880859 20.35113281 436.17511719 20.30664062 437.00585938 C20.20024738 439.00368805 20.09959112 441.0018207 20 443 C19.34 443 18.68 443 18 443 C18.01160156 443.93199219 18.02320313 444.86398437 18.03515625 445.82421875 C18.09495359 454.272729 17.79517962 462.57961582 17 471 C16.34 471 15.68 471 15 471 C15.01160156 471.83402344 15.02320313 472.66804688 15.03515625 473.52734375 C15.08799793 480.11745662 14.88555068 486.46906374 14 493 C13.34 493 12.68 493 12 493 C11.67 496.3 11.34 499.6 11 503 C10.34 503 9.68 503 9 503 C8.896875 503.928125 8.79375 504.85625 8.6875 505.8125 C7.9937139 509.02914465 7.65754784 510.16015919 5 512 C4.01 512 3.02 512 2 512 C2 512.66 2 513.32 2 514 C0.35 514.33 -1.3 514.66 -3 515 C-3 515.66 -3 516.32 -3 517 C-5.97 517.33 -8.94 517.66 -12 518 C-12 518.66 -12 519.32 -12 520 C-13.98 520 -15.96 520 -18 520 C-18 520.66 -18 521.32 -18 522 C-21.96 522.33 -25.92 522.66 -30 523 C-30 523.66 -30 524.32 -30 525 C-34.95 525.33 -39.9 525.66 -45 526 C-45 526.66 -45 527.32 -45 528 C-49.72996794 528.9341316 -54.3198664 529.15174471 -59.125 529.125 C-59.82753906 529.12886719 -60.53007812 529.13273438 -61.25390625 529.13671875 C-64.64247637 529.13031314 -67.76159329 529.05709649 -71 528 C-71 527.34 -71 526.68 -71 526 C-71.99 525.67 -72.98 525.34 -74 525 C-74 524.34 -74 523.68 -74 523 C-74.99 522.67 -75.98 522.34 -77 522 C-77 520.35 -77 518.7 -77 517 C-77.66 517 -78.32 517 -79 517 C-79 497.53 -79 478.06 -79 458 C-78.34 458 -77.68 458 -77 458 C-77.00222061 457.30827194 -77.00444122 456.61654388 -77.00672913 455.90385437 C-77.02712809 449.24585571 -77.04216941 442.5878663 -77.05181217 435.92984295 C-77.05693684 432.5104249 -77.06383337 429.09103354 -77.07543945 425.67163086 C-77.13268006 407.41861037 -76.8380855 389.23438011 -76 371 C-75.34 371 -74.68 371 -74 371 C-74.01160156 370.01128906 -74.02320313 369.02257812 -74.03515625 368.00390625 C-74.15754692 351.65901472 -73.54965091 335.3331106 -73 319 C-72.34 319 -71.68 319 -71 319 C-71 317.68 -71 316.36 -71 315 C-71.66 315 -72.32 315 -73 315 C-73 312.36 -73 309.72 -73 307 C-72.34 307 -71.68 307 -71 307 C-71.00580078 305.80858398 -71.01160156 304.61716797 -71.01757812 303.38964844 C-71.05972836 290.6683839 -70.83961573 277.96621586 -70.5 265.25 C-70.45158955 263.3658914 -70.40341158 261.48177681 -70.35546875 259.59765625 C-70.23964167 255.0650311 -70.12072959 250.53249711 -70 246 C-69.34 246 -68.68 246 -68 246 C-68 193.86 -68 141.72 -68 88 C-68.66 87.67 -69.32 87.34 -70 87 C-69.34 87 -68.68 87 -68 87 C-68 83.04 -68 79.08 -68 75 C-68.66 75 -69.32 75 -70 75 C-70.76759898 63.83054221 -71.21236504 52.69797122 -71.24023438 41.50146484 C-71.25019527 39.07748151 -71.28149403 36.65426384 -71.3125 34.23046875 C-71.31901028 32.67708824 -71.32426843 31.12370186 -71.328125 29.5703125 C-71.3466452 28.49234909 -71.3466452 28.49234909 -71.36553955 27.39260864 C-71.35240976 24.48039473 -71.32373566 22.47919993 -69.66699219 20.02685547 C-68 19 -68 19 -65 19 C-64.67 18.01 -64.34 17.02 -64 16 C-63.34 16 -62.68 16 -62 16 C-61.67 14.68 -61.34 13.36 -61 12 C-59.35 11.67 -57.7 11.34 -56 11 C-56 10.34 -56 9.68 -56 9 C-51.9472484 8.01751476 -48.16138263 7.91840426 -44 8 C-44 7.34 -44 6.68 -44 6 C-37.93303301 5.22959149 -32.11485027 4.90293888 -26 5 C-26 4.34 -26 3.68 -26 3 C-17.31008699 2.20354316 -8.72542301 1.87147495 0 2 C0 1.34 0 0.68 0 0 Z M-9 20 C-9 20.66 -9 21.32 -9 22 C-16.59 22.33 -24.18 22.66 -32 23 C-32 23.66 -32 24.32 -32 25 C-33.13179688 24.98839844 -34.26359375 24.97679687 -35.4296875 24.96484375 C-36.91145669 24.95546546 -38.39322765 24.9463653 -39.875 24.9375 C-40.62136719 24.92912109 -41.36773437 24.92074219 -42.13671875 24.91210938 C-46.19845578 24.79311916 -46.19845578 24.79311916 -50 26 C-51.55209593 33.76325457 -51.15686212 42.05560774 -51.125 49.9375 C-51.12306641 51.10450439 -51.12113281 52.27150879 -51.11914062 53.47387695 C-51.06897698 63.67033359 -50.64967064 73.82569369 -50 84 C-49.34 84 -48.68 84 -48 84 C-48.00523682 84.95624268 -48.01047363 85.91248535 -48.01586914 86.89770508 C-48.14653978 113.28078757 -47.72736322 139.62727976 -47 166 C-46.34 166 -45.68 166 -45 166 C-45 172.6 -45 179.2 -45 186 C-45.66 186 -46.32 186 -47 186 C-47.66354613 218.33640591 -48.1785276 250.65629175 -48 283 C-48.66 283 -49.32 283 -50 283 C-50.74071968 304.34297075 -51.15305155 325.64342189 -51 347 C-51.66 347 -52.32 347 -53 347 C-53.9798246 373.67155538 -54.11844957 400.31240182 -54 427 C-54.66 427 -55.32 427 -56 427 C-56 454.06 -56 481.12 -56 509 C-49.88373309 509.09171703 -49.88373309 509.09171703 -44 508.5 C-43.01 508.335 -42.02 508.17 -41 508 C-41 507.34 -41 506.68 -41 506 C-39.80375 506.020625 -38.6075 506.04125 -37.375 506.0625 C-33.81995131 506.06882571 -30.49444376 505.69888875 -27 505 C-27 504.34 -27 503.68 -27 503 C-23.37 502.67 -19.74 502.34 -16 502 C-16 501.34 -16 500.68 -16 500 C-14.68 499.67 -13.36 499.34 -12 499 C-12 498.01 -12 497.02 -12 496 C-11.34 496 -10.68 496 -10 496 C-9.505 490.06 -9.505 490.06 -9 484 C-8.34 484 -7.68 484 -7 484 C-6.1679418 478.27959989 -5.87963336 472.77759884 -6 467 C-5.34 467 -4.68 467 -4 467 C-3.20177652 457.62087413 -2.87126263 448.41213252 -3 439 C-2.34 439 -1.68 439 -1 439 C-0.15672251 430.64251778 0.12190678 422.39802254 0 414 C0.66 414 1.32 414 2 414 C2.79585256 403.312837 3.12825004 392.71600323 3 382 C3.66 382 4.32 382 5 382 C6.15202666 365.66590773 6.10589013 349.36409773 6 333 C6.66 333 7.32 333 8 333 C8.74136918 320.31729149 9.13809004 307.70428397 9 295 C9.66 295 10.32 295 11 295 C11.91050683 283.97636372 12.1139891 273.05694276 12 262 C12.66 262 13.32 262 14 262 C14.05534912 260.95021973 14.11069824 259.90043945 14.16772461 258.81884766 C14.37387472 254.9310669 14.58583108 251.04362085 14.79956055 247.15625 C14.89132037 245.47241665 14.98149666 243.78849624 15.07006836 242.10449219 C15.19751303 239.68660338 15.33061395 237.26908292 15.46484375 234.8515625 C15.50343002 234.0963028 15.5420163 233.34104309 15.58177185 232.56289673 C15.88612829 227.22774341 15.88612829 227.22774341 17 225 C17.93003841 216.02111065 18.15119443 207.02126795 18 198 C18.66 198 19.32 198 20 198 C20 192.06 20 186.12 20 180 C20.66 180 21.32 180 22 180 C22.66 164.82 23.32 149.64 24 134 C24.33 134 24.66 134 25 134 C25.66 116.84 26.32 99.68 27 82 C27.33 82 27.66 82 28 82 C28.80667342 67.32111832 29.13965571 52.70037524 29 38 C29.66 38 30.32 38 31 38 C31.1938211 35.02111874 31.38035102 32.04209754 31.5625 29.0625 C31.61857422 28.21236328 31.67464844 27.36222656 31.73242188 26.48632812 C31.78076172 25.67744141 31.82910156 24.86855469 31.87890625 24.03515625 C31.9260376 23.2862915 31.97316895 22.53742676 32.02172852 21.76586914 C32.2052254 19.97244101 32.2052254 19.97244101 31 19 C29.57701772 18.90033294 28.14912323 18.86919398 26.72265625 18.8671875 C25.82434082 18.86525391 24.92602539 18.86332031 24.00048828 18.86132812 C23.03095215 18.86583984 22.06141602 18.87035156 21.0625 18.875 C20.08007324 18.87693359 19.09764648 18.87886719 18.08544922 18.88085938 C9.03443913 18.93342211 0.02762736 19.37586774 -9 20 Z " fill="#000000" transform="translate(375,290)"/>
<path d="M0 0 C1.32 0 2.64 0 4 0 C4 0.66 4 1.32 4 2 C5.299375 2.12375 6.59875 2.2475 7.9375 2.375 C10.15234375 2.5859375 10.15234375 2.5859375 12 3 C12.33 3.66 12.66 4.32 13 5 C13.99 5.33 14.98 5.66 16 6 C16 6.66 16 7.32 16 8 C18.475 8.495 18.475 8.495 21 9 C21 9.66 21 10.32 21 11 C23.475 11.495 23.475 11.495 26 12 C26 12.66 26 13.32 26 14 C26.969375 14.12375 27.93875 14.2475 28.9375 14.375 C29.948125 14.58125 30.95875 14.7875 32 15 C32.495 15.99 32.495 15.99 33 17 C33.99 17.33 34.98 17.66 36 18 C36 18.66 36 19.32 36 20 C37.98 20.33 39.96 20.66 42 21 C42 21.66 42 22.32 42 23 C43.98 23.33 45.96 23.66 48 24 C48 24.66 48 25.32 48 26 C49.98 26.33 51.96 26.66 54 27 C54 27.66 54 28.32 54 29 C55.32 29 56.64 29 58 29 C58 29.66 58 30.32 58 31 C59.98 31.495 59.98 31.495 62 32 C62 32.66 62 33.32 62 34 C63.485 34.495 63.485 34.495 65 35 C65 35.99 65 36.98 65 38 C65.66 38 66.32 38 67 38 C67.95619733 41.99795892 68.1039592 45.70803922 68.0625 49.8125 C68.05347656 50.97394531 68.04445313 52.13539063 68.03515625 53.33203125 C68.02355469 54.21246094 68.01195313 55.09289062 68 56 C68.66 56 69.32 56 70 56 C70.33 63.26 70.66 70.52 71 78 C71.66 78 72.32 78 73 78 C73.82351864 84.38226945 74.12086218 90.56744599 74 97 C74.66 97 75.32 97 76 97 C76.33 104.26 76.66 111.52 77 119 C77.66 119 78.32 119 79 119 C80.19148936 139.53191489 80.19148936 139.53191489 80 149 C80.66 149 81.32 149 82 149 C82.33 157.91 82.66 166.82 83 176 C83.66 176 84.32 176 85 176 C85.06058594 177.28132812 85.12117188 178.56265625 85.18359375 179.8828125 C85.66742576 189.9332787 86.21932708 199.96752244 87 210 C87.33 210 87.66 210 88 210 C88.96953382 217.72785134 89.12131488 225.34333901 89.0625 233.125 C89.05798828 234.27226562 89.05347656 235.41953125 89.04882812 236.6015625 C89.03716339 239.40109813 89.02079614 242.20051986 89 245 C89.66 245 90.32 245 91 245 C91.75741925 254.02140429 92.13534286 262.94706663 92 272 C92.66 272 93.32 272 94 272 C94.85785424 284.68398772 95.11941996 297.28840915 95 310 C95.66 310 96.32 310 97 310 C97 315.61 97 321.22 97 327 C97.66 327 98.32 327 99 327 C99.64217298 336.67846426 100.16831537 346.29381339 100 356 C100.66 356 101.32 356 102 356 C103.07419152 366.68436922 103.10194194 377.27344291 103 388 C103.66 388 104.32 388 105 388 C105.94242818 397.03721311 106.11157151 405.92551747 106 415 C106.66 415 107.32 415 108 415 C108.495 423.415 108.495 423.415 109 432 C109.66 432 110.32 432 111 432 C111.91160286 439.35793733 112.11459026 446.58982977 112 454 C112.66 454 113.32 454 114 454 C114.33 460.27 114.66 466.54 115 473 C115.66 473 116.32 473 117 473 C117.77040851 479.06696699 118.09706112 484.88514973 118 491 C118.66 491 119.32 491 120 491 C121.22517308 496.66642551 121.09228867 502.23708518 121 508 C121.66 508 122.32 508 123 508 C123.33 513.28 123.66 518.56 124 524 C124.66 524 125.32 524 126 524 C126 531.59 126 539.18 126 547 C125.34 547 124.68 547 124 547 C123.67 549.64 123.34 552.28 123 555 C121.35 555.33 119.7 555.66 118 556 C118 556.66 118 557.32 118 558 C114.40858866 559.19713711 111.47319892 559.13248902 107.6875 559.125 C106.39199219 559.12757813 105.09648437 559.13015625 103.76171875 559.1328125 C100.40437077 559.01427685 97.2916873 558.64302729 94 558 C94 557.34 94 556.68 94 556 C92.02 555.67 90.04 555.34 88 555 C88 554.34 88 553.68 88 553 C86.02 552.67 84.04 552.34 82 552 C82 551.34 82 550.68 82 550 C80.35 549.67 78.7 549.34 77 549 C77 548.34 77 547.68 77 547 C75.68 546.67 74.36 546.34 73 546 C73 545.34 73 544.68 73 544 C71.02 543.67 69.04 543.34 67 543 C67 542.34 67 541.68 67 541 C66.236875 540.896875 65.47375 540.79375 64.6875 540.6875 C61.81583516 539.95288806 60.76957906 539.3283935 59 537 C59 536.34 59 535.68 59 535 C57.35 534.67 55.7 534.34 54 534 C53.67 532.35 53.34 530.7 53 529 C52.34 529 51.68 529 51 529 C50.67 527.35 50.34 525.7 50 524 C49.34 524 48.68 524 48 524 C46.87137825 518.63904667 46.90311779 513.44693314 47 508 C46.34 508 45.68 508 45 508 C43.77482692 502.33357449 43.90771133 496.76291482 44 491 C43.34 491 42.68 491 42 491 C41.22959149 484.93303301 40.90293888 479.11485027 41 473 C40.34 473 39.68 473 39 473 C37.82597807 465.66236293 37.90622877 458.41834582 38 451 C37.34 451 36.68 451 36 451 C35.94465088 450.34402832 35.88930176 449.68805664 35.83227539 449.01220703 C35.57990601 446.04942727 35.32128185 443.08722626 35.0625 440.125 C34.93198242 438.57619141 34.93198242 438.57619141 34.79882812 436.99609375 C34.71181641 436.00996094 34.62480469 435.02382813 34.53515625 434.0078125 C34.41732788 432.64100342 34.41732788 432.64100342 34.29711914 431.24658203 C34.12004581 428.968356 34.12004581 428.968356 33 427 C32.84733388 425.26131256 32.75067404 423.51752499 32.68359375 421.7734375 C32.64169922 420.7421875 32.59980469 419.7109375 32.55664062 418.6484375 C32.51732422 417.56820313 32.47800781 416.48796875 32.4375 415.375 C32.37272461 413.74304688 32.37272461 413.74304688 32.30664062 412.078125 C32.2003547 409.3855483 32.09831943 406.69287747 32 404 C31.34 404 30.68 404 30 404 C29.38678934 391.9934657 28.815307 380.02556648 29 368 C28.34 368 27.68 368 27 368 C26.34 359.42 25.68 350.84 25 342 C24.67 342 24.34 342 24 342 C23.67 329.46 23.34 316.92 23 304 C22.34 304 21.68 304 21 304 C19.80851064 282.46808511 19.80851064 282.46808511 20 272 C19.34 272 18.68 272 18 272 C18 268.37 18 264.74 18 261 C17.34 261 16.68 261 16 261 C15.27507668 251.64072209 14.85743333 242.39355936 15 233 C14.34 233 13.68 233 13 233 C11.93940512 225.31068715 11.90071918 217.75493514 12 210 C11.34 210 10.68 210 10 210 C9.67 202.74 9.34 195.48 9 188 C8.34 188 7.68 188 7 188 C6.505 175.625 6.505 175.625 6 163 C5.34 163 4.68 163 4 163 C3.505 155.575 3.505 155.575 3 148 C2.34 148 1.68 148 1 148 C0.20274098 140.63959083 -0.12886183 133.40239645 0 126 C-0.66 126 -1.32 126 -2 126 C-2.77040851 119.93303301 -3.09706112 114.11485027 -3 108 C-3.66 108 -4.32 108 -5 108 C-5.495 97.605 -5.495 97.605 -6 87 C-6.66 87 -7.32 87 -8 87 C-8.88021369 80.28837062 -9.11381955 73.76594019 -9 67 C-9.66 67 -10.32 67 -11 67 C-11.66 59.74 -12.32 52.48 -13 45 C-13.33 45 -13.66 45 -14 45 C-14.16771068 40.35544096 -14.32825993 35.71071045 -14.48217773 31.06567383 C-14.53554679 29.48552796 -14.59087216 27.90544689 -14.64819336 26.32543945 C-14.73024686 24.05434137 -14.80526189 21.78310314 -14.87890625 19.51171875 C-14.90594131 18.80536789 -14.93297638 18.09901703 -14.96083069 17.3712616 C-15.05545931 14.26132061 -14.99373539 11.98120616 -14 9 C-12.35 8.67 -10.7 8.34 -9 8 C-8.67 7.01 -8.34 6.02 -8 5 C-7.34 5 -6.68 5 -6 5 C-5.67 4.01 -5.34 3.02 -5 2 C-3.35 2 -1.7 2 0 2 C0 1.34 0 0.68 0 0 Z M4 23 C4 26.63 4 30.26 4 34 C4.66 34 5.32 34 6 34 C5.98839844 35.24394531 5.97679688 36.48789062 5.96484375 37.76953125 C5.90828901 46.56644429 5.89940035 55.25416349 7 64 C7.66 64 8.32 64 9 64 C8.98839844 64.73863281 8.97679687 65.47726562 8.96484375 66.23828125 C8.90270423 73.22453848 9.23455014 80.0562763 10 87 C10.66 87 11.32 87 12 87 C11.98839844 87.56847656 11.97679687 88.13695312 11.96484375 88.72265625 C11.90776806 93.60670484 12.18043228 98.18503965 13 103 C13.66 103 14.32 103 15 103 C14.98839844 103.65484375 14.97679687 104.3096875 14.96484375 104.984375 C14.89504853 112.0436634 15.31351231 118.97575988 16 126 C16.66 126 17.32 126 18 126 C17.95117188 129.07617188 17.95117188 129.07617188 17.90234375 132.15234375 C17.79438816 134.01732141 17.79438816 134.01732141 19 135 C19.22714004 136.63066766 19.39455086 138.26976003 19.53515625 139.91015625 C19.62216797 140.89951172 19.70917969 141.88886719 19.79882812 142.90820312 C19.88583984 143.94912109 19.97285156 144.99003906 20.0625 146.0625 C20.15337891 147.10728516 20.24425781 148.15207031 20.33789062 149.22851562 C20.56260908 151.8186915 20.7831231 154.40915767 21 157 C21.66 157 22.32 157 23 157 C22.979375 158.299375 22.95875 159.59875 22.9375 160.9375 C22.9375 165.65161104 23.15985446 170.35326912 24 175 C24.33 175.33 24.66 175.66 25 176 C25.22753357 177.7037908 25.39473238 179.41573499 25.53515625 181.12890625 C25.62216797 182.16337891 25.70917969 183.19785156 25.79882812 184.26367188 C25.88583984 185.35228516 25.97285156 186.44089844 26.0625 187.5625 C26.15337891 188.65498047 26.24425781 189.74746094 26.33789062 190.87304688 C26.56262811 193.58172492 26.78314089 196.29068166 27 199 C27.66 199 28.32 199 29 199 C28.979375 200.299375 28.95875 201.59875 28.9375 202.9375 C28.92995028 207.69382325 29.40112883 212.28388953 30 217 C30.66 217 31.32 217 32 217 C31.98839844 218.01578125 31.97679688 219.0315625 31.96484375 220.078125 C31.89961257 228.4440242 32.11640301 236.6689427 33 245 C33.66 245 34.32 245 35 245 C35.495 259.355 35.495 259.355 36 274 C36.66 274 37.32 274 38 274 C37.98839844 274.89460937 37.97679687 275.78921875 37.96484375 276.7109375 C37.91132989 283.88179515 38.08195017 290.88511384 39 298 C39.66 298 40.32 298 41 298 C40.99476318 298.57331055 40.98952637 299.14662109 40.98413086 299.73730469 C40.84685266 315.39565007 40.84685266 315.39565007 42 331 C42.66 331 43.32 331 44 331 C44.33 339.58 44.66 348.16 45 357 C45.66 357 46.32 357 47 357 C46.98839844 357.80179688 46.97679687 358.60359375 46.96484375 359.4296875 C46.88633029 369.32238314 47.37335876 379.13040041 48 389 C48.33 389 48.66 389 49 389 C49.05534912 389.71655762 49.11069824 390.43311523 49.16772461 391.17138672 C49.42001558 394.40627677 49.67867668 397.64062633 49.9375 400.875 C50.06801758 402.56689453 50.06801758 402.56689453 50.20117188 404.29296875 C50.33168945 405.90751953 50.33168945 405.90751953 50.46484375 407.5546875 C50.543396 408.54968262 50.62194824 409.54467773 50.70288086 410.56982422 C50.86274433 413.00495664 50.86274433 413.00495664 52 415 C52.22074841 416.73732806 52.39130638 418.48118407 52.53515625 420.2265625 C52.66567383 421.7734375 52.66567383 421.7734375 52.79882812 423.3515625 C52.88583984 424.43179687 52.97285156 425.51203125 53.0625 426.625 C53.15337891 427.71296875 53.24425781 428.8009375 53.33789062 429.921875 C53.56225951 432.61430157 53.78280114 435.30698709 54 438 C54.66 438 55.32 438 56 438 C56 441.3 56 444.6 56 448 C56.66 448 57.32 448 58 448 C58.33 454.27 58.66 460.54 59 467 C59.66 467 60.32 467 61 467 C60.98839844 467.6290625 60.97679687 468.258125 60.96484375 468.90625 C60.90713127 474.38069088 61.19771527 479.58457806 62 485 C62.66 485 63.32 485 64 485 C64.495 493.415 64.495 493.415 65 502 C65.66 502 66.32 502 67 502 C66.979375 503.051875 66.95875 504.10375 66.9375 505.1875 C66.98896802 508.32704904 67.26517187 510.96883396 68 514 C68.66 514 69.32 514 70 514 C70.495 517.465 70.495 517.465 71 521 C71.66 521 72.32 521 73 521 C73.495 522.485 73.495 522.485 74 524 C74.66 524 75.32 524 76 524 C76 524.66 76 525.32 76 526 C76.99 526.33 77.98 526.66 79 527 C79.33 527.66 79.66 528.32 80 529 C82.52733235 529.65555119 82.52733235 529.65555119 85 530 C85 530.66 85 531.32 85 532 C85.99 532 86.98 532 88 532 C88.495 533.485 88.495 533.485 89 535 C89.99 535 90.98 535 92 535 C92 535.66 92 536.32 92 537 C93.65 537.33 95.3 537.66 97 538 C97 538.66 97 539.32 97 540 C99.64 540.33 102.28 540.66 105 541 C105 536.05 105 531.1 105 526 C104.34 526 103.68 526 103 526 C103.01160156 525.07058594 103.02320313 524.14117188 103.03515625 523.18359375 C103.11753537 514.04290683 103.11753537 514.04290683 102 505 C101.34 505 100.68 505 100 505 C100.020625 503.741875 100.04125 502.48375 100.0625 501.1875 C100.07115072 495.75485053 99.56512387 490.39895124 99 485 C98.34 485 97.68 485 97 485 C97 481.37 97 477.74 97 474 C96.34 474 95.68 474 95 474 C95.01160156 473.27296875 95.02320312 472.5459375 95.03515625 471.796875 C95.10087723 464.47368041 94.7234657 457.28633314 94 450 C93.34 450 92.68 450 92 450 C91.67 444.39 91.34 438.78 91 433 C90.34 433 89.68 433 89 433 C89.01160156 432.21238281 89.02320312 431.42476562 89.03515625 430.61328125 C89.1008018 422.68892613 88.72317286 414.89033243 88 407 C87.34 407 86.68 407 86 407 C85.505 394.625 85.505 394.625 85 382 C84.34 382 83.68 382 83 382 C83.01160156 381.42894531 83.02320312 380.85789062 83.03515625 380.26953125 C83.11452828 373.13738751 82.62339993 366.1023064 82 359 C81.34 359 80.68 359 80 359 C80.01160156 358.1028125 80.02320312 357.205625 80.03515625 356.28125 C80.10364317 346.81048798 79.69495992 337.44400891 79 328 C78.34 328 77.68 328 77 328 C77.01160156 327.030625 77.02320312 326.06125 77.03515625 325.0625 C77.11347265 315.33168671 76.72256025 305.7029519 76 296 C75.34 296 74.68 296 74 296 C74.01160156 295.23042969 74.02320312 294.46085937 74.03515625 293.66796875 C74.13913525 280.43292751 73.54171994 267.22171249 73 254 C72.34 254 71.68 254 71 254 C71.01160156 252.87722656 71.02320312 251.75445312 71.03515625 250.59765625 C71.08951251 242.98693084 71.09817735 235.5499693 70 228 C69.34 228 68.68 228 68 228 C68.00785522 226.87356079 68.00785522 226.87356079 68.01586914 225.72436523 C68.03675961 222.29541879 68.04969845 218.86648579 68.0625 215.4375 C68.07506836 213.66536133 68.07506836 213.66536133 68.08789062 211.85742188 C68.10392999 206.13136928 68.0510705 200.63605518 67 195 C66.34 195 65.68 195 65 195 C65.01160156 194.19820312 65.02320313 193.39640625 65.03515625 192.5703125 C65.11366971 182.67761686 64.62664124 172.86959959 64 163 C63.34 163 62.68 163 62 163 C62.01160156 162.37996094 62.02320313 161.75992188 62.03515625 161.12109375 C62.11753019 153.03667944 61.60889919 145.05704105 61 137 C60.34 137 59.68 137 59 137 C59.01160156 136.443125 59.02320313 135.88625 59.03515625 135.3125 C59.09676433 130.10221657 58.74999344 125.1562049 58 120 C57.34 120 56.68 120 56 120 C56 115.38 56 110.76 56 106 C55.34 106 54.68 106 54 106 C54.020625 104.700625 54.04125 103.40125 54.0625 102.0625 C54.07004972 97.30617675 53.59887117 92.71611047 53 88 C52.34 88 51.68 88 51 88 C51.020625 86.700625 51.04125 85.40125 51.0625 84.0625 C51.07004972 79.30617675 50.59887117 74.71611047 50 70 C49.34 70 48.68 70 48 70 C48.020625 68.741875 48.04125 67.48375 48.0625 66.1875 C48.07115072 60.75485053 47.56512387 55.39895124 47 50 C46.34 50 45.68 50 45 50 C45 48.02 45 46.04 45 44 C43.68 43.67 42.36 43.34 41 43 C41 42.34 41 41.68 41 41 C39.02 40.67 37.04 40.34 35 40 C35 39.34 35 38.68 35 38 C32.36 37.67 29.72 37.34 27 37 C26.67 36.01 26.34 35.02 26 34 C25.01 34 24.02 34 23 34 C23 33.34 23 32.68 23 32 C21.88625 31.9175 20.7725 31.835 19.625 31.75 C18.42875 31.5025 17.2325 31.255 16 31 C14.875 29 14.875 29 14 27 C11.44480079 26.18828772 11.44480079 26.18828772 9 26 C9 25.34 9 24.68 9 24 C7.35 23.67 5.7 23.34 4 23 Z " fill="#000000" transform="translate(29,237)"/>
<path d="M0 0 C1.32 0 2.64 0 4 0 C4 0.66 4 1.32 4 2 C4.99 2 5.98 2 7 2 C7 2.66 7 3.32 7 4 C7.99 4.33 8.98 4.66 10 5 C10 5.66 10 6.32 10 7 C11.98 7.495 11.98 7.495 14 8 C14.33 9.65 14.66 11.3 15 13 C15.66 13 16.32 13 17 13 C18.01378993 16.36000387 18.12904265 19.42439441 18.1328125 22.92578125 C18.13474609 24.10503174 18.13667969 25.28428223 18.13867188 26.49926758 C18.13416016 27.75763428 18.12964844 29.01600098 18.125 30.3125 C18.12306641 31.59729248 18.12113281 32.88208496 18.11914062 34.20581055 C18.06745856 45.82063778 17.64468982 57.40415619 17 69 C16.34 69 15.68 69 15 69 C15.01160156 70.29292969 15.02320313 71.58585938 15.03515625 72.91796875 C15.09525302 82.67242601 14.99260606 92.28664073 14 102 C13.34 102 12.68 102 12 102 C12 107.61 12 113.22 12 119 C11.34 119 10.68 119 10 119 C10.01160156 119.79664063 10.02320313 120.59328125 10.03515625 121.4140625 C10.12478032 131.93848858 10.12478032 131.93848858 9 137 C8.34 137 7.68 137 7 137 C6.896875 137.763125 6.79375 138.52625 6.6875 139.3125 C5.93412462 142.25751284 5.44706902 143.25209356 3 145 C0.3125 145.6875 0.3125 145.6875 -2 146 C-2 146.66 -2 147.32 -2 148 C-3.98 148.33 -5.96 148.66 -8 149 C-8 149.66 -8 150.32 -8 151 C-9.98 151.33 -11.96 151.66 -14 152 C-14.33 152.99 -14.66 153.98 -15 155 C-15.99 155 -16.98 155 -18 155 C-18 155.66 -18 156.32 -18 157 C-19.65 157 -21.3 157 -23 157 C-23 157.66 -23 158.32 -23 159 C-24.98 159.33 -26.96 159.66 -29 160 C-29 160.66 -29 161.32 -29 162 C-30.65 162.33 -32.3 162.66 -34 163 C-34 163.66 -34 164.32 -34 165 C-36.97 165.33 -39.94 165.66 -43 166 C-43 166.66 -43 167.32 -43 168 C-45.31 168.33 -47.62 168.66 -50 169 C-50 169.66 -50 170.32 -50 171 C-52.64 171.33 -55.28 171.66 -58 172 C-58 172.66 -58 173.32 -58 174 C-60.97 174.33 -63.94 174.66 -67 175 C-67 175.66 -67 176.32 -67 177 C-69.64 177.33 -72.28 177.66 -75 178 C-75 178.66 -75 179.32 -75 180 C-78.3 180.33 -81.6 180.66 -85 181 C-85 181.66 -85 182.32 -85 183 C-86.98 183.33 -88.96 183.66 -91 184 C-91 184.66 -91 185.32 -91 186 C-93.64 186.33 -96.28 186.66 -99 187 C-99 187.66 -99 188.32 -99 189 C-101.97 189.33 -104.94 189.66 -108 190 C-108 190.66 -108 191.32 -108 192 C-110.97 192.33 -113.94 192.66 -117 193 C-117 193.66 -117 194.32 -117 195 C-119.64 195.33 -122.28 195.66 -125 196 C-125 196.66 -125 197.32 -125 198 C-127.31 198 -129.62 198 -132 198 C-132 198.66 -132 199.32 -132 200 C-135.63 200.33 -139.26 200.66 -143 201 C-143 201.66 -143 202.32 -143 203 C-145.97 203.33 -148.94 203.66 -152 204 C-152 204.66 -152 205.32 -152 206 C-156.95 206.33 -161.9 206.66 -167 207 C-167 207.66 -167 208.32 -167 209 C-172.72040011 209.8320582 -178.22240116 210.12036664 -184 210 C-184 210.66 -184 211.32 -184 212 C-191.02639415 212.74805717 -197.93391809 213.13794954 -205 213 C-205 213.66 -205 214.32 -205 215 C-219.69844586 216.71125357 -234.28328837 215.94402732 -249 215 C-249 214.34 -249 213.68 -249 213 C-249.66 213 -250.32 213 -251 213 C-251 213.66 -251 214.32 -251 215 C-252.98 215 -254.96 215 -257 215 C-257 214.34 -257 213.68 -257 213 C-262.94 212.67 -268.88 212.34 -275 212 C-275 211.34 -275 210.68 -275 210 C-278.96 209.67 -282.92 209.34 -287 209 C-287 208.34 -287 207.68 -287 207 C-287.59167969 207.01160156 -288.18335938 207.02320313 -288.79296875 207.03515625 C-293.00231785 207.08322386 -296.8922333 207.06006883 -301 206 C-301 205.34 -301 204.68 -301 204 C-303.97 203.67 -306.94 203.34 -310 203 C-310 202.34 -310 201.68 -310 201 C-313.63 200.67 -317.26 200.34 -321 200 C-321 199.34 -321 198.68 -321 198 C-321.99 198 -322.98 198 -324 198 C-324 197.34 -324 196.68 -324 196 C-326.97 195.67 -329.94 195.34 -333 195 C-333 194.34 -333 193.68 -333 193 C-335.97 192.67 -338.94 192.34 -342 192 C-342 191.34 -342 190.68 -342 190 C-344.64 189.67 -347.28 189.34 -350 189 C-350 188.34 -350 187.68 -350 187 C-351.98 186.67 -353.96 186.34 -356 186 C-356 185.34 -356 184.68 -356 184 C-357.98 183.67 -359.96 183.34 -362 183 C-362 182.34 -362 181.68 -362 181 C-364.31 180.67 -366.62 180.34 -369 180 C-369 179.34 -369 178.68 -369 178 C-370.65 177.67 -372.3 177.34 -374 177 C-374 176.34 -374 175.68 -374 175 C-375.98 174.67 -377.96 174.34 -380 174 C-380 173.34 -380 172.68 -380 172 C-381.65 171.67 -383.3 171.34 -385 171 C-385 170.34 -385 169.68 -385 169 C-386.32 168.67 -387.64 168.34 -389 168 C-389 167.34 -389 166.68 -389 166 C-390.98 165.67 -392.96 165.34 -395 165 C-395 164.34 -395 163.68 -395 163 C-396.98 162.67 -398.96 162.34 -401 162 C-401 161.34 -401 160.68 -401 160 C-401.99 159.67 -402.98 159.34 -404 159 C-404 158.34 -404 157.68 -404 157 C-404.66 157 -405.32 157 -406 157 C-407.35439668 154.29120665 -407.06501451 151.99066732 -407 149 C-407.66 149 -408.32 149 -409 149 C-409.93854006 141.96094956 -410.10808032 135.09727428 -410 128 C-410.66 128 -411.32 128 -412 128 C-412.90483637 122.63510405 -413.12303662 117.49682543 -413.0625 112.0625 C-413.05798828 111.28326172 -413.05347656 110.50402344 -413.04882812 109.70117188 C-413.03716908 107.80074732 -413.01923877 105.90036294 -413 104 C-413.66 104 -414.32 104 -415 104 C-415 98.06 -415 92.12 -415 86 C-415.66 86 -416.32 86 -417 86 C-417.71961582 77.31320899 -418.14368684 68.71700174 -418 60 C-418.66 60 -419.32 60 -420 60 C-420.33 54.39 -420.66 48.78 -421 43 C-421.66 43 -422.32 43 -423 43 C-423 39.04 -423 35.08 -423 31 C-422.34 31 -421.68 31 -421 31 C-420.67 30.01 -420.34 29.02 -420 28 C-419.34 28 -418.68 28 -418 28 C-417.67 26.35 -417.34 24.7 -417 23 C-409.57142857 21.71428571 -409.57142857 21.71428571 -406 23 C-406 23.66 -406 24.32 -406 25 C-404.35 25.33 -402.7 25.66 -401 26 C-401 26.66 -401 27.32 -401 28 C-399.68 28.33 -398.36 28.66 -397 29 C-397 29.66 -397 30.32 -397 31 C-396.29875 31.103125 -395.5975 31.20625 -394.875 31.3125 C-391.60862353 32.09359003 -388.9528148 33.42058743 -386 35 C-386 35.66 -386 36.32 -386 37 C-384.5459375 37.185625 -384.5459375 37.185625 -383.0625 37.375 C-382.051875 37.58125 -381.04125 37.7875 -380 38 C-379.67 38.66 -379.34 39.32 -379 40 C-376.47266765 40.65555119 -376.47266765 40.65555119 -374 41 C-374 41.66 -374 42.32 -374 43 C-373.01 43 -372.02 43 -371 43 C-371 43.66 -371 44.32 -371 45 C-368.36 45.33 -365.72 45.66 -363 46 C-363 46.66 -363 47.32 -363 48 C-360.03 48.33 -357.06 48.66 -354 49 C-354 49.66 -354 50.32 -354 51 C-351.03 51.33 -348.06 51.66 -345 52 C-345 52.66 -345 53.32 -345 54 C-342.03 54.33 -339.06 54.66 -336 55 C-336 55.66 -336 56.32 -336 57 C-330.555 57.495 -330.555 57.495 -325 58 C-325 58.66 -325 59.32 -325 60 C-322.69 60.33 -320.38 60.66 -318 61 C-318 61.66 -318 62.32 -318 63 C-315.03 63.33 -312.06 63.66 -309 64 C-309 64.66 -309 65.32 -309 66 C-304.71 66.33 -300.42 66.66 -296 67 C-296 67.66 -296 68.32 -296 69 C-291.71 69.33 -287.42 69.66 -283 70 C-283 70.66 -283 71.32 -283 72 C-271.45 72.33 -259.9 72.66 -248 73 C-248 73.66 -248 74.32 -248 75 C-238.43 75 -228.86 75 -219 75 C-219 74.34 -219 73.68 -219 73 C-208.3051534 72.03711992 -197.72867997 71.89052367 -187 72 C-187 71.34 -187 70.68 -187 70 C-177.1 69.505 -177.1 69.505 -167 69 C-167 68.34 -167 67.68 -167 67 C-162.71 66.67 -158.42 66.34 -154 66 C-154 65.34 -154 64.68 -154 64 C-149.38 63.67 -144.76 63.34 -140 63 C-140 62.34 -140 61.68 -140 61 C-134.06 60.505 -134.06 60.505 -128 60 C-128 59.34 -128 58.68 -128 58 C-122.06 57.505 -122.06 57.505 -116 57 C-116 56.34 -116 55.68 -116 55 C-113.36 54.67 -110.72 54.34 -108 54 C-108 53.34 -108 52.68 -108 52 C-104.37 51.67 -100.74 51.34 -97 51 C-97 50.34 -97 49.68 -97 49 C-94.03 48.67 -91.06 48.34 -88 48 C-88 47.34 -88 46.68 -88 46 C-86.02 45.67 -84.04 45.34 -82 45 C-82 44.34 -82 43.68 -82 43 C-81.01 43 -80.02 43 -79 43 C-79 42.34 -79 41.68 -79 41 C-76.03 40.67 -73.06 40.34 -70 40 C-70 39.34 -70 38.68 -70 38 C-68.02 37.67 -66.04 37.34 -64 37 C-64 36.34 -64 35.68 -64 35 C-62.02 34.67 -60.04 34.34 -58 34 C-58 33.34 -58 32.68 -58 32 C-56.02 31.67 -54.04 31.34 -52 31 C-52 30.34 -52 29.68 -52 29 C-50.02 28.67 -48.04 28.34 -46 28 C-46 27.34 -46 26.68 -46 26 C-44.02 25.67 -42.04 25.34 -40 25 C-40 24.34 -40 23.68 -40 23 C-38.02 22.67 -36.04 22.34 -34 22 C-34 21.34 -34 20.68 -34 20 C-32.02 19.67 -30.04 19.34 -28 19 C-28 18.34 -28 17.68 -28 17 C-27.360625 16.87625 -26.72125 16.7525 -26.0625 16.625 C-25.381875 16.41875 -24.70125 16.2125 -24 16 C-23.67 15.34 -23.34 14.68 -23 14 C-20.4375 13.375 -20.4375 13.375 -18 13 C-18 12.34 -18 11.68 -18 11 C-16.02 10.67 -14.04 10.34 -12 10 C-11.67 9.01 -11.34 8.02 -11 7 C-10.01 7 -9.02 7 -8 7 C-8 6.34 -8 5.68 -8 5 C-6.35 4.67 -4.7 4.34 -3 4 C-3 3.34 -3 2.68 -3 2 C-2.01 2 -1.02 2 0 2 C0 1.34 0 0.68 0 0 Z M-6 29 C-6 29.66 -6 30.32 -6 31 C-7.98 31.33 -9.96 31.66 -12 32 C-12 32.66 -12 33.32 -12 34 C-13.98 34.33 -15.96 34.66 -18 35 C-18 35.66 -18 36.32 -18 37 C-19.65 37.33 -21.3 37.66 -23 38 C-23 38.66 -23 39.32 -23 40 C-24.98 40.33 -26.96 40.66 -29 41 C-29 41.66 -29 42.32 -29 43 C-29.99 43 -30.98 43 -32 43 C-32 43.66 -32 44.32 -32 45 C-33.98 45.33 -35.96 45.66 -38 46 C-38 46.66 -38 47.32 -38 48 C-39.98 48.33 -41.96 48.66 -44 49 C-44 49.66 -44 50.32 -44 51 C-45.98 51.33 -47.96 51.66 -50 52 C-50 52.66 -50 53.32 -50 54 C-51.98 54.33 -53.96 54.66 -56 55 C-56 55.66 -56 56.32 -56 57 C-59.96 57.495 -59.96 57.495 -64 58 C-64 58.66 -64 59.32 -64 60 C-65.5159375 60.1546875 -65.5159375 60.1546875 -67.0625 60.3125 C-71.21218208 61.03704767 -74.21356263 62.22269266 -78 64 C-78 64.66 -78 65.32 -78 66 C-80.97 66.33 -83.94 66.66 -87 67 C-87 67.66 -87 68.32 -87 69 C-89.97 69.33 -92.94 69.66 -96 70 C-96 70.66 -96 71.32 -96 72 C-99.465 72.495 -99.465 72.495 -103 73 C-103 73.66 -103 74.32 -103 75 C-104.19625 74.979375 -105.3925 74.95875 -106.625 74.9375 C-110.18004869 74.93117429 -113.50555624 75.30111125 -117 76 C-117 76.66 -117 77.32 -117 78 C-119.97 78.33 -122.94 78.66 -126 79 C-126 79.66 -126 80.32 -126 81 C-127.98 81 -129.96 81 -132 81 C-132 81.66 -132 82.32 -132 83 C-132.60328125 82.98839844 -133.2065625 82.97679687 -133.828125 82.96484375 C-134.62734375 82.95582031 -135.4265625 82.94679688 -136.25 82.9375 C-137.03890625 82.92589844 -137.8278125 82.91429687 -138.640625 82.90234375 C-140.90691002 82.99614694 -142.8288895 83.36758937 -145 84 C-145 84.66 -145 85.32 -145 86 C-145.60328125 85.98839844 -146.2065625 85.97679687 -146.828125 85.96484375 C-147.62734375 85.95582031 -148.4265625 85.94679688 -149.25 85.9375 C-150.03890625 85.92589844 -150.8278125 85.91429687 -151.640625 85.90234375 C-153.90691002 85.99614694 -155.8288895 86.36758937 -158 87 C-158 87.66 -158 88.32 -158 89 C-159.9490625 88.9690625 -159.9490625 88.9690625 -161.9375 88.9375 C-166.69382325 88.92995028 -171.28388953 89.40112883 -176 90 C-176 90.66 -176 91.32 -176 92 C-177.01578125 91.98839844 -178.0315625 91.97679687 -179.078125 91.96484375 C-187.4440242 91.89961257 -195.6689427 92.11640301 -204 93 C-204 93.66 -204 94.32 -204 95 C-223.47 95 -242.94 95 -263 95 C-263 94.34 -263 93.68 -263 93 C-270.69118596 92.24833087 -278.27227893 91.86309156 -286 92 C-286 91.34 -286 90.68 -286 90 C-290.76307437 89.04738513 -295.1666528 88.91666643 -300 89 C-300 88.34 -300 87.68 -300 87 C-303.3 86.67 -306.6 86.34 -310 86 C-310 85.34 -310 84.68 -310 84 C-312.97 83.67 -315.94 83.34 -319 83 C-319 82.34 -319 81.68 -319 81 C-320.98 81 -322.96 81 -325 81 C-325 80.34 -325 79.68 -325 79 C-327.97 78.67 -330.94 78.34 -334 78 C-334 77.34 -334 76.68 -334 76 C-336.64 75.67 -339.28 75.34 -342 75 C-342 74.34 -342 73.68 -342 73 C-344.97 72.67 -347.94 72.34 -351 72 C-351 71.34 -351 70.68 -351 70 C-354.96 69.67 -358.92 69.34 -363 69 C-363 68.34 -363 67.68 -363 67 C-366.63 66.67 -370.26 66.34 -374 66 C-374 65.34 -374 64.68 -374 64 C-375.98 63.67 -377.96 63.34 -380 63 C-380 62.34 -380 61.68 -380 61 C-381.98 60.67 -383.96 60.34 -386 60 C-386 59.34 -386 58.68 -386 58 C-387.98 57.67 -389.96 57.34 -392 57 C-392 56.34 -392 55.68 -392 55 C-393.98 54.67 -395.96 54.34 -398 54 C-397.67 58.95 -397.34 63.9 -397 69 C-396.34 69 -395.68 69 -395 69 C-395.01160156 69.92039062 -395.02320313 70.84078125 -395.03515625 71.7890625 C-395.09786871 80.58672507 -394.75687238 89.2283897 -394 98 C-393.34 98 -392.68 98 -392 98 C-392.01160156 98.72703125 -392.02320313 99.4540625 -392.03515625 100.203125 C-392.10087723 107.52631959 -391.7234657 114.71366686 -391 122 C-390.34 122 -389.68 122 -389 122 C-389.01160156 122.58007812 -389.02320313 123.16015625 -389.03515625 123.7578125 C-389.08762174 128.2998246 -388.91751063 132.52713569 -388 137 C-387.34 137 -386.68 137 -386 137 C-386.03480469 137.61488281 -386.06960938 138.22976563 -386.10546875 138.86328125 C-386.13253906 139.67152344 -386.15960938 140.47976563 -386.1875 141.3125 C-386.22230469 142.11300781 -386.25710938 142.91351562 -386.29296875 143.73828125 C-386.17809474 146.06266414 -386.17809474 146.06266414 -384.67578125 147.79296875 C-382.93849134 149.2922271 -382.93849134 149.2922271 -380 149 C-379.67 149.99 -379.34 150.98 -379 152 C-378.01 152 -377.02 152 -376 152 C-376 152.66 -376 153.32 -376 154 C-374.35 154.33 -372.7 154.66 -371 155 C-371 155.66 -371 156.32 -371 157 C-370.01 157 -369.02 157 -368 157 C-368 157.66 -368 158.32 -368 159 C-366.02 159.33 -364.04 159.66 -362 160 C-362 160.66 -362 161.32 -362 162 C-360.02 162.33 -358.04 162.66 -356 163 C-356 163.66 -356 164.32 -356 165 C-354.02 165.33 -352.04 165.66 -350 166 C-350 166.66 -350 167.32 -350 168 C-347.36 168.33 -344.72 168.66 -342 169 C-342 169.66 -342 170.32 -342 171 C-339.36 171.33 -336.72 171.66 -334 172 C-334 172.66 -334 173.32 -334 174 C-332.02 174.33 -330.04 174.66 -328 175 C-328 175.66 -328 176.32 -328 177 C-324.7 177.33 -321.4 177.66 -318 178 C-318 178.66 -318 179.32 -318 180 C-315.36 180.33 -312.72 180.66 -310 181 C-310 181.66 -310 182.32 -310 183 C-306.7 183.33 -303.4 183.66 -300 184 C-300 184.66 -300 185.32 -300 186 C-296.7 186.33 -293.4 186.66 -290 187 C-290 187.66 -290 188.32 -290 189 C-286.0186217 190.3271261 -282.14954773 190.06915913 -278 190 C-278 190.66 -278 191.32 -278 192 C-270.96094956 192.93854006 -264.09727428 193.10808032 -257 193 C-257 193.66 -257 194.32 -257 195 C-239.53322966 197.34004579 -221.52453653 196.06439701 -204 195 C-204 194.34 -204 193.68 -204 193 C-202.98292969 193.01740234 -202.98292969 193.01740234 -201.9453125 193.03515625 C-195.55795793 193.09708351 -189.34030324 192.77018868 -183 192 C-183 191.34 -183 190.68 -183 190 C-177.72 189.67 -172.44 189.34 -167 189 C-167 188.34 -167 187.68 -167 187 C-163.7 186.67 -160.4 186.34 -157 186 C-157 185.34 -157 184.68 -157 184 C-156.14728516 184.01740234 -156.14728516 184.01740234 -155.27734375 184.03515625 C-150.39329516 184.09223194 -145.81496035 183.81956772 -141 183 C-141 182.34 -141 181.68 -141 181 C-138.69 180.67 -136.38 180.34 -134 180 C-134 179.34 -134 178.68 -134 178 C-130.37 177.67 -126.74 177.34 -123 177 C-123 176.34 -123 175.68 -123 175 C-120.03 174.67 -117.06 174.34 -114 174 C-114 173.34 -114 172.68 -114 172 C-111.69 171.67 -109.38 171.34 -107 171 C-107 170.34 -107 169.68 -107 169 C-103.37 168.67 -99.74 168.34 -96 168 C-96 167.34 -96 166.68 -96 166 C-95.06027344 165.92652344 -95.06027344 165.92652344 -94.1015625 165.8515625 C-92.87566406 165.73941406 -92.87566406 165.73941406 -91.625 165.625 C-90.81289063 165.55539062 -90.00078125 165.48578125 -89.1640625 165.4140625 C-86.79665809 165.17107412 -86.79665809 165.17107412 -85 163 C-82.875 162.375 -82.875 162.375 -81 162 C-81 161.34 -81 160.68 -81 160 C-78.03 159.67 -75.06 159.34 -72 159 C-72 158.34 -72 157.68 -72 157 C-71.01 157 -70.02 157 -69 157 C-69 156.34 -69 155.68 -69 155 C-65.535 154.505 -65.535 154.505 -62 154 C-62 153.34 -62 152.68 -62 152 C-59.03 151.67 -56.06 151.34 -53 151 C-53 150.34 -53 149.68 -53 149 C-49.535 148.505 -49.535 148.505 -46 148 C-46 147.34 -46 146.68 -46 146 C-44.02 145.67 -42.04 145.34 -40 145 C-40 144.34 -40 143.68 -40 143 C-38.80375 142.896875 -37.6075 142.79375 -36.375 142.6875 C-32.4375824 142.21108648 -29.45859625 140.98869284 -26 139 C-26 138.34 -26 137.68 -26 137 C-24.35 136.67 -22.7 136.34 -21 136 C-21 135.34 -21 134.68 -21 134 C-20.071875 133.896875 -19.14375 133.79375 -18.1875 133.6875 C-14.97535795 132.99468505 -13.88069983 132.6120831 -12 130 C-12 129.34 -12 128.68 -12 128 C-11.01 128 -10.02 128 -9 128 C-8.08307039 125.24921116 -7.89113917 123.64051087 -7.9375 120.8125 C-7.9684375 118.9253125 -7.9684375 118.9253125 -8 117 C-7.34 117 -6.68 117 -6 117 C-5.11504503 107.62895894 -4.8829591 98.40228594 -5 89 C-4.34 89 -3.68 89 -3 89 C-1.77356615 72.00513087 -1.89749253 55.02727933 -2 38 C-1.34 38 -0.68 38 0 38 C0 34.7 0 31.4 0 28 C-3.05270463 27.84188612 -3.05270463 27.84188612 -6 29 Z " fill="#000000" transform="translate(500,767)"/>
<path d="M0 0 C0.98484375 0.10183594 1.9696875 0.20367187 2.984375 0.30859375 C3.73203125 0.39238281 4.4796875 0.47617187 5.25 0.5625 C5.25 1.2225 5.25 1.8825 5.25 2.5625 C9.21 2.8925 13.17 3.2225 17.25 3.5625 C17.25 4.2225 17.25 4.8825 17.25 5.5625 C22.695 6.0575 22.695 6.0575 28.25 6.5625 C28.25 7.2225 28.25 7.8825 28.25 8.5625 C29.57 8.5625 30.89 8.5625 32.25 8.5625 C32.25 9.2225 32.25 9.8825 32.25 10.5625 C33.425625 10.541875 34.60125 10.52125 35.8125 10.5 C39.72413467 10.49302739 43.39497944 10.91999657 47.25 11.5625 C47.25 12.2225 47.25 12.8825 47.25 13.5625 C48.03260696 13.56027939 48.81521393 13.55805878 49.62153625 13.55577087 C56.99338968 13.53574184 64.36522993 13.52051251 71.73710346 13.51068783 C75.52714002 13.5054671 79.31715411 13.4983841 83.10717773 13.48706055 C86.76408802 13.47620296 90.42097668 13.47021705 94.07790184 13.46762276 C95.47376025 13.4657737 96.86961747 13.46216301 98.26546669 13.45676994 C100.21903964 13.44952156 102.17263431 13.44909162 104.1262207 13.44897461 C105.2387471 13.446754 106.3512735 13.44453339 107.49751282 13.44224548 C110.25 13.5625 110.25 13.5625 113.25 14.5625 C114.60827971 16.20889965 115.94254251 17.87545807 117.25 19.5625 C117.91 19.8925 118.57 20.2225 119.25 20.5625 C120.38739099 23.97467298 120.37535915 26.5708999 120.37584114 30.17046833 C120.37729458 30.84856807 120.37874802 31.5266678 120.38024551 32.22531602 C120.38391652 34.51467886 120.38041371 36.80397557 120.37698364 39.09333801 C120.37813516 40.74545679 120.37972289 42.39757531 120.38171089 44.04969329 C120.38590292 48.60522755 120.38381375 53.16074098 120.38072467 57.71627533 C120.37846909 62.62762923 120.38195179 67.53897946 120.38470459 72.45033264 C120.38916621 82.09679583 120.38818217 91.74325126 120.38529195 101.38971476 C120.3830307 109.26661781 120.38272856 117.1435187 120.38381577 125.02042198 C120.383969 126.14325374 120.38412223 127.26608549 120.38428011 128.42294246 C120.38459988 130.70506067 120.3849241 132.98717888 120.3852527 135.26929709 C120.38811085 156.72684932 120.38481977 178.1843973 120.37945233 199.64194884 C120.37502471 217.90168226 120.37572571 236.16140929 120.38037109 254.42114258 C120.38578209 275.69967573 120.38779346 296.97820509 120.38475883 318.25673884 C120.38444037 320.55079981 120.384126 322.84486077 120.38381577 325.13892174 C120.38366149 326.26700035 120.38350721 327.39507897 120.38334826 328.55734179 C120.38249934 336.35568602 120.38392911 344.15402775 120.38629532 351.9523716 C120.40053093 403.16472606 120.19637389 454.35798828 119.25 505.5625 C118.59 505.5625 117.93 505.5625 117.25 505.5625 C116.92 507.5425 116.59 509.5225 116.25 511.5625 C114.6 511.8925 112.95 512.2225 111.25 512.5625 C111.188125 513.14 111.12625 513.7175 111.0625 514.3125 C109.79748363 517.81562226 108.54275395 518.75471352 105.25 520.5625 C97.3259064 521.43895278 89.15172299 520.34706824 81.25 519.5625 C81.25 518.9025 81.25 518.2425 81.25 517.5625 C73.66 517.2325 66.07 516.9025 58.25 516.5625 C58.25 515.9025 58.25 515.2425 58.25 514.5625 C57.610625 514.8925 56.97125 515.2225 56.3125 515.5625 C52.23763159 516.89306928 48.49809575 516.72909199 44.25 516.5625 C43.92 514.9125 43.59 513.2625 43.25 511.5625 C42.59 511.5625 41.93 511.5625 41.25 511.5625 C41.12882812 510.83804687 41.00765625 510.11359375 40.8828125 509.3671875 C39.83268421 503.25883365 39.83268421 503.25883365 38.125 497.3125 C37.0619725 493.97155644 37.11064968 491.04625798 37.25 487.5625 C36.59 487.5625 35.93 487.5625 35.25 487.5625 C34.92 483.9325 34.59 480.3025 34.25 476.5625 C33.59 476.5625 32.93 476.5625 32.25 476.5625 C31.92 472.6025 31.59 468.6425 31.25 464.5625 C30.59 464.5625 29.93 464.5625 29.25 464.5625 C28.92 460.6025 28.59 456.6425 28.25 452.5625 C27.59 452.5625 26.93 452.5625 26.25 452.5625 C25.42648136 446.18023055 25.12913782 439.99505401 25.25 433.5625 C24.59 433.5625 23.93 433.5625 23.25 433.5625 C21.92405641 427.59575384 22.1615413 421.63666385 22.25 415.5625 C21.59 415.5625 20.93 415.5625 20.25 415.5625 C19.755 406.6525 19.755 406.6525 19.25 397.5625 C18.59 397.5625 17.93 397.5625 17.25 397.5625 C16.49833087 389.87131404 16.11309156 382.29022107 16.25 374.5625 C15.59 374.5625 14.93 374.5625 14.25 374.5625 C14.25 371.2625 14.25 367.9625 14.25 364.5625 C13.59 364.5625 12.93 364.5625 12.25 364.5625 C11.56583529 353.21269611 11.09701291 341.93454047 11.25 330.5625 C10.59 330.5625 9.93 330.5625 9.25 330.5625 C8.55962574 321.53832223 8.09821698 312.61888678 8.25 303.5625 C7.59 303.5625 6.93 303.5625 6.25 303.5625 C5.59956362 293.2135926 5.08505115 282.9359499 5.25 272.5625 C4.59 272.5625 3.93 272.5625 3.25 272.5625 C2.755 258.7025 2.755 258.7025 2.25 244.5625 C1.59 244.5625 0.93 244.5625 0.25 244.5625 C-0.47492332 235.20322209 -0.89256667 225.95605936 -0.75 216.5625 C-1.41 216.5625 -2.07 216.5625 -2.75 216.5625 C-3.68854006 209.52344956 -3.85808032 202.65977428 -3.75 195.5625 C-4.41 195.5625 -5.07 195.5625 -5.75 195.5625 C-6.41 186.6525 -7.07 177.7425 -7.75 168.5625 C-8.08 168.5625 -8.41 168.5625 -8.75 168.5625 C-9.68063811 156.54289444 -9.87346489 144.61284312 -9.8125 132.5625 C-9.80746748 130.8046888 -9.80290771 129.04687617 -9.79882812 127.2890625 C-9.78797851 123.04683894 -9.77081386 118.80468589 -9.75 114.5625 C-10.41 114.5625 -11.07 114.5625 -11.75 114.5625 C-12.4568249 103.54360461 -12.89659011 92.60562186 -12.75 81.5625 C-13.41 81.5625 -14.07 81.5625 -14.75 81.5625 C-15.08 74.9625 -15.41 68.3625 -15.75 61.5625 C-16.41 61.5625 -17.07 61.5625 -17.75 61.5625 C-18.91711095 52.89253296 -18.84744014 44.28880608 -18.75 35.5625 C-19.41 35.5625 -20.07 35.5625 -20.75 35.5625 C-20.75 30.2825 -20.75 25.0025 -20.75 19.5625 C-20.09 19.5625 -19.43 19.5625 -18.75 19.5625 C-18.770625 18.304375 -18.79125 17.04625 -18.8125 15.75 C-18.85886083 12.92198913 -18.66692961 11.31328884 -17.75 8.5625 C-17.09 8.5625 -16.43 8.5625 -15.75 8.5625 C-15.42 6.9125 -15.09 5.2625 -14.75 3.5625 C-13.1 3.2325 -11.45 2.9025 -9.75 2.5625 C-9.75 1.9025 -9.75 1.2425 -9.75 0.5625 C-6.33860997 -0.53401823 -3.54344419 -0.37965473 0 0 Z M-0.75 23.5625 C-0.99495253 39.59546633 -0.99495253 39.59546633 0.25 55.5625 C0.91 55.5625 1.57 55.5625 2.25 55.5625 C2.23839844 56.24054688 2.22679687 56.91859375 2.21484375 57.6171875 C2.15291649 64.00454207 2.47981132 70.22219676 3.25 76.5625 C3.91 76.5625 4.57 76.5625 5.25 76.5625 C5.23839844 77.86316406 5.22679687 79.16382813 5.21484375 80.50390625 C5.1169262 97.20955834 5.63234363 113.87099358 6.25 130.5625 C6.58 130.5625 6.91 130.5625 7.25 130.5625 C7.27505615 131.57038574 7.3001123 132.57827148 7.32592773 133.61669922 C7.42097758 137.40016742 7.52094904 141.18349306 7.62231445 144.96679688 C7.66529822 146.59599443 7.70699424 148.22522654 7.74731445 149.85449219 C7.96134039 158.46837541 8.22062455 166.99878831 9.25 175.5625 C9.91 175.5625 10.57 175.5625 11.25 175.5625 C11.23839844 176.54089844 11.22679687 177.51929688 11.21484375 178.52734375 C11.1660409 185.6177013 11.26257435 192.52709222 12.25 199.5625 C12.91 199.5625 13.57 199.5625 14.25 199.5625 C14.25 205.1725 14.25 210.7825 14.25 216.5625 C14.91 216.5625 15.57 216.5625 16.25 216.5625 C16.58 223.4925 16.91 230.4225 17.25 237.5625 C17.91 237.5625 18.57 237.5625 19.25 237.5625 C19.23839844 238.62726563 19.22679687 239.69203125 19.21484375 240.7890625 C19.14583614 250.10616745 19.4257501 259.27496986 20.25 268.5625 C20.58 268.5625 20.91 268.5625 21.25 268.5625 C21.91 280.1125 22.57 291.6625 23.25 303.5625 C23.91 303.5625 24.57 303.5625 25.25 303.5625 C25.23839844 304.30371094 25.22679687 305.04492188 25.21484375 305.80859375 C25.13526089 315.09705012 25.62868517 324.29825209 26.25 333.5625 C26.58 333.5625 26.91 333.5625 27.25 333.5625 C28.24 345.4425 28.24 345.4425 29.25 357.5625 C29.91 357.5625 30.57 357.5625 31.25 357.5625 C31.23839844 358.82964844 31.22679687 360.09679687 31.21484375 361.40234375 C31.20545581 363.10156101 31.19635669 364.80077989 31.1875 366.5 C31.17912109 367.33080078 31.17074219 368.16160156 31.16210938 369.01757812 C31.14033044 374.61476441 31.53840732 380.00983582 32.25 385.5625 C32.91 385.5625 33.57 385.5625 34.25 385.5625 C34.23839844 386.16835938 34.22679687 386.77421875 34.21484375 387.3984375 C34.14890039 393.52174948 34.52568567 399.48343331 35.25 405.5625 C35.91 405.5625 36.57 405.5625 37.25 405.5625 C37.58 409.8525 37.91 414.1425 38.25 418.5625 C38.91 418.5625 39.57 418.5625 40.25 418.5625 C40.23839844 419.26375 40.22679687 419.965 40.21484375 420.6875 C40.16028816 426.42363102 40.39381623 431.89028253 41.25 437.5625 C41.91 437.5625 42.57 437.5625 43.25 437.5625 C43.58 441.8525 43.91 446.1425 44.25 450.5625 C44.91 450.5625 45.57 450.5625 46.25 450.5625 C46.58 454.5225 46.91 458.4825 47.25 462.5625 C47.91 462.5625 48.57 462.5625 49.25 462.5625 C49.29898438 463.28695313 49.34796875 464.01140625 49.3984375 464.7578125 C49.80206152 469.97708867 50.26275807 474.66063658 52.25 479.5625 C52.91 479.5625 53.57 479.5625 54.25 479.5625 C54.745 485.0075 54.745 485.0075 55.25 490.5625 C55.91 490.5625 56.57 490.5625 57.25 490.5625 C57.25 491.5525 57.25 492.5425 57.25 493.5625 C60.24480917 494.4348412 62.88575911 494.67079766 66 494.625 C67.19882813 494.61146484 67.19882813 494.61146484 68.421875 494.59765625 C69.02515625 494.58605469 69.6284375 494.57445312 70.25 494.5625 C70.25 495.2225 70.25 495.8825 70.25 496.5625 C71.0020874 496.61784912 71.7541748 496.67319824 72.52905273 496.73022461 C75.91557229 496.98209717 79.30152199 497.24095339 82.6875 497.5 C83.87150391 497.58701172 85.05550781 497.67402344 86.27539062 497.76367188 C87.40009766 497.85068359 88.52480469 497.93769531 89.68359375 498.02734375 C91.24678345 498.14517212 91.24678345 498.14517212 92.84155273 498.26538086 C95.25 498.5625 95.25 498.5625 96.25 499.5625 C97.91617115 499.60313832 99.58388095 499.605221 101.25 499.5625 C102.0525399 493.85008925 102.43179091 488.26814351 102.53125 482.50390625 C102.56899303 480.80273399 102.60675395 479.10156213 102.64453125 477.40039062 C102.69843734 474.74489753 102.75069157 472.08937764 102.80224609 469.43383789 C102.85376509 466.85292521 102.91102566 464.27218639 102.96875 461.69140625 C102.98232544 460.89046036 102.99590088 460.08951447 103.0098877 459.26429749 C103.13702386 453.67547614 103.13702386 453.67547614 104.25 452.5625 C104.41047043 450.4632708 104.4993272 448.35857066 104.56201172 446.25415039 C104.58250202 445.58168966 104.60299232 444.90922894 104.62410355 444.21639061 C104.69078998 441.92694168 104.74848354 439.63738556 104.8046875 437.34765625 C104.82562344 436.54134325 104.84655937 435.73503025 104.86812973 434.90428352 C105.45497933 411.81271955 105.40433824 388.71505735 105.37857056 365.61769485 C105.37496169 361.96118338 105.37337317 358.30467588 105.37231445 354.64816284 C105.35815786 315.2792256 105.06449803 275.92324836 104.25 236.5625 C103.92 236.5625 103.59 236.5625 103.25 236.5625 C102.41452345 193.34972644 102.11288525 150.15560923 102.17797339 106.93544674 C102.18952733 99.11563214 102.19474044 91.29581618 102.19967639 83.47599506 C102.20988664 67.50482007 102.22724793 51.53366239 102.25 35.5625 C99.94 35.5625 97.63 35.5625 95.25 35.5625 C95.25 36.2225 95.25 36.8825 95.25 37.5625 C84.69 37.5625 74.13 37.5625 63.25 37.5625 C63.25 36.9025 63.25 36.2425 63.25 35.5625 C52.36 35.0675 52.36 35.0675 41.25 34.5625 C41.25 33.9025 41.25 33.2425 41.25 32.5625 C37.29 32.2325 33.33 31.9025 29.25 31.5625 C29.25 30.9025 29.25 30.2425 29.25 29.5625 C24.96 29.2325 20.67 28.9025 16.25 28.5625 C16.25 27.9025 16.25 27.2425 16.25 26.5625 C12.62 26.2325 8.99 25.9025 5.25 25.5625 C5.25 24.9025 5.25 24.2425 5.25 23.5625 C3.27 23.5625 1.29 23.5625 -0.75 23.5625 Z " fill="#000000" transform="translate(149.75,295.4375)"/>
<path d="M0 0 C0.80824219 0.10183594 1.61648438 0.20367187 2.44921875 0.30859375 C3.06410156 0.39238281 3.67898438 0.47617188 4.3125 0.5625 C4.3125 1.2225 4.3125 1.8825 4.3125 2.5625 C4.9725 2.5625 5.6325 2.5625 6.3125 2.5625 C6.3125 5.5325 6.3125 8.5025 6.3125 11.5625 C5.6525 11.5625 4.9925 11.5625 4.3125 11.5625 C3.9825 13.5425 3.6525 15.5225 3.3125 17.5625 C2.3225 17.5625 1.3325 17.5625 0.3125 17.5625 C0.3125 18.2225 0.3125 18.8825 0.3125 19.5625 C-1.3375 19.8925 -2.9875 20.2225 -4.6875 20.5625 C-5.0175 21.5525 -5.3475 22.5425 -5.6875 23.5625 C-6.6775 23.5625 -7.6675 23.5625 -8.6875 23.5625 C-8.6875 24.2225 -8.6875 24.8825 -8.6875 25.5625 C-10.3375 25.8925 -11.9875 26.2225 -13.6875 26.5625 C-13.6875 27.2225 -13.6875 27.8825 -13.6875 28.5625 C-15.6675 28.8925 -17.6475 29.2225 -19.6875 29.5625 C-19.6875 30.2225 -19.6875 30.8825 -19.6875 31.5625 C-22.3275 31.8925 -24.9675 32.2225 -27.6875 32.5625 C-27.6875 33.2225 -27.6875 33.8825 -27.6875 34.5625 C-32.6375 35.0575 -32.6375 35.0575 -37.6875 35.5625 C-37.6875 36.2225 -37.6875 36.8825 -37.6875 37.5625 C-40.6575 37.8925 -43.6275 38.2225 -46.6875 38.5625 C-46.6875 39.2225 -46.6875 39.8825 -46.6875 40.5625 C-48.6675 40.5625 -50.6475 40.5625 -52.6875 40.5625 C-52.6875 41.2225 -52.6875 41.8825 -52.6875 42.5625 C-56.9775 42.8925 -61.2675 43.2225 -65.6875 43.5625 C-65.6875 44.2225 -65.6875 44.8825 -65.6875 45.5625 C-71.6275 46.0575 -71.6275 46.0575 -77.6875 46.5625 C-77.6875 47.2225 -77.6875 47.8825 -77.6875 48.5625 C-83.6275 49.0575 -83.6275 49.0575 -89.6875 49.5625 C-89.6875 50.2225 -89.6875 50.8825 -89.6875 51.5625 C-94.45057437 52.51511487 -98.8541528 52.64583357 -103.6875 52.5625 C-103.6875 53.2225 -103.6875 53.8825 -103.6875 54.5625 C-106.68230917 55.4348412 -109.32325911 55.67079766 -112.4375 55.625 C-113.23671875 55.61597656 -114.0359375 55.60695312 -114.859375 55.59765625 C-115.46265625 55.58605469 -116.0659375 55.57445312 -116.6875 55.5625 C-116.6875 56.2225 -116.6875 56.8825 -116.6875 57.5625 C-122.6275 58.0575 -122.6275 58.0575 -128.6875 58.5625 C-128.6875 59.2225 -128.6875 59.8825 -128.6875 60.5625 C-133.3075 60.8925 -137.9275 61.2225 -142.6875 61.5625 C-142.6875 62.2225 -142.6875 62.8825 -142.6875 63.5625 C-148.6275 64.0575 -148.6275 64.0575 -154.6875 64.5625 C-154.6875 65.2225 -154.6875 65.8825 -154.6875 66.5625 C-161.06108711 67.52455088 -167.24679529 67.66905578 -173.6875 67.5625 C-173.6875 68.2225 -173.6875 68.8825 -173.6875 69.5625 C-178.6375 70.0575 -178.6375 70.0575 -183.6875 70.5625 C-183.6875 71.2225 -183.6875 71.8825 -183.6875 72.5625 C-192.1025 73.0575 -192.1025 73.0575 -200.6875 73.5625 C-200.6875 74.2225 -200.6875 74.8825 -200.6875 75.5625 C-208.37681285 76.62309488 -215.93256486 76.66178082 -223.6875 76.5625 C-223.6875 77.2225 -223.6875 77.8825 -223.6875 78.5625 C-227.6475 78.5625 -231.6075 78.5625 -235.6875 78.5625 C-235.6875 79.2225 -235.6875 79.8825 -235.6875 80.5625 C-247.01644559 81.36253332 -258.28704009 81.72196516 -269.64379883 81.69287109 C-272.12001686 81.68751079 -274.59605301 81.69285882 -277.07226562 81.69921875 C-287.97499288 81.70326054 -298.80910201 81.28004439 -309.6875 80.5625 C-309.6875 79.9025 -309.6875 79.2425 -309.6875 78.5625 C-311.6675 78.5625 -313.6475 78.5625 -315.6875 78.5625 C-315.6875 77.9025 -315.6875 77.2425 -315.6875 76.5625 C-316.54472656 76.57410156 -317.40195312 76.58570313 -318.28515625 76.59765625 C-324.19610552 76.6443041 -329.86906704 76.64499916 -335.6875 75.5625 C-335.6875 74.9025 -335.6875 74.2425 -335.6875 73.5625 C-336.88375 73.583125 -338.08 73.60375 -339.3125 73.625 C-342.86754869 73.63132571 -346.19305624 73.26138875 -349.6875 72.5625 C-349.6875 71.9025 -349.6875 71.2425 -349.6875 70.5625 C-350.986875 70.583125 -352.28625 70.60375 -353.625 70.625 C-358.38132325 70.63254972 -362.97138953 70.16137117 -367.6875 69.5625 C-367.6875 68.9025 -367.6875 68.2425 -367.6875 67.5625 C-373.2975 67.2325 -378.9075 66.9025 -384.6875 66.5625 C-384.6875 65.9025 -384.6875 65.2425 -384.6875 64.5625 C-388.9775 64.2325 -393.2675 63.9025 -397.6875 63.5625 C-397.6875 62.9025 -397.6875 62.2425 -397.6875 61.5625 C-402.9675 61.2325 -408.2475 60.9025 -413.6875 60.5625 C-413.6875 59.9025 -413.6875 59.2425 -413.6875 58.5625 C-418.9675 58.2325 -424.2475 57.9025 -429.6875 57.5625 C-429.6875 56.9025 -429.6875 56.2425 -429.6875 55.5625 C-432.6575 55.2325 -435.6275 54.9025 -438.6875 54.5625 C-438.6875 53.9025 -438.6875 53.2425 -438.6875 52.5625 C-441.3275 52.2325 -443.9675 51.9025 -446.6875 51.5625 C-446.6875 50.9025 -446.6875 50.2425 -446.6875 49.5625 C-449.3275 49.2325 -451.9675 48.9025 -454.6875 48.5625 C-454.6875 47.9025 -454.6875 47.2425 -454.6875 46.5625 C-456.9975 46.2325 -459.3075 45.9025 -461.6875 45.5625 C-461.6875 44.9025 -461.6875 44.2425 -461.6875 43.5625 C-463.6675 43.2325 -465.6475 42.9025 -467.6875 42.5625 C-467.6875 41.9025 -467.6875 41.2425 -467.6875 40.5625 C-468.3475 40.5625 -469.0075 40.5625 -469.6875 40.5625 C-469.6875 39.9025 -469.6875 39.2425 -469.6875 38.5625 C-471.6675 38.2325 -473.6475 37.9025 -475.6875 37.5625 C-475.6875 36.9025 -475.6875 36.2425 -475.6875 35.5625 C-477.6675 35.2325 -479.6475 34.9025 -481.6875 34.5625 C-481.6875 33.9025 -481.6875 33.2425 -481.6875 32.5625 C-485.6475 32.0675 -485.6475 32.0675 -489.6875 31.5625 C-490.0175 29.9125 -490.3475 28.2625 -490.6875 26.5625 C-491.3475 26.5625 -492.0075 26.5625 -492.6875 26.5625 C-492.6875 23.2625 -492.6875 19.9625 -492.6875 16.5625 C-492.0275 16.5625 -491.3675 16.5625 -490.6875 16.5625 C-490.3575 14.9125 -490.0275 13.2625 -489.6875 11.5625 C-488.0375 11.2325 -486.3875 10.9025 -484.6875 10.5625 C-484.6875 9.9025 -484.6875 9.2425 -484.6875 8.5625 C-483.0375 8.5625 -481.3875 8.5625 -479.6875 8.5625 C-479.6875 9.2225 -479.6875 9.8825 -479.6875 10.5625 C-477.3775 10.8925 -475.0675 11.2225 -472.6875 11.5625 C-472.6875 12.2225 -472.6875 12.8825 -472.6875 13.5625 C-471.0375 13.5625 -469.3875 13.5625 -467.6875 13.5625 C-467.3575 14.5525 -467.0275 15.5425 -466.6875 16.5625 C-464.7075 16.8925 -462.7275 17.2225 -460.6875 17.5625 C-460.6875 18.2225 -460.6875 18.8825 -460.6875 19.5625 C-459.0375 19.8925 -457.3875 20.2225 -455.6875 20.5625 C-455.6875 21.2225 -455.6875 21.8825 -455.6875 22.5625 C-453.7075 22.8925 -451.7275 23.2225 -449.6875 23.5625 C-449.6875 24.2225 -449.6875 24.8825 -449.6875 25.5625 C-447.7075 25.8925 -445.7275 26.2225 -443.6875 26.5625 C-443.6875 27.2225 -443.6875 27.8825 -443.6875 28.5625 C-441.0475 28.8925 -438.4075 29.2225 -435.6875 29.5625 C-435.6875 30.2225 -435.6875 30.8825 -435.6875 31.5625 C-432.3875 31.8925 -429.0875 32.2225 -425.6875 32.5625 C-425.6875 33.2225 -425.6875 33.8825 -425.6875 34.5625 C-422.7175 34.8925 -419.7475 35.2225 -416.6875 35.5625 C-416.6875 36.2225 -416.6875 36.8825 -416.6875 37.5625 C-414.893125 37.5315625 -414.893125 37.5315625 -413.0625 37.5 C-409.50745131 37.49367429 -406.18194376 37.86361125 -402.6875 38.5625 C-402.6875 39.2225 -402.6875 39.8825 -402.6875 40.5625 C-400.7075 40.5625 -398.7275 40.5625 -396.6875 40.5625 C-396.6875 41.2225 -396.6875 41.8825 -396.6875 42.5625 C-389.7575 42.8925 -382.8275 43.2225 -375.6875 43.5625 C-375.6875 44.2225 -375.6875 44.8825 -375.6875 45.5625 C-368.7575 46.0575 -368.7575 46.0575 -361.6875 46.5625 C-361.6875 47.2225 -361.6875 47.8825 -361.6875 48.5625 C-358.0575 48.8925 -354.4275 49.2225 -350.6875 49.5625 C-350.6875 50.2225 -350.6875 50.8825 -350.6875 51.5625 C-349.70910156 51.54509766 -349.70910156 51.54509766 -348.7109375 51.52734375 C-343.9113086 51.47779006 -339.40965315 51.56836249 -334.6875 52.5625 C-334.6875 53.2225 -334.6875 53.8825 -334.6875 54.5625 C-334.11902344 54.55089844 -333.55054688 54.53929687 -332.96484375 54.52734375 C-328.08079516 54.47026806 -323.50246035 54.74293228 -318.6875 55.5625 C-318.6875 56.2225 -318.6875 56.8825 -318.6875 57.5625 C-310.7675 57.8925 -302.8475 58.2225 -294.6875 58.5625 C-294.6875 59.2225 -294.6875 59.8825 -294.6875 60.5625 C-275.2175 60.5625 -255.7475 60.5625 -235.6875 60.5625 C-235.6875 59.9025 -235.6875 59.2425 -235.6875 58.5625 C-235.10371582 58.5123877 -234.51993164 58.46227539 -233.91845703 58.41064453 C-231.21593666 58.17534118 -228.51425227 57.93145876 -225.8125 57.6875 C-224.8946875 57.60886719 -223.976875 57.53023437 -223.03125 57.44921875 C-218.42868735 57.02785738 -213.95947439 56.46684977 -209.4375 55.5 C-205.42182575 54.64785276 -201.68248505 54.34984074 -197.5625 54.4375 C-196.44617188 54.45554688 -195.32984375 54.47359375 -194.1796875 54.4921875 C-192.94605469 54.52699219 -192.94605469 54.52699219 -191.6875 54.5625 C-191.6875 53.9025 -191.6875 53.2425 -191.6875 52.5625 C-186.72676578 51.23963754 -181.77638488 51.47356803 -176.6875 51.5625 C-176.6875 50.9025 -176.6875 50.2425 -176.6875 49.5625 C-172.3975 49.2325 -168.1075 48.9025 -163.6875 48.5625 C-163.6875 47.9025 -163.6875 47.2425 -163.6875 46.5625 C-158.7375 46.0675 -158.7375 46.0675 -153.6875 45.5625 C-153.6875 44.9025 -153.6875 44.2425 -153.6875 43.5625 C-148.7375 43.2325 -143.7875 42.9025 -138.6875 42.5625 C-138.6875 41.9025 -138.6875 41.2425 -138.6875 40.5625 C-131.20808632 38.62039567 -124.42902536 37.16886312 -116.6875 37.5625 C-116.6875 36.9025 -116.6875 36.2425 -116.6875 35.5625 C-113.7175 35.2325 -110.7475 34.9025 -107.6875 34.5625 C-107.6875 33.9025 -107.6875 33.2425 -107.6875 32.5625 C-103.3975 32.2325 -99.1075 31.9025 -94.6875 31.5625 C-94.6875 30.9025 -94.6875 30.2425 -94.6875 29.5625 C-93.68847656 29.51351562 -92.68945312 29.46453125 -91.66015625 29.4140625 C-90.36980469 29.33929688 -89.07945312 29.26453125 -87.75 29.1875 C-86.46222656 29.11789063 -85.17445313 29.04828125 -83.84765625 28.9765625 C-82.80480469 28.83992188 -81.76195312 28.70328125 -80.6875 28.5625 C-80.3575 27.9025 -80.0275 27.2425 -79.6875 26.5625 C-77.61328125 26 -77.61328125 26 -75 25.5625 C-71.99275075 25.02350511 -69.33555399 24.44067253 -66.4375 23.4375 C-63.39002404 22.46784856 -60.86595661 22.41114492 -57.6875 22.5625 C-57.6875 21.9025 -57.6875 21.2425 -57.6875 20.5625 C-52.2425 20.0675 -52.2425 20.0675 -46.6875 19.5625 C-46.6875 18.9025 -46.6875 18.2425 -46.6875 17.5625 C-43.3875 17.2325 -40.0875 16.9025 -36.6875 16.5625 C-36.6875 15.9025 -36.6875 15.2425 -36.6875 14.5625 C-34.0475 14.2325 -31.4075 13.9025 -28.6875 13.5625 C-28.6875 12.9025 -28.6875 12.2425 -28.6875 11.5625 C-25.2225 11.0675 -25.2225 11.0675 -21.6875 10.5625 C-21.6875 9.9025 -21.6875 9.2425 -21.6875 8.5625 C-20.0375 8.2325 -18.3875 7.9025 -16.6875 7.5625 C-16.6875 6.9025 -16.6875 6.2425 -16.6875 5.5625 C-14.7075 5.2325 -12.7275 4.9025 -10.6875 4.5625 C-10.6875 3.9025 -10.6875 3.2425 -10.6875 2.5625 C-9.6975 2.5625 -8.7075 2.5625 -7.6875 2.5625 C-7.6875 1.9025 -7.6875 1.2425 -7.6875 0.5625 C-4.59271121 -0.46909626 -3.16118607 -0.41232862 0 0 Z " fill="#000000" transform="translate(528.6875,70.4375)"/>
</svg>
