<?xml version="1.0" encoding="UTF-8"?>
<svg version="1.1" xmlns="http://www.w3.org/2000/svg" width="718" height="1096">
<path d="M0 0 C5.61 0 11.22 0 17 0 C17 0.66 17 1.32 17 2 C20.3 2.33 23.6 2.66 27 3 C27 3.66 27 4.32 27 5 C27.59167969 5.07476563 28.18335938 5.14953125 28.79296875 5.2265625 C35.1219292 6.27966848 37.27423335 7.84967552 41 13 C41.99 13.33 42.98 13.66 44 14 C45.1875 17.0625 45.1875 17.0625 46 20 C46.66 20 47.32 20 48 20 C48.33 21.65 48.66 23.3 49 25 C49.66 25 50.32 25 51 25 C52.29243536 29.1196377 53.26252625 32.66831683 53 37 C53.66 37 54.32 37 55 37 C55 43.93 55 50.86 55 58 C54.34 58 53.68 58 53 58 C52.9175 59.155 52.835 60.31 52.75 61.5 C52.18513317 66.22127498 50.33831147 69.9106739 48 74 C47.34 74 46.68 74 46 74 C45.855625 74.763125 45.71125 75.52625 45.5625 76.3125 C45 79 45 79 44 82 C43.34 82.33 42.68 82.66 42 83 C41.27306096 84.97888961 40.60183749 86.97954558 40 89 C39.34 89 38.68 89 38 89 C37.855625 89.763125 37.71125 90.52625 37.5625 91.3125 C37 94 37 94 36 97 C35.34 97.33 34.68 97.66 34 98 C33.67 98.99 33.34 99.98 33 101 C32 104 32 104 30 105 C29.67 105.99 29.34 106.98 29 108 C28.34 108 27.68 108 27 108 C26.855625 108.763125 26.71125 109.52625 26.5625 110.3125 C26 113 26 113 25 116 C24.34 116 23.68 116 23 116 C22.67 118.31 22.34 120.62 22 123 C22.99 123 23.98 123 25 123 C25 122.34 25 121.68 25 121 C35.43387625 119.32098543 45.445283 118.75034835 56 119 C56.33 118.34 56.66 117.68 57 117 C57 117.66 57 118.32 57 119 C57.66 119 58.32 119 59 119 C59 118.34 59 117.68 59 117 C59.66 117 60.32 117 61 117 C61 117.66 61 118.32 61 119 C63.31 119 65.62 119 68 119 C68 118.34 68 117.68 68 117 C69.49609375 115.5625 69.49609375 115.5625 71.4375 114 C74.15188238 111.85474956 74.15188238 111.85474956 76 109 C78.62581138 107.42451317 79.87099787 107 83 107 C83 106.34 83 105.68 83 105 C84.98 104.67 86.96 104.34 89 104 C89 103.34 89 102.68 89 102 C92.37097383 100.50178941 94.20442119 100 98 100 C98 99.34 98 98.68 98 98 C109.0747429 96.33059057 119.8047443 95.75060074 131 96 C131 95.34 131 94.68 131 94 C135.95 94 140.9 94 146 94 C146 94.66 146 95.32 146 96 C146.72703125 95.98839844 147.4540625 95.97679688 148.203125 95.96484375 C153.69096128 95.91559394 158.93116682 96.08938431 164.375 96.8125 C168.35327786 97.24684886 168.35327786 97.24684886 172.015625 95.953125 C173.82463777 94.44177486 173.82463777 94.44177486 176 92 C176.66 92 177.32 92 178 92 C178 91.34 178 90.68 178 90 C181.465 89.505 181.465 89.505 185 89 C185 88.34 185 87.68 185 87 C188.9517142 85.70167171 192.94513436 85.85606609 197.0546875 85.8671875 C197.83385529 85.86623077 198.61302307 85.86527405 199.415802 85.86428833 C201.06154461 85.86360898 202.70728992 85.86544619 204.35302734 85.86962891 C206.8591115 85.87496616 209.36501526 85.8696831 211.87109375 85.86328125 C213.47395873 85.86394236 215.07682359 85.86522419 216.6796875 85.8671875 C217.42362762 85.86516327 218.16756775 85.86313904 218.93405151 85.86105347 C223.0604607 85.8794411 226.95168797 86.1973518 231 87 C231 87.66 231 88.32 231 89 C234.3 89.33 237.6 89.66 241 90 C241 90.66 241 91.32 241 92 C241.763125 92.144375 242.52625 92.28875 243.3125 92.4375 C246 93 246 93 249 94 C249 94.66 249 95.32 249 96 C249.78375 96.144375 250.5675 96.28875 251.375 96.4375 C254 97 254 97 256 98 C256 98.66 256 99.32 256 100 C256.8971875 100.2165625 256.8971875 100.2165625 257.8125 100.4375 C259.56150404 100.8872439 261.28677023 101.42892341 263 102 C263.309375 102.804375 263.61875 103.60875 263.9375 104.4375 C264.76608159 107.14157493 264.76608159 107.14157493 267.125 108.3125 C267.74375 108.539375 268.3625 108.76625 269 109 C269 109.66 269 110.32 269 111 C269.70125 111.185625 270.4025 111.37125 271.125 111.5625 C274.54990127 113.27495063 276.20787901 115.31058833 278.57421875 118.2578125 C280.07294912 120.16392013 280.07294912 120.16392013 282.375 122.25 C284 124 284 124 284 127 C284.99 127.33 285.98 127.66 287 128 C287.6875 130.0625 287.6875 130.0625 288 132 C288.66 132 289.32 132 290 132 C290.33 133.32 290.66 134.64 291 136 C291.66 136 292.32 136 293 136 C293.66 138.31 294.32 140.62 295 143 C295.66 143 296.32 143 297 143 C297.66 145.64 298.32 148.28 299 151 C299.66 151 300.32 151 301 151 C303.29612756 160.41002278 303.29612756 160.41002278 303 165 C303.66 165 304.32 165 305 165 C306.15316726 171.34241995 306.09507063 177.56688704 306 184 C306.66 184 307.32 184 308 184 C308 191.59 308 199.18 308 207 C307.34 207 306.68 207 306 207 C306.01160156 207.67546875 306.02320313 208.3509375 306.03515625 209.046875 C306.04869141 210.38492188 306.04869141 210.38492188 306.0625 211.75 C306.07410156 212.63171875 306.08570313 213.5134375 306.09765625 214.421875 C306.00826198 216.7818838 305.66912821 218.74498524 305 221 C304.34 221 303.68 221 303 221 C302.67 223.31 302.34 225.62 302 228 C301.01 228.33 300.02 228.66 299 229 C298.835 229.66 298.67 230.32 298.5 231 C298.335 231.66 298.17 232.32 298 233 C297.01 233.33 296.02 233.66 295 234 C295 235.98 295 237.96 295 240 C295.66 240 296.32 240 297 240 C297.28875 240.639375 297.5775 241.27875 297.875 241.9375 C298.82823451 244.15206079 298.82823451 244.15206079 301 245 C302.57548683 247.62581138 303 248.87099787 303 252 C303.99 252.33 304.98 252.66 306 253 C306 253.99 306 254.98 306 256 C306.99 256.33 307.98 256.66 309 257 C309.12375 258.175625 309.12375 258.175625 309.25 259.375 C309.72806339 262.14749104 309.72806339 262.14749104 312.0625 263.3125 C313.0215625 263.6528125 313.0215625 263.6528125 314 264 C314 264.99 314 265.98 314 267 C314.99 267.33 315.98 267.66 317 268 C317.6875 270.0625 317.6875 270.0625 318 272 C318.66 272 319.32 272 320 272 C322 275 322 275 322 278 C322.99 278.33 323.98 278.66 325 279 C325 279.99 325 280.98 325 282 C325.99 282.33 326.98 282.66 328 283 C328.33 283.99 328.66 284.98 329 286 C329.66 286.33 330.32 286.66 331 287 C332.57548683 289.62581138 333 290.87099787 333 294 C333.66 294 334.32 294 335 294 C336.4606285 296.64738916 337 297.89448334 337 301 C337.66 301 338.32 301 339 301 C339.33 301.99 339.66 302.98 340 304 C340.66 304.33 341.32 304.66 342 305 C342.73075648 307.3140622 343.40138258 309.64828869 344 312 C344.66 312 345.32 312 346 312 C347.25664978 314.90600261 348 316.79604584 348 320 C348.66 320 349.32 320 350 320 C351.4606285 322.64738916 352 323.89448334 352 327 C352.66 327 353.32 327 354 327 C355.25664978 329.90600261 356 331.79604584 356 335 C356.99 335.33 357.98 335.66 359 336 C359 336.99 359 337.98 359 339 C359.66 339 360.32 339 361 339 C362.25664978 341.90600261 363 343.79604584 363 347 C363.66 347 364.32 347 365 347 C365.66 349.64 366.32 352.28 367 355 C367.66 355 368.32 355 369 355 C369.66 357.97 370.32 360.94 371 364 C371.66 364 372.32 364 373 364 C373.33 365.98 373.66 367.96 374 370 C374.66 370 375.32 370 376 370 C376.66 372.64 377.32 375.28 378 378 C378.66 378 379.32 378 380 378 C380.66 380.97 381.32 383.94 382 387 C382.66 387 383.32 387 384 387 C385.25664978 389.90600261 386 391.79604584 386 395 C386.66 395 387.32 395 388 395 C389.25664978 397.90600261 390 399.79604584 390 403 C390.66 403 391.32 403 392 403 C392.33 404.65 392.66 406.3 393 408 C393.66 408 394.32 408 395 408 C395.66 410.97 396.32 413.94 397 417 C397.66 417 398.32 417 399 417 C400.25664978 419.90600261 401 421.79604584 401 425 C401.66 425 402.32 425 403 425 C404.25664978 427.90600261 405 429.79604584 405 433 C405.66 433 406.32 433 407 433 C407.33 433.99 407.66 434.98 408 436 C408.66 436.33 409.32 436.66 410 437 C411.3749149 439.90259811 412 441.76138705 412 445 C412.66 445 413.32 445 414 445 C414.28875 445.969375 414.5775 446.93875 414.875 447.9375 C415.64214682 451.10664203 415.64214682 451.10664203 418 452 C419.3749149 454.90259811 420 456.76138705 420 460 C420.99 460.33 421.98 460.66 423 461 C423.33 462.98 423.66 464.96 424 467 C424.66 467 425.32 467 426 467 C426.33 468.65 426.66 470.3 427 472 C427.66 472 428.32 472 429 472 C430.4606285 474.64738916 431 475.89448334 431 479 C431.66 479 432.32 479 433 479 C433.66 481.64 434.32 484.28 435 487 C435.66 487 436.32 487 437 487 C438.31626692 490.61973402 439 493.09567131 439 497 C439.66 497 440.32 497 441 497 C441.33 499.31 441.66 501.62 442 504 C442.66 504 443.32 504 444 504 C445.5056904 509.80766296 446.21824777 514.9981863 446 521 C446.66 521 447.32 521 448 521 C448 525.95 448 530.9 448 536 C447.34 536 446.68 536 446 536 C446.061875 537.6396875 446.061875 537.6396875 446.125 539.3125 C446.14420838 544.66203382 445.07503069 549.77842235 444 555 C443.34 555 442.68 555 442 555 C441.67 556.98 441.34 558.96 441 561 C440.34 561 439.68 561 439 561 C438.93941406 562.01320313 438.87882813 563.02640625 438.81640625 564.0703125 C438.73193296 565.42188514 438.64728843 566.77344709 438.5625 568.125 C438.50352539 569.12273437 438.50352539 569.12273437 438.44335938 570.140625 C438.187848 574.15018817 437.73217587 578.04994196 437 582 C436.34 582 435.68 582 435 582 C435.061875 583.423125 435.061875 583.423125 435.125 584.875 C435.14484508 589.70727658 434.05774196 594.30627004 433 599 C432.34 599 431.68 599 431 599 C430.93941406 599.7734375 430.87882813 600.546875 430.81640625 601.34375 C430.34107401 607.25249543 429.79085443 613.12508141 429 619 C428.34 619 427.68 619 427 619 C426.67 624.94 426.34 630.88 426 637 C425.34 637 424.68 637 424 637 C423.93941406 637.89203125 423.87882813 638.7840625 423.81640625 639.703125 C423.73261719 640.87359375 423.64882813 642.0440625 423.5625 643.25 C423.48128906 644.41015625 423.40007813 645.5703125 423.31640625 646.765625 C423.06752213 649.30977376 422.71885058 651.55953248 422 654 C421.34 654 420.68 654 420 654 C419.93941406 654.66386719 419.87882813 655.32773437 419.81640625 656.01171875 C418.98418278 664.78207381 418.98418278 664.78207381 418 669 C417.34 669 416.68 669 416 669 C415.93941406 669.60328125 415.87882813 670.2065625 415.81640625 670.828125 C415.73261719 671.62734375 415.64882813 672.4265625 415.5625 673.25 C415.48128906 674.03890625 415.40007813 674.8278125 415.31640625 675.640625 C415.02048007 677.84728444 414.70573121 679.88748009 414 682 C413.34 682.33 412.68 682.66 412 683 C411.690625 683.61875 411.38125 684.2375 411.0625 684.875 C409.90683743 687.18632514 409.06839717 688.44870212 407 690 C403.8125 690.6875 403.8125 690.6875 401 691 C401 691.66 401 692.32 401 693 C393.08 693 385.16 693 377 693 C377 692.34 377 691.68 377 691 C376.23816406 691.01160156 375.47632813 691.02320313 374.69140625 691.03515625 C368.36159678 691.09047294 362.27444451 690.8365926 356 690 C356 689.34 356 688.68 356 688 C355.21496094 687.93941406 354.42992187 687.87882813 353.62109375 687.81640625 C348.04638852 687.37179786 342.52359384 686.87875357 337 686 C337 685.34 337 684.68 337 684 C336.21496094 683.93941406 335.42992187 683.87882813 334.62109375 683.81640625 C329.04638852 683.37179786 323.52359384 682.87875357 318 682 C318 681.34 318 680.68 318 680 C316.9378125 679.93941406 315.875625 679.87882813 314.78125 679.81640625 C300.84328379 678.99797889 300.84328379 678.99797889 294 678 C294 677.34 294 676.68 294 676 C293.20335937 675.93941406 292.40671875 675.87882813 291.5859375 675.81640625 C281.06151142 674.98418278 281.06151142 674.98418278 276 674 C276 673.34 276 672.68 276 672 C273.36 671.67 270.72 671.34 268 671 C268 670.34 268 669.68 268 669 C266.7625 668.855625 265.525 668.71125 264.25 668.5625 C261.43495501 668.21311498 258.7298503 667.79620634 256 667 C256 666.34 256 665.68 256 665 C254.7625 664.855625 253.525 664.71125 252.25 664.5625 C249.43495501 664.21311498 246.7298503 663.79620634 244 663 C244 662.34 244 661.68 244 661 C243.37351562 660.93941406 242.74703125 660.87882813 242.1015625 660.81640625 C241.28429687 660.73261719 240.46703125 660.64882813 239.625 660.5625 C238.81289063 660.48128906 238.00078125 660.40007813 237.1640625 660.31640625 C235 660 235 660 233 659 C233 658.34 233 657.68 233 657 C230.69 656.67 228.38 656.34 226 656 C226 655.34 226 654.68 226 654 C224.9275 653.855625 223.855 653.71125 222.75 653.5625 C220.08337051 653.16250558 217.58600271 652.72408076 215 652 C215 651.34 215 650.68 215 650 C212.03 649.34 209.06 648.68 206 648 C206 647.34 206 646.68 206 646 C202.32478571 645.41703497 198.72597377 644.94560622 195 645 C192.89586384 646.85410577 192.89586384 646.85410577 191 649 C187.6814312 649.66688942 184.37849736 649.87104972 181 650 C181 650.66 181 651.32 181 652 C178.64655194 652.33923576 176.2924516 652.67150534 173.9375 653 C173.28072266 653.09539063 172.62394531 653.19078125 171.94726562 653.2890625 C167.59861237 653.88887674 163.38670929 654.09127093 159 654 C159 654.66 159 655.32 159 656 C151.42270891 657.21159731 143.91014305 657.14761853 136.25 657.125 C134.30867187 657.13080078 134.30867187 657.13080078 132.328125 657.13671875 C124.50077583 657.12882828 116.78708302 656.79909524 109 656 C109 655.34 109 654.68 109 654 C107.453125 654.061875 107.453125 654.061875 105.875 654.125 C99.51839052 654.14794805 93.2630897 652.98520512 87 652 C87 651.34 87 650.68 87 650 C86.39671875 649.93941406 85.7934375 649.87882813 85.171875 649.81640625 C84.37265625 649.73261719 83.5734375 649.64882813 82.75 649.5625 C81.96109375 649.48128906 81.1721875 649.40007813 80.359375 649.31640625 C78.17635361 649.02365007 76.1226818 648.57935581 74 648 C74 647.34 74 646.68 74 646 C72.02 646 70.04 646 68 646 C68.00580078 647.04849121 68.01160156 648.09698242 68.01757812 649.17724609 C68.06301883 661.33385787 67.82148758 673.47320099 67.5 685.625 C67.451614 687.51822384 67.40343591 689.411453 67.35546875 691.3046875 C67.23936407 695.86985631 67.12048721 700.43494484 67 705 C66.34 705 65.68 705 65 705 C65.01160156 705.71438232 65.02320313 706.42876465 65.03515625 707.16479492 C65.12324996 717.24287312 64.57989818 727.25476924 64 737.3125 C63.90331544 739.03578879 63.80695907 740.75909602 63.7109375 742.48242188 C63.47773351 746.65516979 63.2401172 750.82764443 63 755 C62.34 755 61.68 755 61 755 C61.01160156 755.64582031 61.02320313 756.29164063 61.03515625 756.95703125 C61.08621606 762.28913444 60.99095601 767.57852014 60.64511108 772.90080261 C59.83241439 785.70204889 59.84849794 798.50007931 59.86962891 811.32250977 C59.87496681 815.16361481 59.86966386 819.00460171 59.86328125 822.84570312 C59.86016688 835.56102719 60.04725863 848.23511135 60.64387512 860.93693542 C60.99654446 868.46612541 61.1232947 875.96145731 61.0625 883.5 C61.05573242 885.19769531 61.05573242 885.19769531 61.04882812 886.9296875 C61.03742909 889.61985891 61.0212825 892.30989212 61 895 C61.66 895 62.32 895 63 895 C63 910.84 63 926.68 63 943 C62.34 943 61.68 943 61 943 C61.33 965.77 61.66 988.54 62 1012 C62.33 1012 62.66 1012 63 1012 C63 1015.63 63 1019.26 63 1023 C62.34 1023 61.68 1023 61 1023 C61.04125 1024.175625 61.0825 1025.35125 61.125 1026.5625 C61.11649573 1031.35890899 60.67314231 1036.05915492 57.4375 1039.8125 C56.963125 1040.204375 56.48875 1040.59625 56 1041 C55.67 1041.66 55.34 1042.32 55 1043 C54.34 1043 53.68 1043 53 1043 C52.34 1044.32 51.68 1045.64 51 1047 C50.34 1047 49.68 1047 49 1047 C48.67 1047.99 48.34 1048.98 48 1050 C47.34 1050 46.68 1050 46 1050 C46 1050.66 46 1051.32 46 1052 C45.360625 1052.28875 44.72125 1052.5775 44.0625 1052.875 C41.84793921 1053.82823451 41.84793921 1053.82823451 41 1056 C39.35666496 1057.03789581 37.68756133 1058.03567924 36 1059 C35.01 1059.66 34.02 1060.32 33 1061 C32.01 1061.33 31.02 1061.66 30 1062 C29.67 1062.66 29.34 1063.32 29 1064 C27.15234375 1064.6328125 27.15234375 1064.6328125 24.9375 1065.125 C24.20402344 1065.29257813 23.47054688 1065.46015625 22.71484375 1065.6328125 C22.14894531 1065.75398438 21.58304687 1065.87515625 21 1066 C21 1066.66 21 1067.32 21 1068 C19.02 1068.33 17.04 1068.66 15 1069 C15 1069.66 15 1070.32 15 1071 C12.09399739 1072.25664978 10.20395416 1073 7 1073 C7 1073.66 7 1074.32 7 1075 C2.73383684 1076.13764351 -0.56486311 1077 -5 1077 C-5 1077.66 -5 1078.32 -5 1079 C-9.84241633 1080.33583899 -13.93437617 1081.25328119 -19 1081 C-19 1081.66 -19 1082.32 -19 1083 C-23.0527516 1083.98248524 -26.83861737 1084.08159574 -31 1084 C-31 1084.66 -31 1085.32 -31 1086 C-37.3778552 1087.17293889 -43.50321562 1088.29530838 -50 1088 C-50 1088.66 -50 1089.32 -50 1090 C-65.74487472 1092.29612756 -65.74487472 1092.29612756 -73 1092 C-73 1092.66 -73 1093.32 -73 1094 C-103.29648856 1097.66437011 -133.64908651 1096.08437324 -164 1094 C-164 1093.34 -164 1092.68 -164 1092 C-164.57363281 1092.02320313 -165.14726562 1092.04640625 -165.73828125 1092.0703125 C-175.23967703 1092.27216309 -184.5790537 1091.09341553 -194 1090 C-194 1089.34 -194 1088.68 -194 1088 C-195.12148437 1087.90912109 -195.12148437 1087.90912109 -196.265625 1087.81640625 C-197.25046875 1087.73261719 -198.2353125 1087.64882812 -199.25 1087.5625 C-200.22453125 1087.48128906 -201.1990625 1087.40007812 -202.203125 1087.31640625 C-204.56461753 1087.04925416 -206.71901065 1086.64628032 -209 1086 C-209 1085.34 -209 1084.68 -209 1084 C-211.64 1083.67 -214.28 1083.34 -217 1083 C-217 1082.34 -217 1081.68 -217 1081 C-220.63 1080.34 -224.26 1079.68 -228 1079 C-228 1078.34 -228 1077.68 -228 1077 C-229.5778125 1077.061875 -229.5778125 1077.061875 -231.1875 1077.125 C-234.74010173 1077.00852125 -236.84866641 1076.52791932 -240 1075 C-240 1074.34 -240 1073.68 -240 1073 C-241.65 1072.67 -243.3 1072.34 -245 1072 C-245.33 1071.01 -245.66 1070.02 -246 1069 C-246.5775 1068.896875 -247.155 1068.79375 -247.75 1068.6875 C-251.27952271 1067.60903473 -252.75266739 1064.82357174 -255 1062 C-255.99 1061.34 -256.98 1060.68 -258 1060 C-258.6875 1056.375 -258.6875 1056.375 -259 1053 C-259.66 1053 -260.32 1053 -261 1053 C-262.14604916 1046.51115938 -262.22039857 1040.081864 -262.31640625 1033.50390625 C-262.3475779 1031.72088356 -262.3475779 1031.72088356 -262.37937927 1029.90184021 C-262.44451987 1026.12211632 -262.50359425 1022.34232569 -262.5625 1018.5625 C-262.60571899 1015.99283177 -262.64933434 1013.42317017 -262.69335938 1010.85351562 C-262.80016473 1004.56908001 -262.90199571 998.2845787 -263 992 C-263.33 992 -263.66 992 -264 992 C-264.2912497 985.40643702 -264.57516661 978.81258462 -264.85449219 972.21850586 C-264.94989414 969.98536387 -265.04684459 967.75228738 -265.14550781 965.51928711 C-265.78563412 951.00213692 -266.13858699 936.53142387 -266 922 C-266.66 922 -267.32 922 -268 922 C-269.75379643 885.54342311 -270.10007565 849.06080854 -270.12293625 812.56833649 C-270.12495687 810.05367182 -270.12869964 807.539015 -270.13284302 805.02435303 C-270.17884847 772.99896595 -269.60452984 740.9881801 -268 709 C-267.34 709 -266.68 709 -266 709 C-266.02320313 708.19304688 -266.04640625 707.38609375 -266.0703125 706.5546875 C-266.28666318 691.99737741 -265.06545115 677.50827097 -264 663 C-263.34 663 -262.68 663 -262 663 C-262.01160156 662.15179687 -262.02320313 661.30359375 -262.03515625 660.4296875 C-262.10087875 651.88576189 -261.72474688 643.51577586 -261 635 C-260.34 635 -259.68 635 -259 635 C-259.01160156 634.28166992 -259.02320313 633.56333984 -259.03515625 632.82324219 C-259.10365191 625.24223994 -258.68945791 617.79676899 -258 610.25 C-257.85691406 608.61417969 -257.85691406 608.61417969 -257.7109375 606.9453125 C-257.47857932 604.29642926 -257.24155018 601.64805804 -257 599 C-256.34 599 -255.68 599 -255 599 C-255.04125 597.741875 -255.0825 596.48375 -255.125 595.1875 C-255.14940937 586.75406171 -253.96200667 578.36602227 -253 570 C-252.34 570 -251.68 570 -251 570 C-250.93941406 568.92621094 -250.87882812 567.85242188 -250.81640625 566.74609375 C-250.73192349 565.30988685 -250.64727946 563.87368942 -250.5625 562.4375 C-250.52318359 561.73302734 -250.48386719 561.02855469 -250.44335938 560.30273438 C-250.17481721 555.8201459 -249.69383803 551.43706503 -249 547 C-248.34 547 -247.68 547 -247 547 C-246.93941406 545.92621094 -246.87882812 544.85242188 -246.81640625 543.74609375 C-246.73192349 542.30988685 -246.64727946 540.87368942 -246.5625 539.4375 C-246.52318359 538.73302734 -246.48386719 538.02855469 -246.44335938 537.30273438 C-246.17481721 532.8201459 -245.69383803 528.43706503 -245 524 C-244.34 524 -243.68 524 -243 524 C-242.67 519.38 -242.34 514.76 -242 510 C-241.34 510 -240.68 510 -240 510 C-239.90912109 508.71416016 -239.90912109 508.71416016 -239.81640625 507.40234375 C-239.38856464 501.56395127 -238.940837 495.77942728 -238 490 C-237.34 490 -236.68 490 -236 490 C-235.93941406 488.97519531 -235.87882812 487.95039063 -235.81640625 486.89453125 C-235.73194974 485.53384305 -235.64730433 484.17316657 -235.5625 482.8125 C-235.52318359 482.13896484 -235.48386719 481.46542969 -235.44335938 480.77148438 C-235.21072435 477.10300898 -234.82792989 473.58305794 -234 470 C-233.34 470 -232.68 470 -232 470 C-231.93941406 469.04738281 -231.87882812 468.09476562 -231.81640625 467.11328125 C-231.73261719 465.85902344 -231.64882812 464.60476563 -231.5625 463.3125 C-231.48128906 462.07113281 -231.40007812 460.82976562 -231.31640625 459.55078125 C-231.05508683 456.61819663 -230.65201621 453.86558383 -230 451 C-229.34 451 -228.68 451 -228 451 C-227.67 446.71 -227.34 442.42 -227 438 C-226.34 438 -225.68 438 -225 438 C-224.90912109 436.69675781 -224.90912109 436.69675781 -224.81640625 435.3671875 C-224.73261719 434.21476562 -224.64882812 433.06234375 -224.5625 431.875 C-224.48128906 430.73804688 -224.40007812 429.60109375 -224.31640625 428.4296875 C-224.02269035 425.2459522 -223.56875687 422.14489093 -223 419 C-222.34 419 -221.68 419 -221 419 C-220.93941406 418.26394531 -220.87882812 417.52789062 -220.81640625 416.76953125 C-220.73261719 415.79371094 -220.64882812 414.81789063 -220.5625 413.8125 C-220.48128906 412.84957031 -220.40007812 411.88664062 -220.31640625 410.89453125 C-220.02333849 408.21350398 -219.57296246 405.6337014 -219 403 C-218.34 403 -217.68 403 -217 403 C-216.93941406 402.25234375 -216.87882812 401.5046875 -216.81640625 400.734375 C-216.73261719 399.74953125 -216.64882812 398.7646875 -216.5625 397.75 C-216.48128906 396.77546875 -216.40007812 395.8009375 -216.31640625 394.796875 C-216.04925416 392.43538247 -215.64628032 390.28098935 -215 388 C-214.34 388 -213.68 388 -213 388 C-212.90912109 386.98679687 -212.90912109 386.98679687 -212.81640625 385.953125 C-212.73261719 385.06109375 -212.64882812 384.1690625 -212.5625 383.25 C-212.48128906 382.36828125 -212.40007812 381.4865625 -212.31640625 380.578125 C-212.03761535 378.30649548 -211.61209423 376.20148177 -211 374 C-210.34 374 -209.68 374 -209 374 C-208.67 371.03 -208.34 368.06 -208 365 C-207.34 365 -206.68 365 -206 365 C-205.855625 363.9275 -205.71125 362.855 -205.5625 361.75 C-205.16250558 359.08337051 -204.72408076 356.58600271 -204 354 C-203.34 354 -202.68 354 -202 354 C-201.855625 352.741875 -201.71125 351.48375 -201.5625 350.1875 C-201.26251314 347.57332877 -200.84186703 345.52560108 -200 343 C-199.34 343 -198.68 343 -198 343 C-197.7834375 341.329375 -197.7834375 341.329375 -197.5625 339.625 C-197 336 -197 336 -196 334 C-195.34 334 -194.68 334 -194 334 C-193.67 331.69 -193.34 329.38 -193 327 C-192.34 327 -191.68 327 -191 327 C-190.34 323.7 -189.68 320.4 -189 317 C-188.34 317 -187.68 317 -187 317 C-186.93941406 316.41992188 -186.87882812 315.83984375 -186.81640625 315.2421875 C-186.33983439 310.79907137 -185.78991334 306.40094577 -185 302 C-184.34 302 -183.68 302 -183 302 C-182.93941406 301.13117188 -182.87882812 300.26234375 -182.81640625 299.3671875 C-182.69072266 297.63855469 -182.69072266 297.63855469 -182.5625 295.875 C-182.44068359 294.16957031 -182.44068359 294.16957031 -182.31640625 292.4296875 C-182.02269035 289.2459522 -181.56875687 286.14489093 -181 283 C-180.34 283 -179.68 283 -179 283 C-178.93941406 282.16597656 -178.87882812 281.33195312 -178.81640625 280.47265625 C-178.33171913 273.96293534 -177.76908647 267.48230025 -177 261 C-176.67 261 -176.34 261 -176 261 C-175.34 256.71 -174.68 252.42 -174 248 C-173.34 248 -172.68 248 -172 248 C-171.93941406 247.32453125 -171.87882812 246.6490625 -171.81640625 245.953125 C-171.69072266 244.61507812 -171.69072266 244.61507812 -171.5625 243.25 C-171.44068359 241.92742187 -171.44068359 241.92742187 -171.31640625 240.578125 C-171.03761535 238.30649548 -170.61209423 236.20148177 -170 234 C-169.34 234 -168.68 234 -168 234 C-167.855625 232.7625 -167.71125 231.525 -167.5625 230.25 C-167.21311498 227.43495501 -166.79620634 224.7298503 -166 222 C-165.34 222 -164.68 222 -164 222 C-163.34 219.03 -162.68 216.06 -162 213 C-161.34 213 -160.68 213 -160 213 C-159.67 210.69 -159.34 208.38 -159 206 C-158.34 206 -157.68 206 -157 206 C-156.34 202.7 -155.68 199.4 -155 196 C-154.34 196 -153.68 196 -153 196 C-152.7834375 194.39125 -152.7834375 194.39125 -152.5625 192.75 C-152.16250558 190.08337051 -151.72408076 187.58600271 -151 185 C-150.34 185 -149.68 185 -149 185 C-148.34 181.7 -147.68 178.4 -147 175 C-146.34 175 -145.68 175 -145 175 C-144.34 171.37 -143.68 167.74 -143 164 C-142.34 164 -141.68 164 -141 164 C-140.67 161.03 -140.34 158.06 -140 155 C-139.34 155 -138.68 155 -138 155 C-137.34 151.7 -136.68 148.4 -136 145 C-135.34 145 -134.68 145 -134 145 C-133.34 141.7 -132.68 138.4 -132 135 C-131.34 135 -130.68 135 -130 135 C-129.855625 134.236875 -129.71125 133.47375 -129.5625 132.6875 C-129 130 -129 130 -128 127 C-127.34 127 -126.68 127 -126 127 C-125.34 123.7 -124.68 120.4 -124 117 C-123.34 117 -122.68 117 -122 117 C-121.67 115.35 -121.34 113.7 -121 112 C-120.34 112 -119.68 112 -119 112 C-118.855625 111.21625 -118.71125 110.4325 -118.5625 109.625 C-118 107 -118 107 -117 105 C-116.34 105 -115.68 105 -115 105 C-114.855625 104.236875 -114.71125 103.47375 -114.5625 102.6875 C-114 100 -114 100 -113 97 C-112.34 97 -111.68 97 -111 97 C-110.7834375 96.1028125 -110.7834375 96.1028125 -110.5625 95.1875 C-110.1127561 93.43849596 -109.57107659 91.71322977 -109 90 C-108.34 89.67 -107.68 89.34 -107 89 C-106.67 88.01 -106.34 87.02 -106 86 C-105.34 85.67 -104.68 85.34 -104 85 C-102.86649466 82.98330173 -102.86649466 82.98330173 -102 81 C-101.34 81 -100.68 81 -100 81 C-99.855625 80.38125 -99.71125 79.7625 -99.5625 79.125 C-99 77 -99 77 -98 75 C-97.34 75 -96.68 75 -96 75 C-95.34 73.35 -94.68 71.7 -94 70 C-93.34 70 -92.68 70 -92 70 C-91.01 68.02 -91.01 68.02 -90 66 C-89.34 66 -88.68 66 -88 66 C-87.67 64.68 -87.34 63.36 -87 62 C-86.34 62 -85.68 62 -85 62 C-84.34 60.68 -83.68 59.36 -83 58 C-82.34 58 -81.68 58 -81 58 C-80.814375 57.29875 -80.62875 56.5975 -80.4375 55.875 C-78.47932486 51.95864972 -75.59323769 49.4661136 -72 47 C-71.34 47 -70.68 47 -70 47 C-69.34 45.68 -68.68 44.36 -68 43 C-67.34 43 -66.68 43 -66 43 C-65.79375 42.113125 -65.5875 41.22625 -65.375 40.3125 C-63.67106684 36.20757011 -61.50675505 34.66513384 -58 32 C-57.278125 31.236875 -56.55625 30.47375 -55.8125 29.6875 C-54 28 -54 28 -51 28 C-50.34 26.68 -49.68 25.36 -49 24 C-48.34 24 -47.68 24 -47 24 C-46.34 22.68 -45.68 21.36 -45 20 C-44.01 20 -43.02 20 -42 20 C-41.67 19.01 -41.34 18.02 -41 17 C-40.34 17 -39.68 17 -39 17 C-39 16.34 -39 15.68 -39 15 C-36.35261084 13.5393715 -35.10551666 13 -32 13 C-32 12.34 -32 11.68 -32 11 C-29.09399739 9.74335022 -27.20395416 9 -24 9 C-24 8.34 -24 7.68 -24 7 C-20.12315913 5.80712589 -17.08378077 5 -13 5 C-13 4.34 -13 3.68 -13 3 C-8.59085217 1.89771304 -4.51617599 1.92345464 0 2 C0 1.34 0 0.68 0 0 Z M3 26 C3 26.66 3 27.32 3 28 C2.01 27.95875 1.02 27.9175 0 27.875 C-4.23835866 27.8576652 -7.93193985 28.85808838 -12 30 C-12 30.66 -12 31.32 -12 32 C-14.31 32.33 -16.62 32.66 -19 33 C-19.33 33.99 -19.66 34.98 -20 36 C-22.0625 36.6875 -22.0625 36.6875 -24 37 C-24 37.66 -24 38.32 -24 39 C-24.598125 39.103125 -25.19625 39.20625 -25.8125 39.3125 C-28.33391022 40.10494321 -29.19465768 41.11943508 -31 43 C-31.9590625 43.4640625 -31.9590625 43.4640625 -32.9375 43.9375 C-35.4839149 45.24928949 -37.12072327 46.85225516 -39 49 C-39 49.66 -39 50.32 -39 51 C-40.32 51.66 -41.64 52.32 -43 53 C-43 53.66 -43 54.32 -43 55 C-43.99 55.33 -44.98 55.66 -46 56 C-47.69088222 57.97956942 -49.35830472 59.97945196 -51 62 C-51.99 62.495 -51.99 62.495 -53 63 C-53.33 63.99 -53.66 64.98 -54 66 C-55.42725877 67.19491432 -56.85845698 68.38569966 -58.31640625 69.54296875 C-60.69055591 71.59762727 -62.61631954 73.94539028 -64.609375 76.36328125 C-66 78 -66 78 -68.375 80.25 C-70.34022555 81.96837647 -70.34022555 81.96837647 -70 85 C-70.78375 85.268125 -71.5675 85.53625 -72.375 85.8125 C-75.28114923 86.84814432 -75.28114923 86.84814432 -77 90 C-77 90.99 -77 91.98 -77 93 C-77.99 93.33 -78.98 93.66 -80 94 C-80.73323796 96.01508358 -80.73323796 96.01508358 -81 98 C-81.66 98 -82.32 98 -83 98 C-83.66 99.98 -84.32 101.96 -85 104 C-85.66 104 -86.32 104 -87 104 C-87.33 104.99 -87.66 105.98 -88 107 C-88.99 107.495 -88.99 107.495 -90 108 C-91.3749149 110.90259811 -92 112.76138705 -92 116 C-92.66 116 -93.32 116 -94 116 C-95.4606285 118.64738916 -96 119.89448334 -96 123 C-96.66 123 -97.32 123 -98 123 C-99.25664978 125.90600261 -100 127.79604584 -100 131 C-100.66 131 -101.32 131 -102 131 C-102.66 134.3 -103.32 137.6 -104 141 C-104.66 141 -105.32 141 -106 141 C-106.33 142.65 -106.66 144.3 -107 146 C-107.66 146 -108.32 146 -109 146 C-109.66 148.97 -110.32 151.94 -111 155 C-111.66 155 -112.32 155 -113 155 C-113.66 158.63 -114.32 162.26 -115 166 C-115.66 166 -116.32 166 -117 166 C-117.33872513 167.41538717 -117.67074624 168.83237963 -118 170.25 C-118.2784375 171.43335938 -118.2784375 171.43335938 -118.5625 172.640625 C-119.12154828 175.25556002 -119.12154828 175.25556002 -119 179 C-119.66 179 -120.32 179 -121 179 C-121.495 181.97 -121.495 181.97 -122 185 C-122.66 185 -123.32 185 -124 185 C-124.66 188.63 -125.32 192.26 -126 196 C-126.66 196 -127.32 196 -128 196 C-129.19287411 199.87684087 -130 202.91621923 -130 207 C-130.66 207 -131.32 207 -132 207 C-133.31626692 210.61973402 -134 213.09567131 -134 217 C-134.66 217 -135.32 217 -136 217 C-136.66 219.97 -137.32 222.94 -138 226 C-138.66 226 -139.32 226 -140 226 C-140.33 228.31 -140.66 230.62 -141 233 C-141.66 233 -142.32 233 -143 233 C-143.33 234.2375 -143.66 235.475 -144 236.75 C-144.185625 237.44609375 -144.37125 238.1421875 -144.5625 238.859375 C-145.13349349 241.28901861 -145.13349349 241.28901861 -145 245 C-145.66 245 -146.32 245 -147 245 C-148.2982126 250.76081841 -149.25706972 256.08739655 -149 262 C-149.66 262 -150.32 262 -151 262 C-151.33885038 264.52019972 -151.67120335 267.04098516 -152 269.5625 C-152.09539062 270.26697266 -152.19078125 270.97144531 -152.2890625 271.69726562 C-152.86666417 276.17367855 -153.09489383 280.48661238 -153 285 C-153.66 285 -154.32 285 -155 285 C-156.17293889 291.3778552 -157.29530838 297.50321562 -157 304 C-157.66 304 -158.32 304 -159 304 C-159.98248524 308.0527516 -160.08159574 311.83861737 -160 316 C-160.66 316 -161.32 316 -162 316 C-162.33 317.2375 -162.66 318.475 -163 319.75 C-163.2784375 320.79414062 -163.2784375 320.79414062 -163.5625 321.859375 C-164.13349349 324.28901861 -164.13349349 324.28901861 -164 328 C-164.66 328 -165.32 328 -166 328 C-167.31626692 331.61973402 -168 334.09567131 -168 338 C-168.66 338 -169.32 338 -170 338 C-171.49821059 341.37097383 -172 343.20442119 -172 347 C-172.66 347 -173.32 347 -174 347 C-174.33 349.31 -174.66 351.62 -175 354 C-175.66 354 -176.32 354 -177 354 C-178.19287411 357.87684087 -179 360.91621923 -179 365 C-179.66 365 -180.32 365 -181 365 C-181.33 366.2375 -181.66 367.475 -182 368.75 C-182.2784375 369.79414062 -182.2784375 369.79414062 -182.5625 370.859375 C-183.13349349 373.28901861 -183.13349349 373.28901861 -183 377 C-183.66 377 -184.32 377 -185 377 C-185.33 378.2375 -185.66 379.475 -186 380.75 C-186.2784375 381.79414062 -186.2784375 381.79414062 -186.5625 382.859375 C-187.13349349 385.28901861 -187.13349349 385.28901861 -187 389 C-187.66 389 -188.32 389 -189 389 C-189.33951619 390.56116819 -189.67132544 392.12401338 -190 393.6875 C-190.2784375 394.99267578 -190.2784375 394.99267578 -190.5625 396.32421875 C-190.98972047 398.93712964 -191.07616201 401.35813038 -191 404 C-191.66 404 -192.32 404 -193 404 C-193.33 407.63 -193.66 411.26 -194 415 C-194.66 415 -195.32 415 -196 415 C-196.3396019 416.87387477 -196.67138691 418.74916697 -197 420.625 C-197.185625 421.66914063 -197.37125 422.71328125 -197.5625 423.7890625 C-197.98715797 426.90574865 -198.07545206 429.85930812 -198 433 C-198.66 433 -199.32 433 -200 433 C-201.17293889 439.3778552 -202.29530838 445.50321562 -202 452 C-202.66 452 -203.32 452 -204 452 C-204.3396019 453.87387477 -204.67138691 455.74916697 -205 457.625 C-205.185625 458.66914063 -205.37125 459.71328125 -205.5625 460.7890625 C-205.98715797 463.90574865 -206.07545206 466.85930812 -206 470 C-206.66 470 -207.32 470 -208 470 C-208.33 474.29 -208.66 478.58 -209 483 C-209.66 483 -210.32 483 -211 483 C-211.33965474 485.18652739 -211.67142477 487.37428025 -212 489.5625 C-212.185625 490.78066406 -212.37125 491.99882812 -212.5625 493.25390625 C-212.98555077 496.87627848 -213.07501425 500.35712046 -213 504 C-213.66 504 -214.32 504 -215 504 C-216.20443195 511.05453001 -217.28100502 517.83437211 -217 525 C-217.66 525 -218.32 525 -219 525 C-220.72904618 535.94930894 -220.72904618 535.94930894 -221 547 C-221.66 547 -222.32 547 -223 547 C-224.71793968 558.4477907 -224.71793968 558.4477907 -225 570 C-225.66 570 -226.32 570 -227 570 C-227.89604368 576.04829486 -228.11269443 581.8894576 -228 588 C-228.66 588 -229.32 588 -230 588 C-231.23223906 599.03514084 -232.36520833 609.88143519 -232 621 C-232.66 621 -233.32 621 -234 621 C-235.78923788 639.96627501 -235.78923788 639.96627501 -236 659 C-236.66 659 -237.32 659 -238 659 C-239.23346838 674.34946421 -240.36678101 689.59519765 -240 705 C-240.66 705 -241.32 705 -242 705 C-243.00090639 720.67490901 -243.11531128 736.29637821 -243 752 C-243.66 752 -244.32 752 -245 752 C-245.02332916 768.01993537 -245.04097926 784.03986526 -245.05181217 800.0598135 C-245.05697509 807.4976451 -245.06401771 814.93546617 -245.07543945 822.37329102 C-245.08538641 828.85381342 -245.09185346 835.33432819 -245.09408849 841.81485802 C-245.09539558 845.24830542 -245.0984813 848.681731 -245.10573006 852.11517143 C-245.11374416 855.94193821 -245.11399113 859.76868335 -245.11352539 863.59545898 C-245.11712067 864.74200455 -245.12071594 865.88855011 -245.12442017 867.06983948 C-245.1230455 868.10615509 -245.12167084 869.1424707 -245.12025452 870.21018982 C-245.12117631 871.11631232 -245.1220981 872.02243483 -245.12304783 872.95601559 C-245.22715834 874.99395435 -245.22715834 874.99395435 -244 876 C-243.84768421 877.65554716 -243.76179912 879.31726491 -243.70288086 880.97875977 C-243.66291489 882.03978409 -243.62294891 883.10080841 -243.58177185 884.19398499 C-243.54318558 885.348134 -243.5045993 886.50228302 -243.46484375 887.69140625 C-243.42186661 888.86638168 -243.37888947 890.04135712 -243.33460999 891.25193787 C-243.19775061 895.02197932 -243.06755927 898.79221841 -242.9375 902.5625 C-242.84614069 905.11134385 -242.7543496 907.66017226 -242.66210938 910.20898438 C-242.43638708 916.47248541 -242.21614563 922.73616157 -242 929 C-241.34 929 -240.68 929 -240 929 C-240.01740234 930.92585937 -240.01740234 930.92585937 -240.03515625 932.890625 C-240.04455865 934.67708184 -240.05365614 936.46354031 -240.0625 938.25 C-240.07087891 939.08402344 -240.07925781 939.91804687 -240.08789062 940.77734375 C-240.11008472 946.85852666 -239.86623873 952.8994177 -239.53125 958.96875 C-238.82140237 972.05419966 -238.65102996 985.1488476 -238.4375 998.25 C-238.3941777 1000.76042182 -238.35055976 1003.27083855 -238.30664062 1005.78125 C-238.20102807 1011.85411244 -238.09902954 1017.92702682 -238 1024 C-237.34 1024 -236.68 1024 -236 1024 C-236.05800781 1025.24136719 -236.11601562 1026.48273437 -236.17578125 1027.76171875 C-236.22269238 1029.40360814 -236.26819109 1031.04553832 -236.3125 1032.6875 C-236.3753418 1033.91243164 -236.3753418 1033.91243164 -236.43945312 1035.16210938 C-236.52938766 1039.60487531 -236.43596791 1041.42382131 -233.66796875 1045.08203125 C-231.14165662 1047.29185477 -231.14165662 1047.29185477 -228 1047 C-227.67 1047.99 -227.34 1048.98 -227 1050 C-226.01 1050 -225.02 1050 -224 1050 C-223.67 1050.99 -223.34 1051.98 -223 1053 C-220.69 1053.33 -218.38 1053.66 -216 1054 C-216 1054.66 -216 1055.32 -216 1056 C-214.7625 1056.33 -213.525 1056.66 -212.25 1057 C-211.55390625 1057.185625 -210.8578125 1057.37125 -210.140625 1057.5625 C-207.71098139 1058.13349349 -207.71098139 1058.13349349 -204 1058 C-204 1058.66 -204 1059.32 -204 1060 C-199.15758367 1061.33583899 -195.06562383 1062.25328119 -190 1062 C-190 1062.66 -190 1063.32 -190 1064 C-179.64511186 1065.21312497 -169.44713675 1066.37534623 -159 1066 C-159 1066.66 -159 1067.32 -159 1068 C-145.38630734 1068.89100426 -131.82230143 1069.15726699 -118.1809082 1069.13037109 C-114.91027301 1069.12495491 -111.63977199 1069.13038268 -108.36914062 1069.13671875 C-106.25520804 1069.13605872 -104.14127553 1069.13477911 -102.02734375 1069.1328125 C-101.06674545 1069.13483673 -100.10614716 1069.13686096 -99.11643982 1069.13894653 C-93.0219287 1069.11804095 -87.05180616 1068.71983621 -81 1068 C-81 1067.34 -81 1066.68 -81 1066 C-79.92621094 1065.93941406 -78.85242188 1065.87882812 -77.74609375 1065.81640625 C-76.30988685 1065.73192349 -74.87368942 1065.64727946 -73.4375 1065.5625 C-72.73302734 1065.52318359 -72.02855469 1065.48386719 -71.30273438 1065.44335938 C-66.8201459 1065.17481721 -62.43706503 1064.69383803 -58 1064 C-58 1063.34 -58 1062.68 -58 1062 C-57.13117188 1061.93941406 -56.26234375 1061.87882812 -55.3671875 1061.81640625 C-54.21476563 1061.73261719 -53.06234375 1061.64882812 -51.875 1061.5625 C-50.73804688 1061.48128906 -49.60109375 1061.40007812 -48.4296875 1061.31640625 C-45.2459522 1061.02269035 -42.14489093 1060.56875687 -39 1060 C-39 1059.34 -39 1058.68 -39 1058 C-38.05125 1058.04125 -37.1025 1058.0825 -36.125 1058.125 C-31.29272342 1058.14484508 -26.69372996 1057.05774196 -22 1056 C-22 1055.34 -22 1054.68 -22 1054 C-21.31292969 1053.93941406 -20.62585938 1053.87882812 -19.91796875 1053.81640625 C-19.01691406 1053.73261719 -18.11585938 1053.64882812 -17.1875 1053.5625 C-16.29417969 1053.48128906 -15.40085938 1053.40007812 -14.48046875 1053.31640625 C-11.87256441 1053.06510233 -11.87256441 1053.06510233 -9 1052 C-9 1051.34 -9 1050.68 -9 1050 C-6.36 1049.67 -3.72 1049.34 -1 1049 C-1 1048.34 -1 1047.68 -1 1047 C-0.236875 1046.855625 0.52625 1046.71125 1.3125 1046.5625 C4.08172908 1046.0367406 4.08172908 1046.0367406 7 1045 C7 1044.34 7 1043.68 7 1043 C7.78375 1042.855625 8.5675 1042.71125 9.375 1042.5625 C11.96421018 1042.12201075 11.96421018 1042.12201075 14 1041 C14 1040.34 14 1039.68 14 1039 C14.78375 1038.855625 15.5675 1038.71125 16.375 1038.5625 C18.96421018 1038.12201075 18.96421018 1038.12201075 21 1037 C21 1036.34 21 1035.68 21 1035 C21.9590625 1034.814375 21.9590625 1034.814375 22.9375 1034.625 C23.618125 1034.41875 24.29875 1034.2125 25 1034 C25.33 1033.34 25.66 1032.68 26 1032 C28.0625 1030.875 28.0625 1030.875 30 1030 C30 1029.34 30 1028.68 30 1028 C31.32 1027.34 32.64 1026.68 34 1026 C34 1025.01 34 1024.02 34 1023 C34.66 1023 35.32 1023 36 1023 C36 1018.38 36 1013.76 36 1009 C35.34 1009 34.68 1009 34 1009 C34 991.51 34 974.02 34 956 C34.66 956 35.32 956 36 956 C36 934.22 36 912.44 36 890 C35.34 890 34.68 890 34 890 C34.00523682 889.45512939 34.01047363 888.91025879 34.01586914 888.34887695 C34.11091049 876.71653811 33.97179318 865.1234899 33.5 853.5 C32.23950991 820.67446238 33.11899253 787.82455765 34 755 C34.66 755 35.32 755 36 755 C36.28967466 750.11135498 36.57426536 745.22244766 36.85449219 740.33325195 C36.95015838 738.67594755 37.04712564 737.01871765 37.14550781 735.36157227 C37.72644628 725.55971761 38.15823869 715.82288628 38 706 C38.66 706 39.32 706 40 706 C40.26259661 698.46285451 40.52350048 690.92565198 40.78230286 683.38837528 C40.90255471 679.88771284 41.0233677 676.38707172 41.14550781 672.88647461 C41.28622353 668.85275986 41.42441808 664.81896203 41.5625 660.78515625 C41.60624756 659.54105484 41.64999512 658.29695343 41.69506836 657.01515198 C41.91020976 650.67213314 42.04769673 644.34664615 42 638 C42.66 638 43.32 638 44 638 C44.66 633.05 45.32 628.1 46 623 C46.66 623 47.32 623 48 623 C48.103125 622.360625 48.20625 621.72125 48.3125 621.0625 C48.539375 620.381875 48.76625 619.70125 49 619 C49.99 618.67 50.98 618.34 52 618 C52 617.34 52 616.68 52 616 C58.6 616 65.2 616 72 616 C72 616.66 72 617.32 72 618 C74.31 618.33 76.62 618.66 79 619 C79 619.66 79 620.32 79 621 C82.87684087 622.19287411 85.91621923 623 90 623 C90 623.66 90 624.32 90 625 C96.3778552 626.17293889 102.50321562 627.29530838 109 627 C109 627.66 109 628.32 109 629 C117.23173299 629.95248571 125.41140989 630.15606241 133.68994141 630.13037109 C135.76081537 630.1249718 137.83147599 630.13037089 139.90234375 630.13671875 C141.24218797 630.13605845 142.58203206 630.13477829 143.921875 630.1328125 C145.70996582 630.13112061 145.70996582 630.13112061 147.53417969 630.12939453 C151.08403541 629.99686258 154.49488176 629.56366242 158 629 C158 628.34 158 627.68 158 627 C158.99 626.67 159.98 626.34 161 626 C159.02 625.67 157.04 625.34 155 625 C155 624.34 155 623.68 155 623 C152.03 622.34 149.06 621.68 146 621 C146 620.34 146 619.68 146 619 C144.02 618.67 142.04 618.34 140 618 C140 617.34 140 616.68 140 616 C136.62902617 614.50178941 134.79557881 614 131 614 C131 613.34 131 612.68 131 612 C128.36 611.34 125.72 610.68 123 610 C123 609.34 123 608.68 123 608 C119.7 607.34 116.4 606.68 113 606 C113 605.34 113 604.68 113 604 C110.69 603.67 108.38 603.34 106 603 C106 602.34 106 601.68 106 601 C103.09399739 599.74335022 101.20395416 599 98 599 C98 598.34 98 597.68 98 597 C95.03 596.34 92.06 595.68 89 595 C89 594.34 89 593.68 89 593 C87.58461283 592.66127487 86.16762037 592.32925376 84.75 592 C83.96109375 591.814375 83.1721875 591.62875 82.359375 591.4375 C79.74443998 590.87845172 79.74443998 590.87845172 76 591 C76 590.34 76 589.68 76 589 C72.17679443 587.57741188 69.08718695 586.75957724 65 587 C65 586.34 65 585.68 65 585 C63.02 584.67 61.04 584.34 59 584 C59 583.34 59 582.68 59 582 C52.59784929 580.2505382 52.59784929 580.2505382 46 580 C46 579.34 46 578.68 46 578 C42.38026598 576.68373308 39.90432869 576 36 576 C36 575.34 36 574.68 36 574 C32.38026598 572.68373308 29.90432869 572 26 572 C26 571.34 26 570.68 26 570 C24.35 569.67 22.7 569.34 21 569 C21 568.34 21 567.68 21 567 C18.03 566.34 15.06 565.68 12 565 C12 564.34 12 563.68 12 563 C9.09399739 561.74335022 7.20395416 561 4 561 C4 560.34 4 559.68 4 559 C1.09399739 557.74335022 -0.79604584 557 -4 557 C-4.33 556.01 -4.66 555.02 -5 554 C-6.98 553.67 -8.96 553.34 -11 553 C-11.33 552.01 -11.66 551.02 -12 550 C-12.99 550 -13.98 550 -15 550 C-15 549.34 -15 548.68 -15 548 C-17.90600261 546.74335022 -19.79604584 546 -23 546 C-23.33 545.01 -23.66 544.02 -24 543 C-25.98 542.67 -27.96 542.34 -30 542 C-30 541.34 -30 540.68 -30 540 C-30.763125 539.731875 -31.52625 539.46375 -32.3125 539.1875 C-34.92030457 538.03521426 -36.03755174 536.96244826 -38 535 C-38.99 535 -39.98 535 -41 535 C-41.12375 534.4225 -41.2475 533.845 -41.375 533.25 C-42.01226102 530.95586034 -42.8850246 529.09877723 -44 527 C-45.40973372 524.34638358 -46.36943753 521.94262485 -47 519 C-47.66 519 -48.32 519 -49 519 C-49.06058594 518.33613281 -49.12117187 517.67226563 -49.18359375 516.98828125 C-49.79863507 510.45091919 -49.79863507 510.45091919 -51 504 C-51.66 504 -52.32 504 -53 504 C-53.33 499.38 -53.66 494.76 -54 490 C-54.66 490 -55.32 490 -56 490 C-56.06058594 489.01 -56.12117187 488.02 -56.18359375 487 C-56.60460466 480.30533362 -57.05074129 473.64481097 -58 467 C-58.66 467 -59.32 467 -60 467 C-59.97679687 466.38898438 -59.95359375 465.77796875 -59.9296875 465.1484375 C-59.71720532 454.37255561 -60.92504409 443.70953415 -62 433 C-62.66 433 -63.32 433 -64 433 C-64 406.6 -64 380.2 -64 353 C-63.34 353 -62.68 353 -62 353 C-61.66134102 349.47965794 -61.33003905 345.95865982 -61 342.4375 C-60.85691406 340.9515332 -60.85691406 340.9515332 -60.7109375 339.43554688 C-60.22991879 334.26459572 -59.88346366 329.19315048 -60 324 C-59.34 324 -58.68 324 -58 324 C-57.66131223 321.79248152 -57.32928311 319.58394089 -57 317.375 C-56.814375 316.14523437 -56.62875 314.91546875 -56.4375 313.6484375 C-56.04597484 310.3833973 -55.91919076 307.28287549 -56 304 C-55.34 304 -54.68 304 -54 304 C-54 301.36 -54 298.72 -54 296 C-54.66 296 -55.32 296 -56 296 C-56 295.01 -56 294.02 -56 293 C-55.34 293 -54.68 293 -54 293 C-53.67 290.36 -53.34 287.72 -53 285 C-52.34 285 -51.68 285 -51 285 C-50.731875 284.030625 -50.46375 283.06125 -50.1875 282.0625 C-49.795625 281.051875 -49.40375 280.04125 -49 279 C-48.01 278.67 -47.02 278.34 -46 278 C-46 277.34 -46 276.68 -46 276 C-45.401875 275.855625 -44.80375 275.71125 -44.1875 275.5625 C-42.43849596 275.1127561 -40.71322977 274.57107659 -39 274 C-39 273.34 -39 272.68 -39 272 C-37.8553125 271.7834375 -37.8553125 271.7834375 -36.6875 271.5625 C-33.91827092 271.0367406 -33.91827092 271.0367406 -31 270 C-31 269.34 -31 268.68 -31 268 C-29.8553125 267.7834375 -29.8553125 267.7834375 -28.6875 267.5625 C-25.91827092 267.0367406 -25.91827092 267.0367406 -23 266 C-23 265.34 -23 264.68 -23 264 C-21.7625 263.855625 -20.525 263.71125 -19.25 263.5625 C-16.43495501 263.21311498 -13.7298503 262.79620634 -11 262 C-11 261.34 -11 260.68 -11 260 C-7.7 259.67 -4.4 259.34 -1 259 C-1 258.34 -1 257.68 -1 257 C-0.39671875 256.93941406 0.2065625 256.87882813 0.828125 256.81640625 C1.62734375 256.73261719 2.4265625 256.64882813 3.25 256.5625 C4.03890625 256.48128906 4.8278125 256.40007812 5.640625 256.31640625 C7.82364639 256.02365007 9.8773182 255.57935581 12 255 C12 254.34 12 253.68 12 253 C12.60328125 252.93941406 13.2065625 252.87882813 13.828125 252.81640625 C14.62734375 252.73261719 15.4265625 252.64882812 16.25 252.5625 C17.43335938 252.44068359 17.43335938 252.44068359 18.640625 252.31640625 C21.87890597 251.89878137 21.87890597 251.89878137 25 251 C25.33 250.01 25.66 249.02 26 248 C25.01 247.67 24.02 247.34 23 247 C23 241.39 23 235.78 23 230 C23.66 230 24.32 230 25 230 C26.4606285 227.35261084 27 226.10551666 27 223 C27.99 222.67 28.98 222.34 30 222 C30 221.01 30 220.02 30 219 C31.32 218.34 32.64 217.68 34 217 C34 216.34 34 215.68 34 215 C35.32 214.34 36.64 213.68 38 213 C38 212.34 38 211.68 38 211 C39.98 210.34 41.96 209.68 44 209 C44 208.34 44 207.68 44 207 C45.65 206.67 47.3 206.34 49 206 C49 205.34 49 204.68 49 204 C54.98380131 202.95573551 60.809059 202.85030825 66.875 202.875 C67.81730469 202.87113281 68.75960938 202.86726562 69.73046875 202.86328125 C75.56626029 202.87135288 81.21211596 203.25125935 87 204 C87 204.66 87 205.32 87 206 C88.98 206.33 90.96 206.66 93 207 C93 207.66 93 208.32 93 209 C93.804375 209.28875 94.60875 209.5775 95.4375 209.875 C98 211 98 211 99 213 C99.804375 213.309375 100.60875 213.61875 101.4375 213.9375 C104 215 104 215 106 218 C106.99 218.33 107.98 218.66 109 219 C110.23975311 220.46812868 111.47666535 221.93912511 112.6796875 223.4375 C115.95443413 227.3129398 118.93486891 229.42112788 124 230 C124 230.66 124 231.32 124 232 C127.63 232 131.26 232 135 232 C135 231.34 135 230.68 135 230 C136.670625 229.7834375 136.670625 229.7834375 138.375 229.5625 C141.82142047 229.21627965 141.82142047 229.21627965 144 228 C144 227.34 144 226.68 144 226 C144.99 225.67 145.98 225.34 147 225 C149.8834341 223.00377639 150.02286934 221.87733716 150.6875 218.3125 C150.790625 217.219375 150.89375 216.12625 151 215 C151.66 215 152.32 215 153 215 C153 208.73 153 202.46 153 196 C152.34 196 151.68 196 151 196 C150.67 193.69 150.34 191.38 150 189 C149.34 189 148.68 189 148 189 C147.34 187.02 146.68 185.04 146 183 C145.34 183 144.68 183 144 183 C143.34 181.68 142.68 180.36 142 179 C141.34 179 140.68 179 140 179 C139.34 177.68 138.68 176.36 138 175 C137.34 175 136.68 175 136 175 C135.67 174.01 135.34 173.02 135 172 C134.34 172 133.68 172 133 172 C132.67 171.01 132.34 170.02 132 169 C131.01 168.67 130.02 168.34 129 168 C128.34 167.01 127.68 166.02 127 165 C126.01 164.67 125.02 164.34 124 164 C123.67 163.34 123.34 162.68 123 162 C120.37418862 160.42451317 119.12900213 160 116 160 C116 159.34 116 158.68 116 158 C114.02 157.67 112.04 157.34 110 157 C109.67 156.01 109.34 155.02 109 154 C106.69 153.67 104.38 153.34 102 153 C102 152.34 102 151.68 102 151 C98.62902617 149.50178941 96.79557881 149 93 149 C93 148.34 93 147.68 93 147 C86.56971459 145.67611771 80.5705166 144.75205598 74 145 C74 144.34 74 143.68 74 143 C64.1 143 54.2 143 44 143 C44 143.66 44 144.32 44 145 C43.35933594 144.97679687 42.71867187 144.95359375 42.05859375 144.9296875 C36.59012904 144.81559137 32.16901723 145.20208096 27 147 C27 147.66 27 148.32 27 149 C25.081875 149.2165625 25.081875 149.2165625 23.125 149.4375 C20.74307106 149.70642746 19.15547309 149.92226346 17 151 C17 151.66 17 152.32 17 153 C16.21625 153.226875 15.4325 153.45375 14.625 153.6875 C11.31237892 155.34381054 11.25985643 156.64038286 10 160 C7.875 161.3125 7.875 161.3125 6 162 C6 162.66 6 163.32 6 164 C5.05125 164.268125 4.1025 164.53625 3.125 164.8125 C-0.25267273 165.74986588 -0.25267273 165.74986588 -2 169 C-2 169.99 -2 170.98 -2 172 C-2.66 172 -3.32 172 -4 172 C-4.33 174.64 -4.66 177.28 -5 180 C-5.66 180 -6.32 180 -7 180 C-8.33583899 184.84241633 -9.25328119 188.93437617 -9 194 C-9.66 194 -10.32 194 -11 194 C-12.26305335 199.07476794 -13.27036084 203.72796354 -13 209 C-13.66 209 -14.32 209 -15 209 C-16.27041977 218.04039783 -17.34915606 226.84435229 -17 236 C-17.66 236 -18.32 236 -19 236 C-19.33 240.29 -19.66 244.58 -20 249 C-20.66 249 -21.32 249 -22 249 C-22.66 252.3 -23.32 255.6 -24 259 C-25.32 259.33 -26.64 259.66 -28 260 C-28 260.66 -28 261.32 -28 262 C-31.63 262 -35.26 262 -39 262 C-39 261.34 -39 260.68 -39 260 C-40.32 259.67 -41.64 259.34 -43 259 C-43 258.01 -43 257.02 -43 256 C-43.66 256 -44.32 256 -45 256 C-45.05425013 253.12474331 -45.09379277 250.25052354 -45.125 247.375 C-45.15013672 246.16263672 -45.15013672 246.16263672 -45.17578125 244.92578125 C-45.21493387 240.11000902 -44.58667452 236.57918934 -43 232 C-42.47279873 228.53407208 -42.17355682 225.05463592 -41.875 221.5625 C-41.78863281 220.64662109 -41.70226562 219.73074219 -41.61328125 218.78710938 C-41.16547423 213.83635399 -40.90428682 208.9702488 -41 204 C-40.34 204 -39.68 204 -39 204 C-38.67 200.7 -38.34 197.4 -38 194 C-37.34 194 -36.68 194 -36 194 C-35.66179834 192.4176994 -35.32964061 190.83410625 -35 189.25 C-34.814375 188.36828125 -34.62875 187.4865625 -34.4375 186.578125 C-33.88846325 183.77856035 -33.88846325 183.77856035 -34 180 C-33.34 180 -32.68 180 -32 180 C-31.67 178.7625 -31.34 177.525 -31 176.25 C-30.814375 175.55390625 -30.62875 174.8578125 -30.4375 174.140625 C-29.86650651 171.71098139 -29.86650651 171.71098139 -30 168 C-29.34 168 -28.68 168 -28 168 C-27.34 164.37 -26.68 160.74 -26 157 C-25.34 157 -24.68 157 -24 157 C-23.01 153.04 -23.01 153.04 -22 149 C-21.34 149 -20.68 149 -20 149 C-19.67 147.02 -19.34 145.04 -19 143 C-18.34 143 -17.68 143 -17 143 C-15.74335022 140.09399739 -15 138.20395416 -15 135 C-14.34 135 -13.68 135 -13 135 C-11.74335022 132.09399739 -11 130.20395416 -11 127 C-10.34 127 -9.68 127 -9 127 C-8.34 124.36 -7.68 121.72 -7 119 C-6.34 119 -5.68 119 -5 119 C-4.67 117.02 -4.34 115.04 -4 113 C-3.34 113 -2.68 113 -2 113 C-1.34 110.03 -0.68 107.06 0 104 C0.66 104 1.32 104 2 104 C3.4606285 101.35261084 4 100.10551666 4 97 C4.66 97 5.32 97 6 97 C6.66 94.69 7.32 92.38 8 90 C8.66 90 9.32 90 10 90 C11.25664978 87.09399739 12 85.20395416 12 82 C13.485 81.505 13.485 81.505 15 81 C15 80.01 15 79.02 15 78 C15.66 78 16.32 78 17 78 C17.66 75.69 18.32 73.38 19 71 C19.66 71 20.32 71 21 71 C22.25664978 68.09399739 23 66.20395416 23 63 C23.66 63 24.32 63 25 63 C26.4606285 60.35261084 27 59.10551666 27 56 C27.66 56 28.32 56 29 56 C29 50.39 29 44.78 29 39 C28.34 39 27.68 39 27 39 C26.67 37.02 26.34 35.04 26 33 C25.01 32.67 24.02 32.34 23 32 C23 31.34 23 30.68 23 30 C19.91190305 28.23537317 18.76687864 28 15 28 C15 27.34 15 26.68 15 26 C11.04 26 7.08 26 3 26 Z M199 111 C199.33 111.66 199.66 112.32 200 113 C200.99 113 201.98 113 203 113 C203.33 113.99 203.66 114.98 204 116 C204.99 116.33 205.98 116.66 207 117 C207.474375 117.495 207.94875 117.99 208.4375 118.5 C209.89687099 120.17738405 209.89687099 120.17738405 212.0625 120.375 C212.701875 120.58125 213.34125 120.7875 214 121 C215.125 123.5 215.125 123.5 216 126 C216.66 126.33 217.32 126.66 218 127 C218.33 127.99 218.66 128.98 219 130 C220.87508162 132.2085766 220.87508162 132.2085766 223 134 C223.66 134 224.32 134 225 134 C225.66 136.31 226.32 138.62 227 141 C227.66 141 228.32 141 229 141 C229.66 143.64 230.32 146.28 231 149 C231.66 149 232.32 149 233 149 C233.144375 150.2375 233.28875 151.475 233.4375 152.75 C233.78688502 155.56504499 234.20379366 158.2701497 235 161 C235.66 161 236.32 161 237 161 C237.495 166.445 237.495 166.445 238 172 C238.66 172 239.32 172 240 172 C240.06058594 173.19753906 240.12117188 174.39507812 240.18359375 175.62890625 C240.35583829 179.01614931 240.53893425 182.40263976 240.7265625 185.7890625 C240.90335572 189.01286902 241.04745588 192.23391603 241.1484375 195.4609375 C241.20257813 196.77320313 241.25671875 198.08546875 241.3125 199.4375 C241.36857422 201.19900391 241.36857422 201.19900391 241.42578125 202.99609375 C242.10845886 206.56738004 243.14055771 207.81652343 246 210 C246.66 210 247.32 210 248 210 C248.144375 210.763125 248.28875 211.52625 248.4375 212.3125 C249.37051812 216.77025324 250.33942613 219.20844041 254 222 C257.56170061 222.52209357 257.56170061 222.52209357 261.4375 222.3125 C263.38462891 222.27576172 263.38462891 222.27576172 265.37109375 222.23828125 C270.86774505 222.09907655 270.86774505 222.09907655 275.546875 219.66015625 C279.09861529 214.9437219 280.12807595 212.89149361 280 207 C280.66 207 281.32 207 282 207 C282 198.42 282 189.84 282 181 C281.34 181 280.68 181 280 181 C280.04125 179.72125 280.0825 178.4425 280.125 177.125 C280.14157783 171.91127144 279.18311358 167.05992328 278 162 C277.34 162 276.68 162 276 162 C275.01 158.04 275.01 158.04 274 154 C273.34 154 272.68 154 272 154 C271.9175 153.484375 271.835 152.96875 271.75 152.4375 C270.29309288 147.70255185 268.18733128 143.79155419 264 141 C263.505 139.515 263.505 139.515 263 138 C262.34 138 261.68 138 261 138 C260.34 136.68 259.68 135.36 259 134 C258.34 134 257.68 134 257 134 C256.505 132.515 256.505 132.515 256 131 C252.52064528 127.35986933 252.52064528 127.35986933 248 126 C248 125.34 248 124.68 248 124 C245.98250297 121.57900356 243.91201404 120.18300571 241 119 C240.01 119 239.02 119 238 119 C238 118.34 238 117.68 238 117 C234.62902617 115.50178941 232.79557881 115 229 115 C229 114.34 229 113.68 229 113 C218.87410311 111.22796804 209.2455423 110.76049382 199 111 Z M111 122 C108.67182036 122.36760731 106.3381615 122.70241581 104 123 C104 123.99 104 124.98 104 126 C108.455 126.99 108.455 126.99 113 128 C113 128.66 113 129.32 113 130 C115.64 130.66 118.28 131.32 121 132 C121 132.66 121 133.32 121 134 C123.64 134.66 126.28 135.32 129 136 C129 136.66 129 137.32 129 138 C130.32 138.33 131.64 138.66 133 139 C133 139.66 133 140.32 133 141 C134.2065625 141.433125 134.2065625 141.433125 135.4375 141.875 C138 143 138 143 139 145 C139.66 145.33 140.32 145.66 141 146 C143 147 143 147 144 149 C144.99 149.309375 145.98 149.61875 147 149.9375 C147.99 150.288125 148.98 150.63875 150 151 C150.495 152.485 150.495 152.485 151 154 C153.01508358 154.73323796 153.01508358 154.73323796 155 155 C155 155.66 155 156.32 155 157 C156.50197356 158.24076077 158.00612315 159.47921817 159.53125 160.69140625 C161.28660135 162.25534961 162.18614864 163.80260134 163 166 C163.66 166 164.32 166 165 166 C165.28875 166.969375 165.5775 167.93875 165.875 168.9375 C166.64214682 172.10664203 166.64214682 172.10664203 169 173 C169.33 173.99 169.66 174.98 170 176 C170.66 176 171.32 176 172 176 C172.99 180.455 172.99 180.455 174 185 C174.66 185 175.32 185 176 185 C177.40180672 199.39355113 177.40180672 213.60644887 176 228 C175.34 228 174.68 228 174 228 C172.74335022 230.90600261 172 232.79604584 172 236 C171.34 236 170.68 236 170 236 C170 236.66 170 237.32 170 238 C170.66 238 171.32 238 172 238 C172.66 239.32 173.32 240.64 174 242 C175.32 242 176.64 242 178 242 C178 242.66 178 243.32 178 244 C179.32 244 180.64 244 182 244 C182 243.34 182 242.68 182 242 C182.62648438 241.93941406 183.25296875 241.87882812 183.8984375 241.81640625 C185.12433594 241.69072266 185.12433594 241.69072266 186.375 241.5625 C187.59316406 241.44068359 187.59316406 241.44068359 188.8359375 241.31640625 C191.04272805 241.10909886 191.04272805 241.10909886 193 240 C193 239.34 193 238.68 193 238 C194.3303125 237.9071875 194.3303125 237.9071875 195.6875 237.8125 C199.77194586 236.81065479 201.347136 235.19904189 204 232 C204 231.34 204 230.68 204 230 C205.32 229.34 206.64 228.68 208 228 C208 227.34 208 226.68 208 226 C208.99 225.67 209.98 225.34 211 225 C211.495 223.515 211.495 223.515 212 222 C212.66 221.67 213.32 221.34 214 221 C216.29069091 215.05549579 216.30845691 209.37636779 216.25 203.0625 C216.24613281 202.05501709 216.24226563 201.04753418 216.23828125 200.00952148 C216.14150828 191.55331116 215.35653624 183.34512026 214 175 C213.34 175 212.68 175 212 175 C211.93941406 174.24074219 211.87882812 173.48148438 211.81640625 172.69921875 C211.73261719 171.70535156 211.64882813 170.71148437 211.5625 169.6875 C211.44068359 168.20830078 211.44068359 168.20830078 211.31640625 166.69921875 C211.08187441 163.90624401 211.08187441 163.90624401 210 161 C209.34 161 208.68 161 208 161 C207.505 157.535 207.505 157.535 207 154 C205.515 153.505 205.515 153.505 204 153 C203.3125 150.9375 203.3125 150.9375 203 149 C202.34 149 201.68 149 201 149 C200.938125 148.46375 200.87625 147.9275 200.8125 147.375 C199.61004527 143.86013232 197.5457314 141.66413752 195 139 C192.83468832 138.05563651 192.83468832 138.05563651 191 138 C191 137.34 191 136.68 191 136 C189.02 135.34 187.04 134.68 185 134 C185 133.34 185 132.68 185 132 C182.09399739 130.74335022 180.20395416 130 177 130 C177 129.34 177 128.68 177 128 C173.12315913 126.80712589 170.08378077 126 166 126 C166 125.34 166 124.68 166 124 C160.555 123.505 160.555 123.505 155 123 C155 122.34 155 121.68 155 121 C149.10302171 120.1469354 143.39210257 119.84194787 137.4375 119.875 C136.57213623 119.87765869 135.70677246 119.88031738 134.81518555 119.88305664 C122.14617089 119.06841054 122.14617089 119.06841054 111 122 Z M57 230 C57 230.66 57 231.32 57 232 C56.195625 232.268125 55.39125 232.53625 54.5625 232.8125 C53.716875 233.204375 52.87125 233.59625 52 234 C51.67 234.99 51.34 235.98 51 237 C50.01 237.495 50.01 237.495 49 238 C48.67 238.99 48.34 239.98 48 241 C47.01 241.495 47.01 241.495 46 242 C46 242.66 46 243.32 46 244 C46.99 244 47.98 244 49 244 C49 243.34 49 242.68 49 242 C49.67546875 241.93941406 50.3509375 241.87882813 51.046875 241.81640625 C51.93890625 241.73261719 52.8309375 241.64882812 53.75 241.5625 C54.63171875 241.48128906 55.5134375 241.40007812 56.421875 241.31640625 C58.69350452 241.03761535 60.79851823 240.61209423 63 240 C63 239.34 63 238.68 63 238 C64.2375 237.855625 65.475 237.71125 66.75 237.5625 C69.56504499 237.21311498 72.2701497 236.79620634 75 236 C75 235.34 75 234.68 75 234 C77.64 233.67 80.28 233.34 83 233 C82.505 231.515 82.505 231.515 82 230 C74.62871897 227.30664732 63.95851833 225.74381888 57 230 Z M233 237 C231.07240008 238.67617384 230.09465377 239.59772148 229.5 242.125 C229.335 242.74375 229.17 243.3625 229 244 C228.01 244.33 227.02 244.66 226 245 C224.31267723 246.98260426 222.64633943 248.9832342 221 251 C220.01 251.66 219.02 252.32 218 253 C218 253.66 218 254.32 218 255 C217.071875 255.2165625 217.071875 255.2165625 216.125 255.4375 C213.96741678 255.93152225 213.96741678 255.93152225 212 257 C212 257.66 212 258.32 212 259 C211.195625 259.12375 210.39125 259.2475 209.5625 259.375 C208.716875 259.58125 207.87125 259.7875 207 260 C206.67 260.66 206.34 261.32 206 262 C204.02111039 262.72693904 202.02045442 263.39816251 200 264 C200 264.66 200 265.32 200 266 C194.72 266.66 189.44 267.32 184 268 C184 268.66 184 269.32 184 270 C181.36 270 178.72 270 176 270 C176 269.34 176 268.68 176 268 C171.71 267.34 167.42 266.68 163 266 C163 265.34 163 264.68 163 264 C161.02 263.34 159.04 262.68 157 262 C157 261.34 157 260.68 157 260 C156.01 259.175 155.02 258.35 154 257.5 C153.01 256.675 152.02 255.85 151 255 C151 254.34 151 253.68 151 253 C149.68 253 148.36 253 147 253 C147 253.66 147 254.32 147 255 C135.59973418 256.27938855 124.39184053 256.44005208 113 255 C113 254.34 113 253.68 113 253 C108.19651495 251.39883832 102.8351138 251.3882954 98 253 C98 253.66 98 254.32 98 255 C96.906875 255.0825 95.81375 255.165 94.6875 255.25 C89.15870322 255.91504378 84.15005376 257.96459272 79 260 C79 260.66 79 261.32 79 262 C77.7625 262.144375 76.525 262.28875 75.25 262.4375 C72.43495501 262.78688502 69.7298503 263.20379366 67 264 C67 264.66 67 265.32 67 266 C66.32453125 266.06058594 65.6490625 266.12117188 64.953125 266.18359375 C63.61507812 266.30927734 63.61507812 266.30927734 62.25 266.4375 C61.36828125 266.51871094 60.4865625 266.59992188 59.578125 266.68359375 C57.30649548 266.96238465 55.20148177 267.38790577 53 268 C53 268.66 53 269.32 53 270 C52.41992188 270.06058594 51.83984375 270.12117188 51.2421875 270.18359375 C46.79907137 270.66016561 42.40094577 271.21008666 38 272 C38 272.66 38 273.32 38 274 C36.7625 274.144375 35.525 274.28875 34.25 274.4375 C31.43495501 274.78688502 28.7298503 275.20379366 26 276 C26 276.66 26 277.32 26 278 C21.545 278.495 21.545 278.495 17 279 C17 279.66 17 280.32 17 281 C16.40832031 281.06058594 15.81664062 281.12117188 15.20703125 281.18359375 C7.97580002 281.70822798 7.97580002 281.70822798 1.1875 283.9375 C-2.08086743 285.52499275 -5.46475416 286.1751093 -9 287 C-9 287.66 -9 288.32 -9 289 C-10.093125 289.144375 -11.18625 289.28875 -12.3125 289.4375 C-15.93122987 289.88288104 -15.93122987 289.88288104 -19 291 C-19 291.66 -19 292.32 -19 293 C-21.475 293.495 -21.475 293.495 -24 294 C-24 294.66 -24 295.32 -24 296 C-24.99 296 -25.98 296 -27 296 C-26.88637738 297.4800841 -26.75877092 298.95910074 -26.625 300.4375 C-26.55539063 301.26121094 -26.48578125 302.08492188 -26.4140625 302.93359375 C-26.27742187 303.61550781 -26.14078125 304.29742187 -26 305 C-25.34 305.33 -24.68 305.66 -24 306 C-22.875 308.0625 -22.875 308.0625 -22 310 C-21.34 310 -20.68 310 -20 310 C-20 310.66 -20 311.32 -20 312 C-19.01 312.33 -18.02 312.66 -17 313 C-15.66666667 314.33333333 -14.33333333 315.66666667 -13 317 C-12.34 317 -11.68 317 -11 317 C-11 317.66 -11 318.32 -11 319 C-9.02 319.66 -7.04 320.32 -5 321 C-5 321.66 -5 322.32 -5 323 C-4.360625 323.28875 -3.72125 323.5775 -3.0625 323.875 C-1 325 -1 325 0 327 C1.485 327.495 1.485 327.495 3 328 C3.474375 328.495 3.94875 328.99 4.4375 329.5 C5.91107051 331.16928788 5.91107051 331.16928788 8.125 331.5 C8.74375 331.665 9.3625 331.83 10 332 C10.33 332.99 10.66 333.98 11 335 C11.99 335.33 12.98 335.66 14 336 C14.66 336.680625 15.32 337.36125 16 338.0625 C17.89502283 340.34789761 17.89502283 340.34789761 21 340 C21.66 341.32 22.32 342.64 23 344 C23.99 344 24.98 344 26 344 C26.33 344.99 26.66 345.98 27 347 C27.66 347 28.32 347 29 347 C29 347.66 29 348.32 29 349 C29.639375 349.28875 30.27875 349.5775 30.9375 349.875 C33 351 33 351 34 353 C36.62581138 354.57548683 37.87099787 355 41 355 C41.33 355.99 41.66 356.98 42 358 C44.01508358 358.73323796 44.01508358 358.73323796 46 359 C46 359.66 46 360.32 46 361 C47.65 361.33 49.3 361.66 51 362 C51.33 362.99 51.66 363.98 52 365 C52.99 365.33 53.98 365.66 55 366 C55.33 366.66 55.66 367.32 56 368 C58.62581138 369.57548683 59.87099787 370 63 370 C63 370.66 63 371.32 63 372 C65.64738916 373.4606285 66.89448334 374 70 374 C70 374.66 70 375.32 70 376 C71.2065625 376.433125 71.2065625 376.433125 72.4375 376.875 C75 378 75 378 76 380 C79.02934491 380.65772428 79.02934491 380.65772428 82 381 C82 381.66 82 382.32 82 383 C84.31 383.66 86.62 384.32 89 385 C89 385.66 89 386.32 89 387 C91.90600261 388.25664978 93.79604584 389 97 389 C97 389.66 97 390.32 97 391 C99.97 391.66 102.94 392.32 106 393 C106 393.66 106 394.32 106 395 C107.98 395.33 109.96 395.66 112 396 C112 396.66 112 397.32 112 398 C114.90600261 399.25664978 116.79604584 400 120 400 C120 400.66 120 401.32 120 402 C122.90600261 403.25664978 124.79604584 404 128 404 C128 404.66 128 405.32 128 406 C130.90600261 407.25664978 132.79604584 408 136 408 C136 408.66 136 409.32 136 410 C139.96 410.99 139.96 410.99 144 412 C144 412.66 144 413.32 144 414 C145.98 414.33 147.96 414.66 150 415 C150 415.66 150 416.32 150 417 C152.90600261 418.25664978 154.79604584 419 158 419 C158 419.66 158 420.32 158 421 C160.90600261 422.25664978 162.79604584 423 166 423 C166 423.66 166 424.32 166 425 C168.64738916 426.4606285 169.89448334 427 173 427 C173 427.66 173 428.32 173 429 C175.90600261 430.25664978 177.79604584 431 181 431 C181.33 431.99 181.66 432.98 182 434 C182.99 434 183.98 434 185 434 C185 434.66 185 435.32 185 436 C188.96 436.99 188.96 436.99 193 438 C193 438.66 193 439.32 193 440 C195.64738916 441.4606285 196.89448334 442 200 442 C200 442.66 200 443.32 200 444 C202.64738916 445.4606285 203.89448334 446 207 446 C207 446.66 207 447.32 207 448 C207.99 448.33 208.98 448.66 210 449 C210.33 449.66 210.66 450.32 211 451 C213.3140622 451.73075648 215.64828869 452.40138258 218 453 C218 453.66 218 454.32 218 455 C220.90600261 456.25664978 222.79604584 457 226 457 C226.33 457.99 226.66 458.98 227 460 C228.98 460.33 230.96 460.66 233 461 C233 461.66 233 462.32 233 463 C235.90600261 464.25664978 237.79604584 465 241 465 C241 465.66 241 466.32 241 467 C242.65 467.33 244.3 467.66 246 468 C246 468.66 246 469.32 246 470 C246.969375 470.28875 247.93875 470.5775 248.9375 470.875 C252 472 252 472 253 474 C254.88764903 474.68472665 254.88764903 474.68472665 257.0625 475.125 C258.16271484 475.37636719 258.16271484 475.37636719 259.28515625 475.6328125 C259.85105469 475.75398437 260.41695312 475.87515625 261 476 C261 476.66 261 477.32 261 478 C263.64 478.66 266.28 479.32 269 480 C269 480.66 269 481.32 269 482 C271.31 482.33 273.62 482.66 276 483 C276 483.66 276 484.32 276 485 C278.64 485.66 281.28 486.32 284 487 C284 487.66 284 488.32 284 489 C287.3 489.66 290.6 490.32 294 491 C294 491.66 294 492.32 294 493 C296.90600261 494.25664978 298.79604584 495 302 495 C302 495.66 302 496.32 302 497 C305.3 497.66 308.6 498.32 312 499 C312 499.66 312 500.32 312 501 C313.98 501.33 315.96 501.66 318 502 C318 502.66 318 503.32 318 504 C321.3 504.66 324.6 505.32 328 506 C328 506.66 328 507.32 328 508 C329.2375 508.33 330.475 508.66 331.75 509 C332.44609375 509.185625 333.1421875 509.37125 333.859375 509.5625 C336.28901861 510.13349349 336.28901861 510.13349349 340 510 C340 510.66 340 511.32 340 512 C343.87684087 513.19287411 346.91621923 514 351 514 C351 514.66 351 515.32 351 516 C353.31 516.33 355.62 516.66 358 517 C358 517.66 358 518.32 358 519 C359.7015625 519.433125 359.7015625 519.433125 361.4375 519.875 C362.613125 520.24625 363.78875 520.6175 365 521 C365.33 521.66 365.66 522.32 366 523 C368.90259811 524.3749149 370.76138705 525 374 525 C374 525.66 374 526.32 374 527 C376.64738916 528.4606285 377.89448334 529 381 529 C381 529.66 381 530.32 381 531 C383.90600261 532.25664978 385.79604584 533 389 533 C389 533.66 389 534.32 389 535 C390.98 535.33 392.96 535.66 395 536 C395 536.66 395 537.32 395 538 C397.90600261 539.25664978 399.79604584 540 403 540 C403 540.66 403 541.32 403 542 C405.97 542.66 408.94 543.32 412 544 C412 544.66 412 545.32 412 546 C413.98 546.33 415.96 546.66 418 547 C419.77205294 540.910326 420.31744347 535.45264261 420.25 529.125 C420.24613281 528.2474707 420.24226563 527.36994141 420.23828125 526.46582031 C420.15747824 520.42130644 419.56296914 514.86113426 418 509 C417.34 509 416.68 509 416 509 C415.34 505.7 414.68 502.4 414 499 C413.34 499 412.68 499 412 499 C411.34 497.02 410.68 495.04 410 493 C409.34 493 408.68 493 408 493 C407.67 491.02 407.34 489.04 407 487 C406.34 487 405.68 487 405 487 C404.87882812 486.43410156 404.75765625 485.86820313 404.6328125 485.28515625 C404.46523438 484.55167969 404.29765625 483.81820312 404.125 483.0625 C403.96257812 482.33160156 403.80015625 481.60070312 403.6328125 480.84765625 C403.17038477 478.79299706 403.17038477 478.79299706 401 478 C400.27306096 476.02111039 399.60183749 474.02045442 399 472 C398.34 472 397.68 472 397 472 C396.34 469.69 395.68 467.38 395 465 C394.34 465 393.68 465 393 465 C392.87625 464.195625 392.7525 463.39125 392.625 462.5625 C392.315625 461.2940625 392.315625 461.2940625 392 460 C391.34 459.67 390.68 459.34 390 459 C389.27306096 457.02111039 388.60183749 455.02045442 388 453 C387.34 453 386.68 453 386 453 C385.34 450.69 384.68 448.38 384 446 C383.34 446 382.68 446 382 446 C381.34 443.36 380.68 440.72 380 438 C379.34 438 378.68 438 378 438 C377.34 435.36 376.68 432.72 376 430 C375.34 430 374.68 430 374 430 C373.67 428.35 373.34 426.7 373 425 C372.34 425 371.68 425 371 425 C370.855625 424.05125 370.71125 423.1025 370.5625 422.125 C370.17064601 419.1065506 370.17064601 419.1065506 369 417 C368.34 417 367.68 417 367 417 C366.34 414.03 365.68 411.06 365 408 C364.34 408 363.68 408 363 408 C362.34 405.36 361.68 402.72 361 400 C360.34 400 359.68 400 359 400 C358.67 398.35 358.34 396.7 358 395 C357.34 395 356.68 395 356 395 C355.855625 394.05125 355.71125 393.1025 355.5625 392.125 C355.17064601 389.1065506 355.17064601 389.1065506 354 387 C353.34 387 352.68 387 352 387 C351.34 384.03 350.68 381.06 350 378 C349.34 378 348.68 378 348 378 C347.34 375.36 346.68 372.72 346 370 C345.34 370 344.68 370 344 370 C343.34 367.36 342.68 364.72 342 362 C341.34 362 340.68 362 340 362 C339.67 360.35 339.34 358.7 339 357 C338.34 357 337.68 357 337 357 C336.855625 356.05125 336.71125 355.1025 336.5625 354.125 C336.17064601 351.1065506 336.17064601 351.1065506 335 349 C334.34 349 333.68 349 333 349 C332.87882812 348.36191406 332.75765625 347.72382813 332.6328125 347.06640625 C332.46523438 346.24011719 332.29765625 345.41382813 332.125 344.5625 C331.96257812 343.73878906 331.80015625 342.91507812 331.6328125 342.06640625 C331.42398437 341.38449219 331.21515625 340.70257813 331 340 C330.34 339.67 329.68 339.34 329 339 C328.27840576 337.35636866 327.60648579 335.68949614 327 334 C326.34 334 325.68 334 325 334 C324.87625 333.030625 324.7525 332.06125 324.625 331.0625 C324.315625 329.5465625 324.315625 329.5465625 324 328 C323.34 327.67 322.68 327.34 322 327 C321.33333333 325 320.66666667 323 320 321 C319.34 320.67 318.68 320.34 318 320 C317.27840576 318.35636866 316.60648579 316.68949614 316 315 C315.34 315 314.68 315 314 315 C313.34 312.69 312.68 310.38 312 308 C311.34 308 310.68 308 310 308 C309.34 306.02 308.68 304.04 308 302 C307.34 302 306.68 302 306 302 C305.896875 301.236875 305.79375 300.47375 305.6875 299.6875 C304.93772808 296.75657342 304.16526733 295.98482838 302 294 C301.67 293.01 301.34 292.02 301 291 C300.34 290.67 299.68 290.34 299 290 C298.33333333 288.66666667 297.66666667 287.33333333 297 286 C296.34 285.67 295.68 285.34 295 285 C293.875 282.9375 293.875 282.9375 293 281 C292.34 281 291.68 281 291 281 C289.8278944 278.65578881 288.67638361 276.31055639 287.5625 273.9375 C286.20044746 271.37684123 285.10120785 269.91018896 283 268 C282.67 267.34 282.34 266.68 282 266 C281.34 266 280.68 266 280 266 C279.855625 265.401875 279.71125 264.80375 279.5625 264.1875 C279.1127561 262.43849596 278.57107659 260.71322977 278 259 C277.34 259 276.68 259 276 259 C275.34 257.68 274.68 256.36 274 255 C273.34 255 272.68 255 272 255 C271.67 253.68 271.34 252.36 271 251 C270.34 251 269.68 251 269 251 C268.67 250.01 268.34 249.02 268 248 C256.12 247.505 256.12 247.505 244 247 C244 246.34 244 245.68 244 245 C243.01 244.67 242.02 244.34 241 244 C239.66666667 242.66666667 238.33333333 241.33333333 237 240 C236.34 240 235.68 240 235 240 C234.34 239.01 233.68 238.02 233 237 Z M-35 334 C-36.22517308 339.66642551 -36.09228867 345.23708518 -36 351 C-36.66 351 -37.32 351 -38 351 C-39.18400916 364.99667968 -39.1044444 378.9626728 -39 393 C-39.66 393 -40.32 393 -41 393 C-41 395.97 -41 398.94 -41 402 C-40.34 402 -39.68 402 -39 402 C-39.00785522 402.83192871 -39.00785522 402.83192871 -39.01586914 403.68066406 C-39.03671031 406.20376443 -39.04968282 408.72684664 -39.0625 411.25 C-39.07087891 412.12269531 -39.07925781 412.99539063 -39.08789062 413.89453125 C-39.09111328 414.73886719 -39.09433594 415.58320313 -39.09765625 416.453125 C-39.10289307 417.22817383 -39.10812988 418.00322266 -39.11352539 418.80175781 C-39.00036998 420.99283598 -38.60552448 422.89637861 -38 425 C-37.34 425 -36.68 425 -36 425 C-36.03480469 426.43279297 -36.03480469 426.43279297 -36.0703125 427.89453125 C-36.1814732 435.85840169 -35.81734706 443.19514341 -34 451 C-33.34 451 -32.68 451 -32 451 C-31.855625 451.928125 -31.71125 452.85625 -31.5625 453.8125 C-31.07899889 457.00725111 -31.07899889 457.00725111 -30 460 C-27.98491642 460.73323796 -27.98491642 460.73323796 -26 461 C-26 461.66 -26 462.32 -26 463 C-22.97264931 463.66614906 -20.10523337 464.10402792 -17 464 C-13.87677792 461.98291907 -12.37888061 460.54400971 -11.48046875 456.8828125 C-11.22021371 454.93263476 -11.09991161 452.96492839 -11 451 C-10.34 451 -9.68 451 -9 451 C-8.96241577 450.10861328 -8.96241577 450.10861328 -8.92407227 449.19921875 C-8.80691112 446.46598993 -8.68473727 443.73300633 -8.5625 441 C-8.52318359 440.06542969 -8.48386719 439.13085938 -8.44335938 438.16796875 C-8.19609347 432.72811877 -7.75680832 427.39305423 -7 422 C-6.34 422 -5.68 422 -5 422 C-4.505 420.515 -4.505 420.515 -4 419 C-3.01 418.34 -2.02 417.68 -1 417 C-1 416.34 -1 415.68 -1 415 C0.98 414.505 0.98 414.505 3 414 C3 413.34 3 412.68 3 412 C12.16976353 410.81680471 20.8439463 410.6435476 30 412 C30 412.66 30 413.32 30 414 C31.485 414.495 31.485 414.495 33 415 C34.68732277 416.98260426 36.35366057 418.9832342 38 421 C39.485 421.99 39.485 421.99 41 423 C41.33 423.99 41.66 424.98 42 426 C42.66 426 43.32 426 44 426 C44.99 430.95 44.99 430.95 46 436 C46.66 436 47.32 436 48 436 C48.495 440.95 48.495 440.95 49 446 C49.66 446 50.32 446 51 446 C50.97679687 446.58007812 50.95359375 447.16015625 50.9296875 447.7578125 C50.81749577 452.61411166 51.12485085 456.42932395 53 461 C53.99 460.67 54.98 460.34 56 460 C56.495 458.515 56.495 458.515 57 457 C57.66 456.67 58.32 456.34 59 456 C59.4640625 454.2675 59.4640625 454.2675 59.9375 452.5 C60.288125 451.345 60.63875 450.19 61 449 C61.99 448.67 62.98 448.34 64 448 C66.2085766 446.12491838 66.2085766 446.12491838 68 444 C68 443.34 68 442.68 68 442 C72.95 441.01 72.95 441.01 78 440 C78 439.34 78 438.68 78 438 C80.64 438.33 83.28 438.66 86 439 C86 439.33 86 439.66 86 440 C86.84884766 440.18175781 86.84884766 440.18175781 87.71484375 440.3671875 C88.44832031 440.53476562 89.18179688 440.70234375 89.9375 440.875 C90.66839844 441.03742188 91.39929688 441.19984375 92.15234375 441.3671875 C94 442 94 442 95 444 C96.97888961 444.72693904 98.97954558 445.39816251 101 446 C101.103125 446.78375 101.20625 447.5675 101.3125 448.375 C101.77595022 451.33045181 101.77595022 451.33045181 105 453 C105.33 453.99 105.66 454.98 106 456 C106.66 456 107.32 456 108 456 C108.66666667 458.66666667 109.33333333 461.33333333 110 464 C110.66 464 111.32 464 112 464 C112.66 467.96 113.32 471.92 114 476 C114.66 476 115.32 476 116 476 C115.99476318 477.17506104 115.98952637 478.35012207 115.98413086 479.56079102 C115.96595882 483.94229361 115.95452354 488.32379291 115.94506836 492.70532227 C115.94005597 494.59758058 115.93324433 496.48983505 115.92456055 498.38208008 C115.91235902 501.11019848 115.90674062 503.83826543 115.90234375 506.56640625 C115.89718246 507.40522842 115.89202118 508.2440506 115.88670349 509.10829163 C115.88625719 513.83713748 116.03412811 518.36038582 117 523 C117.66 523.33 118.32 523.66 119 524 C119.226875 524.66 119.45375 525.32 119.6875 526 C120.120625 526.66 120.55375 527.32 121 528 C124.56206661 528.81870185 124.56206661 528.81870185 128 529 C128 529.66 128 530.32 128 531 C129.65 531 131.3 531 133 531 C133 530.34 133 529.68 133 529 C134.98 528.67 136.96 528.34 139 528 C139.33 527.01 139.66 526.02 140 525 C140.66 525 141.32 525 142 525 C142.99 522.03 142.99 522.03 144 519 C144.66 519 145.32 519 146 519 C147.19287411 515.12315913 148 512.08378077 148 508 C148.66 508 149.32 508 150 508 C150.33 504.37 150.66 500.74 151 497 C151.66 497 152.32 497 153 497 C153.99 493.04 153.99 493.04 155 489 C155.66 489 156.32 489 157 489 C157.804375 488.030625 158.60875 487.06125 159.4375 486.0625 C162 483 162 483 165 482 C165 481.34 165 480.68 165 480 C172.8413948 479.1104875 180.16737959 478.99779463 188 480 C188.33 480.99 188.66 481.98 189 483 C189.99 483 190.98 483 192 483 C192.33 483.99 192.66 484.98 193 486 C195.01508358 486.73323796 195.01508358 486.73323796 197 487 C197 487.66 197 488.32 197 489 C197.66 489.33 198.32 489.66 199 490 C199.66666667 491.33333333 200.33333333 492.66666667 201 494 C202.4166747 495.7511573 202.4166747 495.7511573 204 497 C204.66 497 205.32 497 206 497 C206.99 500.465 206.99 500.465 208 504 C208.66 504 209.32 504 210 504 C210.99 508.455 210.99 508.455 212 513 C212.66 513 213.32 513 214 513 C214.99 518.445 214.99 518.445 216 524 C216.66 524 217.32 524 218 524 C218.33 527.96 218.66 531.92 219 536 C219.66 536 220.32 536 221 536 C221.33 540.62 221.66 545.24 222 550 C222.99 550.33 223.98 550.66 225 551 C225.35412344 552.32796291 225.68521554 553.66216607 226 555 C228.04376677 557.62770014 229.74333728 558.43850643 233 559 C233 559.66 233 560.32 233 561 C238.57432514 562.66251802 242.3067505 563.18609365 248 562 C248.33 561.01 248.66 560.02 249 559 C250.33333333 558.66666667 251.66666667 558.33333333 253 558 C253.33 557.01 253.66 556.02 254 555 C254.66 555 255.32 555 256 555 C256.103125 554.360625 256.20625 553.72125 256.3125 553.0625 C256.539375 552.381875 256.76625 551.70125 257 551 C257.99 550.67 258.98 550.34 260 550 C261.19813903 548.47803961 262.39623453 546.95604482 263.59375 545.43359375 C265.72373798 543.26218934 268.09611666 542.67532171 271 542 C271 541.34 271 540.68 271 540 C276.28 540 281.56 540 287 540 C287 540.66 287 541.32 287 542 C289.64738916 543.4606285 290.89448334 544 294 544 C294.33 545.32 294.66 546.64 295 548 C295.66 548 296.32 548 297 548 C297.66 549.98 298.32 551.96 299 554 C299.66 554 300.32 554 301 554 C301.66 561.59 302.32 569.18 303 577 C303.66 577 304.32 577 305 577 C305.33 579.31 305.66 581.62 306 584 C306.66 584 307.32 584 308 584 C308.66 580.37 309.32 576.74 310 573 C310.66 573 311.32 573 312 573 C312.20625 572.05125 312.4125 571.1025 312.625 570.125 C314 567 314 567 317.125 565.625 C318.07375 565.41875 319.0225 565.2125 320 565 C320 564.34 320 563.68 320 563 C325.94 562.01 325.94 562.01 332 561 C332 560.34 332 559.68 332 559 C337.28 559 342.56 559 348 559 C348 559.66 348 560.32 348 561 C352.29 561.66 356.58 562.32 361 563 C361 563.66 361 564.32 361 565 C361.61875 565.268125 362.2375 565.53625 362.875 565.8125 C365 567 365 567 367 570 C367.66 570 368.32 570 369 570 C369.28875 570.969375 369.5775 571.93875 369.875 572.9375 C370.64214682 576.10664203 370.64214682 576.10664203 373 577 C373.33 577.99 373.66 578.98 374 580 C374.66 580 375.32 580 376 580 C376.144375 581.2375 376.28875 582.475 376.4375 583.75 C376.78688502 586.56504499 377.20379366 589.2701497 378 592 C378.66 592 379.32 592 380 592 C380.02505615 592.7113208 380.0501123 593.4226416 380.07592773 594.15551758 C380.19188439 597.37469517 380.31461245 600.59357985 380.4375 603.8125 C380.47681641 604.93205078 380.51613281 606.05160156 380.55664062 607.20507812 C380.59853516 608.27822266 380.64042969 609.35136719 380.68359375 610.45703125 C380.72025146 611.44678955 380.75690918 612.43654785 380.79467773 613.45629883 C380.90790331 616.1218351 380.90790331 616.1218351 382 619 C382.66 619 383.32 619 384 619 C384.66 620.32 385.32 621.64 386 623 C386.99 623 387.98 623 389 623 C389 623.66 389 624.32 389 625 C390.258125 625.185625 391.51625 625.37125 392.8125 625.5625 C393.52019531 625.66691406 394.22789062 625.77132813 394.95703125 625.87890625 C397.2025342 626.13904799 397.2025342 626.13904799 400 625 C400.84681133 619.91913204 401.09038099 615.15171623 401 610 C401.66 610 402.32 610 403 610 C403.66 604.06 404.32 598.12 405 592 C405.66 592 406.32 592 407 592 C407.33 588.37 407.66 584.74 408 581 C408.66 581 409.32 581 410 581 C410.33 578.36 410.66 575.72 411 573 C408.69 572.67 406.38 572.34 404 572 C404 571.34 404 570.68 404 570 C402.35 569.67 400.7 569.34 399 569 C399 568.34 399 567.68 399 567 C395.7 566.34 392.4 565.68 389 565 C389 564.34 389 563.68 389 563 C386.09399739 561.74335022 384.20395416 561 381 561 C381 560.34 381 559.68 381 559 C378.09399739 557.74335022 376.20395416 557 373 557 C373 556.34 373 555.68 373 555 C372.030625 554.71125 371.06125 554.4225 370.0625 554.125 C367 553 367 553 366 551 C363.47266765 550.34444881 363.47266765 550.34444881 361 550 C361 549.34 361 548.68 361 548 C360.030625 547.71125 359.06125 547.4225 358.0625 547.125 C355 546 355 546 354 544 C351.65092125 543.31068656 351.65092125 543.31068656 348.9375 542.875 C348.01839844 542.70742188 347.09929687 542.53984375 346.15234375 542.3671875 C345.44207031 542.24601563 344.73179687 542.12484375 344 542 C344 541.34 344 540.68 344 540 C340.12315913 538.80712589 337.08378077 538 333 538 C333 537.34 333 536.68 333 536 C330.36 535.67 327.72 535.34 325 535 C325 534.34 325 533.68 325 533 C322.03 532.34 319.06 531.68 316 531 C316 530.34 316 529.68 316 529 C312.12315913 527.80712589 309.08378077 527 305 527 C305 526.34 305 525.68 305 525 C302.36 524.34 299.72 523.68 297 523 C297 522.34 297 521.68 297 521 C293.7 520.34 290.4 519.68 287 519 C287 518.34 287 517.68 287 517 C285.35 516.67 283.7 516.34 282 516 C282 515.34 282 514.68 282 514 C278.7 513.34 275.4 512.68 272 512 C272 511.34 272 510.68 272 510 C269.09399739 508.74335022 267.20395416 508 264 508 C264 507.34 264 506.68 264 506 C260.7 505.34 257.4 504.68 254 504 C254 503.34 254 502.68 254 502 C252.35 501.67 250.7 501.34 249 501 C248.67 500.01 248.34 499.02 248 498 C246.02 497.67 244.04 497.34 242 497 C242 496.34 242 495.68 242 495 C239.09399739 493.74335022 237.20395416 493 234 493 C234 492.34 234 491.68 234 491 C231.09399739 489.74335022 229.20395416 489 226 489 C226 488.34 226 487.68 226 487 C223.69 486.34 221.38 485.68 219 485 C219 484.34 219 483.68 219 483 C217.35 482.67 215.7 482.34 214 482 C214 481.34 214 480.68 214 480 C211.35261084 478.5393715 210.10551666 478 207 478 C207 477.34 207 476.68 207 476 C206.030625 475.71125 205.06125 475.4225 204.0625 475.125 C201 474 201 474 200 472 C197.6859378 471.26924352 195.35171131 470.59861742 193 470 C193 469.34 193 468.68 193 468 C191.35 467.67 189.7 467.34 188 467 C187.67 466.01 187.34 465.02 187 464 C185.02 463.67 183.04 463.34 181 463 C181 462.34 181 461.68 181 461 C178.35261084 459.5393715 177.10551666 459 174 459 C174 458.34 174 457.68 174 457 C171.69 456.34 169.38 455.68 167 455 C167 454.34 167 453.68 167 453 C164.09399739 451.74335022 162.20395416 451 159 451 C159 450.34 159 449.68 159 449 C157.68 448.67 156.36 448.34 155 448 C155 447.34 155 446.68 155 446 C152.09399739 444.74335022 150.20395416 444 147 444 C147 443.34 147 442.68 147 442 C144.09399739 440.74335022 142.20395416 440 139 440 C139 439.34 139 438.68 139 438 C135.04 437.01 135.04 437.01 131 436 C131 435.34 131 434.68 131 434 C128.69 433.67 126.38 433.34 124 433 C124 432.34 124 431.68 124 431 C121.09399739 429.74335022 119.20395416 429 116 429 C116 428.34 116 427.68 116 427 C113.35261084 425.5393715 112.10551666 425 109 425 C109 424.34 109 423.68 109 423 C105.49223216 421.39644899 102.85645121 420.77963136 99 421 C99 420.34 99 419.68 99 419 C96.09399739 417.74335022 94.20395416 417 91 417 C91 416.34 91 415.68 91 415 C89.35 414.67 87.7 414.34 86 414 C86 413.34 86 412.68 86 412 C83.36 411.34 80.72 410.68 78 410 C78 409.34 78 408.68 78 408 C75.36 407.34 72.72 406.68 70 406 C70 405.34 70 404.68 70 404 C67.69 403.34 65.38 402.68 63 402 C63 401.34 63 400.68 63 400 C60.35261084 398.5393715 59.10551666 398 56 398 C56 397.34 56 396.68 56 396 C54.35 395.67 52.7 395.34 51 395 C51 394.34 51 393.68 51 393 C50.195625 392.71125 49.39125 392.4225 48.5625 392.125 C46 391 46 391 45 389 C42.6859378 388.26924352 40.35171131 387.59861742 38 387 C38 386.34 38 385.68 38 385 C37.360625 384.71125 36.72125 384.4225 36.0625 384.125 C34 383 34 383 33 381 C31.515 380.505 31.515 380.505 30 380 C29.67 379.34 29.34 378.68 29 378 C27.02111039 377.27306096 25.02045442 376.60183749 23 376 C23 375.34 23 374.68 23 374 C21.02 373.34 19.04 372.68 17 372 C17 371.34 17 370.68 17 370 C14.18490007 367.7226499 14.18490007 367.7226499 11 368 C10.67 367.01 10.34 366.02 10 365 C7.98491642 364.26676204 7.98491642 364.26676204 6 364 C6 363.34 6 362.68 6 362 C3.69064913 359.37211797 2.36016893 358.12005631 -1 357 C-2 356 -3 355 -4 354 C-4.99 353.67 -5.98 353.34 -7 353 C-7.66 352.01 -8.32 351.02 -9 350 C-9.99 349.67 -10.98 349.34 -12 349 C-13 348 -14 347 -15 346 C-15.66 346 -16.32 346 -17 346 C-17 345.34 -17 344.68 -17 344 C-17.78375 343.731875 -18.5675 343.46375 -19.375 343.1875 C-22 342 -22 342 -24 339 C-24.99 338.67 -25.98 338.34 -27 338 C-27.33 337.34 -27.66 336.68 -28 336 C-30.62581138 334.42451317 -31.87099787 334 -35 334 Z M17 436 C17 440.95 17 445.9 17 451 C16.34 451 15.68 451 15 451 C14.67 454.96 14.34 458.92 14 463 C13.34 463 12.68 463 12 463 C10.74335022 465.90600261 10 467.79604584 10 471 C9.34 471 8.68 471 8 471 C7.79375 471.556875 7.5875 472.11375 7.375 472.6875 C6 475 6 475 3 477.4375 C-0.16551432 479.67448495 -0.16551432 479.67448495 -0.8125 482.6875 C-2 485 -2 485 -4.11328125 485.7578125 C-6.40444605 486.26379291 -8.67609713 486.67962656 -11 487 C-11 487.66 -11 488.32 -11 489 C-16.61 489 -22.22 489 -28 489 C-27.855625 490.876875 -27.71125 492.75375 -27.5625 494.6875 C-27.48128906 495.74324219 -27.40007812 496.79898438 -27.31640625 497.88671875 C-27.03548319 500.65086297 -26.59843148 503.28945741 -26 506 C-25.34 506 -24.68 506 -24 506 C-23.8453125 507.8871875 -23.8453125 507.8871875 -23.6875 509.8125 C-23.35469083 512.46091096 -23.15541282 513.77394498 -21.625 516 C-19.89217787 517.26204871 -19.89217787 517.26204871 -17 517 C-17 517.66 -17 518.32 -17 519 C-16.195625 519.28875 -15.39125 519.5775 -14.5625 519.875 C-12 521 -12 521 -11 523 C-8.88153715 523.68729254 -8.88153715 523.68729254 -6.4375 524.125 C-5.61121094 524.29257812 -4.78492188 524.46015625 -3.93359375 524.6328125 C-2.97646484 524.81457031 -2.97646484 524.81457031 -2 525 C-2 525.66 -2 526.32 -2 527 C-0.02 527.66 1.96 528.32 4 529 C4 529.66 4 530.32 4 531 C6.64 531.66 9.28 532.32 12 533 C12 533.66 12 534.32 12 535 C13.65 535.33 15.3 535.66 17 536 C17 536.66 17 537.32 17 538 C20.37097383 539.49821059 22.20442119 540 26 540 C26 540.66 26 541.32 26 542 C28.64 542.66 31.28 543.32 34 544 C34 544.66 34 545.32 34 546 C37.61973402 547.31626692 40.09567131 548 44 548 C44 548.66 44 549.32 44 550 C46.31 550.33 48.62 550.66 51 551 C51 551.66 51 552.32 51 553 C54.3 553.66 57.6 554.32 61 555 C61 555.66 61 556.32 61 557 C62.41538717 557.33872513 63.83237963 557.67074624 65.25 558 C66.43335938 558.2784375 66.43335938 558.2784375 67.640625 558.5625 C70.25556002 559.12154828 70.25556002 559.12154828 74 559 C74 559.66 74 560.32 74 561 C77.82320557 562.42258812 80.91281305 563.24042276 85 563 C85 563.66 85 564.32 85 565 C88.61973402 566.31626692 91.09567131 567 95 567 C95 567.66 95 568.32 95 569 C97.31 569.33 99.62 569.66 102 570 C102 570.66 102 571.32 102 572 C105.3 572.66 108.6 573.32 112 574 C112 574.66 112 575.32 112 576 C114.97 576.66 117.94 577.32 121 578 C121 578.66 121 579.32 121 580 C124.61973402 581.31626692 127.09567131 582 131 582 C131 582.66 131 583.32 131 584 C132.65 584.33 134.3 584.66 136 585 C136 585.66 136 586.32 136 587 C139.3 587.66 142.6 588.32 146 589 C146 589.66 146 590.32 146 591 C148.90600261 592.25664978 150.79604584 593 154 593 C154 593.66 154 594.32 154 595 C156.97 595.66 159.94 596.32 163 597 C163 597.66 163 598.32 163 599 C166.61973402 600.31626692 169.09567131 601 173 601 C173 601.66 173 602.32 173 603 C174.65 603.33 176.3 603.66 178 604 C178 604.66 178 605.32 178 606 C181.61973402 607.31626692 184.09567131 608 188 608 C188 608.66 188 609.32 188 610 C190.90600261 611.25664978 192.79604584 612 196 612 C196 612.66 196 613.32 196 614 C198.90600261 615.25664978 200.79604584 616 204 616 C204 616.66 204 617.32 204 618 C206.31 618.33 208.62 618.66 211 619 C211 619.66 211 620.32 211 621 C214.50776784 622.60355101 217.14354879 623.22036864 221 623 C221 623.66 221 624.32 221 625 C223.97 625.66 226.94 626.32 230 627 C230 627.66 230 628.32 230 629 C233.87684087 630.19287411 236.91621923 631 241 631 C241 631.66 241 632.32 241 633 C244.87684087 634.19287411 247.91621923 635 252 635 C252 635.66 252 636.32 252 637 C254.64 637.33 257.28 637.66 260 638 C260 638.66 260 639.32 260 640 C261.2375 640.33 262.475 640.66 263.75 641 C264.44609375 641.185625 265.1421875 641.37125 265.859375 641.5625 C268.28901861 642.13349349 268.28901861 642.13349349 272 642 C272 642.66 272 643.32 272 644 C273.2375 644.33 274.475 644.66 275.75 645 C276.44609375 645.185625 277.1421875 645.37125 277.859375 645.5625 C280.28901861 646.13349349 280.28901861 646.13349349 284 646 C284 646.66 284 647.32 284 648 C286.04071515 648.33910994 288.08262621 648.67102704 290.125 649 C291.26195312 649.185625 292.39890625 649.37125 293.5703125 649.5625 C296.76137602 649.96956049 299.78817791 650.07809902 303 650 C303 650.66 303 651.32 303 652 C305.68693722 652.33851178 308.37440289 652.670936 311.0625 653 C312.19075195 653.14308594 312.19075195 653.14308594 313.34179688 653.2890625 C317.93421317 653.84571902 322.3742135 654.09829028 327 654 C327 654.66 327 655.32 327 656 C331.29 656.33 335.58 656.66 340 657 C340 657.66 340 658.32 340 659 C341.87387477 659.3396019 343.74916697 659.67138691 345.625 660 C346.66914062 660.185625 347.71328125 660.37125 348.7890625 660.5625 C351.90574865 660.98715797 354.85930812 661.07545206 358 661 C358 661.66 358 662.32 358 663 C373.95963147 664.78825215 373.95963147 664.78825215 390 665 C390 663.35 390 661.7 390 660 C390.66 660 391.32 660 392 660 C392.33 657.36 392.66 654.72 393 652 C392.01 652 391.02 652 390 652 C390 651.34 390 650.68 390 650 C385.71 649.34 381.42 648.68 377 648 C377 647.34 377 646.68 377 646 C376.0925 645.7525 375.185 645.505 374.25 645.25 C370.87227303 643.95087424 369.42480947 642.59801015 367 640 C366.34 640 365.68 640 365 640 C365 639.01 365 638.02 365 637 C364.34 637 363.68 637 363 637 C362.34 635.02 361.68 633.04 361 631 C360.34 631 359.68 631 359 631 C358.67 629.35 358.34 627.7 358 626 C357.34 626 356.68 626 356 626 C355.97494385 625.33991943 355.9498877 624.67983887 355.92407227 623.99975586 C355.80728248 620.97884631 355.68493554 617.95818578 355.5625 614.9375 C355.50352539 613.37999023 355.50352539 613.37999023 355.44335938 611.79101562 C355.22333656 606.45969359 354.8883816 601.26310107 354 596 C353.34 596 352.68 596 352 596 C351.67 593.69 351.34 591.38 351 589 C349.35 588.34 347.7 587.68 346 587 C346 586.34 346 585.68 346 585 C342.7 585 339.4 585 336 585 C336 585.66 336 586.32 336 587 C334.68 587.33 333.36 587.66 332 588 C331.67 591.63 331.34 595.26 331 599 C330.34 599 329.68 599 329 599 C327.74335022 601.90600261 327 603.79604584 327 607 C326.195625 607.12375 325.39125 607.2475 324.5625 607.375 C323.716875 607.58125 322.87125 607.7875 322 608 C321.67 608.66 321.34 609.32 321 610 C318.6859378 610.73075648 316.35171131 611.40138258 314 612 C314 612.66 314 613.32 314 614 C311.36 614 308.72 614 306 614 C306 613.34 306 612.68 306 612 C305.43410156 611.87882813 304.86820313 611.75765625 304.28515625 611.6328125 C303.18494141 611.38144531 303.18494141 611.38144531 302.0625 611.125 C300.96615234 610.88136719 300.96615234 610.88136719 299.84765625 610.6328125 C298 610 298 610 297 608 C294.37418862 606.42451317 293.12900213 606 290 606 C290 605.34 290 604.68 290 604 C289.34 603.67 288.68 603.34 288 603 C286.875 600.9375 286.875 600.9375 286 599 C285.34 599 284.68 599 284 599 C283.855625 598.05125 283.71125 597.1025 283.5625 596.125 C283.17064601 593.1065506 283.17064601 593.1065506 282 591 C281.34 591 280.68 591 280 591 C279.34 584.07 278.68 577.14 278 570 C277.34 570 276.68 570 276 570 C274.74772516 571.47704212 273.49833478 572.95827399 272.31640625 574.4921875 C271 576 271 576 268 578 C268 578.66 268 579.32 268 580 C267.401875 580.144375 266.80375 580.28875 266.1875 580.4375 C264.43849596 580.8872439 262.71322977 581.42892341 261 582 C260.67 582.66 260.34 583.32 260 584 C259.01 584.33 258.02 584.66 257 585 C257 585.66 257 586.32 257 587 C246.82839541 588.31246511 237.19061484 588.08493238 227 587 C227 586.34 227 585.68 227 585 C225.35 584.67 223.7 584.34 222 584 C222 583.34 222 582.68 222 582 C220.63875 581.62875 220.63875 581.62875 219.25 581.25 C215.87227303 579.95087424 214.42480947 578.59801015 212 576 C211.34 576 210.68 576 210 576 C210 575.34 210 574.68 210 574 C209.01 573.34 208.02 572.68 207 572 C206.67 571.01 206.34 570.02 206 569 C205.34 569 204.68 569 204 569 C203.67 568.01 203.34 567.02 203 566 C202.34 566 201.68 566 201 566 C200.7834375 564.8553125 200.7834375 564.8553125 200.5625 563.6875 C200.0367406 560.91827092 200.0367406 560.91827092 199 558 C198.34 558 197.68 558 197 558 C196.93941406 557.05898438 196.87882813 556.11796875 196.81640625 555.1484375 C196.73261719 553.90320313 196.64882813 552.65796875 196.5625 551.375 C196.48128906 550.14523437 196.40007812 548.91546875 196.31640625 547.6484375 C196.03336056 544.38467612 195.58961047 541.22056141 195 538 C194.34 538 193.68 538 193 538 C192.93941406 537.24074219 192.87882813 536.48148438 192.81640625 535.69921875 C192.73261719 534.70535156 192.64882813 533.71148438 192.5625 532.6875 C192.48128906 531.70136719 192.40007812 530.71523438 192.31640625 529.69921875 C192.08187441 526.90624401 192.08187441 526.90624401 191 524 C190.34 524 189.68 524 189 524 C188.7834375 522.3603125 188.7834375 522.3603125 188.5625 520.6875 C188.11711896 517.06877013 188.11711896 517.06877013 187 514 C186.34 513.67 185.68 513.34 185 513 C184.67 512.01 184.34 511.02 184 510 C182.59894424 508.57142881 182.59894424 508.57142881 180.9375 507.3125 C179.968125 506.549375 178.99875 505.78625 178 505 C177.01 505.495 177.01 505.495 176 506 C176 507.98 176 509.96 176 512 C175.34 512 174.68 512 174 512 C173.34 515.96 172.68 519.92 172 524 C171.34 524 170.68 524 170 524 C169.67 526.31 169.34 528.62 169 531 C168.34 531 167.68 531 167 531 C165.5393715 533.64738916 165 534.89448334 165 538 C164.01 538.33 163.02 538.66 162 539 C161.67 539.99 161.34 540.98 161 542 C155.91891892 546.54054054 155.91891892 546.54054054 153 548 C153 548.66 153 549.32 153 550 C150.525 550.495 150.525 550.495 148 551 C148 551.66 148 552.32 148 553 C144.7 553.66 141.4 554.32 138 555 C138 555.66 138 556.32 138 557 C133.71 557 129.42 557 125 557 C125 556.34 125 555.68 125 555 C121.04 554.34 117.08 553.68 113 553 C113 552.34 113 551.68 113 551 C111.35 550.67 109.7 550.34 108 550 C108 549.34 108 548.68 108 548 C105.18490007 545.7226499 105.18490007 545.7226499 102 546 C101.67 544.68 101.34 543.36 101 542 C100.34 542 99.68 542 99 542 C98.34 540.02 97.68 538.04 97 536 C96.34 536 95.68 536 95 536 C94.01 530.555 94.01 530.555 93 525 C92.34 525 91.68 525 91 525 C91.01047363 523.8761792 91.02094727 522.7523584 91.03173828 521.59448242 C91.06826841 517.37690487 91.09101916 513.15934095 91.10986328 508.94165039 C91.11984632 507.12522012 91.1334375 505.30880561 91.15087891 503.49243164 C91.32605152 489.13441572 91.32605152 489.13441572 89 475 C88.34 475 87.68 475 87 475 C86.855625 474.236875 86.71125 473.47375 86.5625 472.6875 C86.0367406 469.91827092 86.0367406 469.91827092 85 467 C84.34 467 83.68 467 83 467 C82.505 466.01 82.505 466.01 82 465 C82 465.66 82 466.32 82 467 C81.34 467 80.68 467 80 467 C79.34 469.31 78.68 471.62 78 474 C77.34 474 76.68 474 76 474 C75.731875 474.61875 75.46375 475.2375 75.1875 475.875 C74 478 74 478 71 480 C71 480.66 71 481.32 71 482 C69.68 482.33 68.36 482.66 67 483 C67 483.66 67 484.32 67 485 C50.29157175 486.33257403 50.29157175 486.33257403 42 485 C42 484.34 42 483.68 42 483 C41.38125 482.9175 40.7625 482.835 40.125 482.75 C38 482 38 482 36.75 479.9375 C36.5025 479.298125 36.255 478.65875 36 478 C35.34 478 34.68 478 34 478 C33.71125 477.030625 33.4225 476.06125 33.125 475.0625 C32.35785318 471.89335797 32.35785318 471.89335797 30 471 C29.375 468.9375 29.375 468.9375 29 467 C28.34 467 27.68 467 27 467 C26.93941406 466.21496094 26.87882812 465.42992187 26.81640625 464.62109375 C26.37179786 459.04638852 25.87875357 453.52359384 25 448 C24.34 448 23.68 448 23 448 C23.04125 447.113125 23.0825 446.22625 23.125 445.3125 C22.9985488 441.96154325 22.65882234 439.90293909 21 437 C19.68 436.67 18.36 436.34 17 436 Z " fill="#000000" transform="translate(270,0)"/>
</svg>
